<svg width="32" height="28" viewBox="0 0 32 28" fill="none" xmlns="http://www.w3.org/2000/svg">
<g clip-path="url(#clip0_7_571)">
<path d="M31.2617 14C31.2617 6.26806 24.2635 0 15.6309 0C6.99823 0 0 6.26795 0 14C0 20.9877 5.71601 26.7797 13.1885 27.8299V18.0469H9.21977V14H13.1885V10.9156C13.1885 7.40687 15.5222 5.46875 19.0925 5.46875C20.8027 5.46875 22.5915 5.74219 22.5915 5.74219V9.1875H20.6205C18.6786 9.1875 18.0732 10.2667 18.0732 11.3739V14H22.4083L21.7153 18.0469H18.0732V27.8299C25.5457 26.7797 31.2617 20.9879 31.2617 14Z" fill="#1877F2"/>
<path d="M21.7153 18.0469L22.4083 14H18.0732V11.3739C18.0732 10.2666 18.6788 9.1875 20.6205 9.1875H22.5915V5.74219C22.5915 5.74219 20.8027 5.46875 19.0925 5.46875C15.5222 5.46875 13.1886 7.40688 13.1886 10.9156V14H9.21979V18.0469H13.1886V27.8299C13.9965 27.9433 14.8131 28.0002 15.6309 28C16.4487 28.0002 17.2653 27.9434 18.0732 27.8299V18.0469H21.7153Z" fill="white"/>
</g>
<defs>
<clipPath id="clip0_7_571">
<rect width="31.2617" height="28" fill="white"/>
</clipPath>
</defs>
</svg>
