<svg width="308" height="204" viewBox="0 0 308 204" fill="none" xmlns="http://www.w3.org/2000/svg">
<path d="M0 144.579C6.01423 144.579 12.0285 163.75 18.0427 173.334C24.0569 182.92 30.0711 202.091 36.0853 202.091C42.0995 202.091 48.1139 182.92 54.1281 173.334C60.1424 163.75 66.1565 144.579 72.1707 144.579C78.1849 144.579 84.1992 173.334 90.2134 173.334C96.2276 173.334 102.242 154.164 108.256 144.579C114.27 134.993 120.285 125.408 126.299 115.823C132.313 106.238 138.327 96.6524 144.342 87.0669C150.356 77.4824 156.37 67.8969 162.384 58.3115C168.398 48.726 174.413 29.5561 180.427 29.5561C186.441 29.5561 192.455 58.3115 198.47 58.3115C204.484 58.3115 210.498 29.5561 216.512 29.5561C222.526 29.5561 228.541 58.3115 234.555 58.3115C240.569 58.3115 246.583 29.5561 252.598 29.5561C258.612 29.5561 264.626 58.3115 270.64 58.3115C276.654 58.3115 282.669 39.1406 288.683 29.5561C294.697 19.9706 300.711 10.3851 306.726 0.799689" stroke="#3182BD" stroke-width="3"/>
</svg>
