<svg width="112" height="61" viewBox="0 0 112 61" fill="none" xmlns="http://www.w3.org/2000/svg">
<path d="M1.0007 55.742H3.61247C4.318 55.742 4.97142 55.3705 5.33227 54.7642L5.94524 53.7344C6.67166 52.514 8.40275 52.4174 9.26037 53.5495L12.2953 57.5558C12.6736 58.0553 13.2641 58.3487 13.8906 58.3487H17.5211C18.0378 58.3487 18.5345 58.1489 18.9072 57.7911L19.3202 57.3946C20.2181 56.5325 21.6767 56.6905 22.3693 57.7248L22.6894 58.2029C23.4078 59.2757 24.9388 59.3977 25.818 58.4524L30.9388 52.9463C31.7774 52.0445 33.2379 52.1609 33.9231 53.1842V53.1842C34.7113 54.3613 36.4618 54.3002 37.166 53.071L39.0033 49.864C39.2395 49.4516 39.6148 49.1368 40.0619 48.9758L43.8067 47.6276C44.4281 47.4039 44.8992 46.888 45.0656 46.2488L46.9416 39.0448C47.0899 38.4751 47.4816 37.9996 48.0123 37.7449L50.5511 36.5262C50.9991 36.3111 51.3488 35.9341 51.5297 35.4711V35.4711C52.1701 33.8316 54.4785 33.7993 55.1645 35.4204L56.8437 39.3887C57.302 40.4718 58.591 40.9281 59.6287 40.3746L62.9949 38.5792C63.5099 38.3046 63.8793 37.8189 64.0064 37.2493L67.4018 22.0373C67.6581 20.8891 68.8446 20.2085 69.9651 20.5671L70.2269 20.6508C71.2061 20.9642 72.2635 20.4846 72.6728 19.5415L74.6114 15.0747C74.9673 14.2548 76.0316 14.0411 76.6763 14.66L77.2025 15.1652C77.6113 15.5577 78.2878 15.4087 78.494 14.8808V14.8808C78.7336 14.2674 79.5724 14.1944 79.9144 14.7572L81.2788 17.0028C82.2107 18.5365 84.5344 18.1632 84.9391 16.4149L87.2832 6.28782C87.5896 4.96413 89.0977 4.32392 90.2628 5.02299L91.7885 5.93846C92.667 6.46558 93.8017 6.24417 94.4176 5.42546L97.1458 1.79893C97.5239 1.29633 98.1162 1.0007 98.7451 1.0007H102.577C103.521 1.0007 104.336 1.6598 104.534 2.58244L105.408 6.65871C105.801 8.49078 108.271 8.82674 109.139 7.16619L110.999 3.60743" stroke="#77FF95" stroke-width="2" stroke-linecap="round"/>
</svg>
