<svg width="24" height="24" viewBox="0 0 24 24" fill="none" xmlns="http://www.w3.org/2000/svg">
<path d="M21.2062 3.932L20.0705 2.79629C20.0302 2.75641 19.9759 2.73404 19.9192 2.73404C19.8625 2.73404 19.8081 2.75641 19.7678 2.79629L2.79373 19.765C2.75385 19.8053 2.73148 19.8597 2.73148 19.9164C2.73148 19.9731 2.75385 20.0274 2.79373 20.0677L3.92945 21.2034C4.01248 21.2865 4.14909 21.2865 4.23213 21.2034L21.2036 4.232C21.2893 4.15165 21.2893 4.01504 21.2062 3.932ZM6.42855 10.2856C8.55534 10.2856 10.2857 8.55522 10.2857 6.42843C10.2857 4.30165 8.55534 2.57129 6.42855 2.57129C4.30177 2.57129 2.57141 4.30165 2.57141 6.42843C2.57141 8.55522 4.30177 10.2856 6.42855 10.2856ZM6.42855 4.49986C7.49195 4.49986 8.35713 5.36504 8.35713 6.42843C8.35713 7.49182 7.49195 8.357 6.42855 8.357C5.36516 8.357 4.49998 7.49182 4.49998 6.42843C4.49998 5.36504 5.36516 4.49986 6.42855 4.49986ZM17.5714 13.7141C15.4446 13.7141 13.7143 15.4445 13.7143 17.5713C13.7143 19.6981 15.4446 21.4284 17.5714 21.4284C19.6982 21.4284 21.4286 19.6981 21.4286 17.5713C21.4286 15.4445 19.6982 13.7141 17.5714 13.7141ZM17.5714 19.4999C16.508 19.4999 15.6428 18.6347 15.6428 17.5713C15.6428 16.5079 16.508 15.6427 17.5714 15.6427C18.6348 15.6427 19.5 16.5079 19.5 17.5713C19.5 18.6347 18.6348 19.4999 17.5714 19.4999Z" fill="#6F6F6F"/>
</svg>
