<svg width="44" height="22" viewBox="0 0 44 22" fill="none" xmlns="http://www.w3.org/2000/svg">
<rect width="44" height="22" rx="11" fill="#00A811"/>
<g clip-path="url(#clip0_253_3211)">
<path d="M18.3573 6.1875H17.4211C17.2899 6.1875 17.1653 6.24777 17.085 6.35089L11.5631 13.346L8.91533 9.99107C8.87527 9.94022 8.82422 9.8991 8.766 9.8708C8.70777 9.8425 8.6439 9.82776 8.57916 9.82768H7.643C7.55327 9.82768 7.50372 9.9308 7.55863 10.0004L11.2269 14.6478C11.3984 14.8647 11.7278 14.8647 11.9006 14.6478L18.4417 6.35893C18.4966 6.29063 18.447 6.1875 18.3573 6.1875Z" fill="white"/>
</g>
<g filter="url(#filter0_d_253_3211)">
<rect x="24" y="2" width="18" height="18" rx="9" fill="white"/>
</g>
<defs>
<filter id="filter0_d_253_3211" x="20" y="0" width="26" height="26" filterUnits="userSpaceOnUse" color-interpolation-filters="sRGB">
<feFlood flood-opacity="0" result="BackgroundImageFix"/>
<feColorMatrix in="SourceAlpha" type="matrix" values="0 0 0 0 0 0 0 0 0 0 0 0 0 0 0 0 0 0 127 0" result="hardAlpha"/>
<feOffset dy="2"/>
<feGaussianBlur stdDeviation="2"/>
<feComposite in2="hardAlpha" operator="out"/>
<feColorMatrix type="matrix" values="0 0 0 0 0 0 0 0 0 0.137255 0 0 0 0 0.0431373 0 0 0 0.2 0"/>
<feBlend mode="normal" in2="BackgroundImageFix" result="effect1_dropShadow_253_3211"/>
<feBlend mode="normal" in="SourceGraphic" in2="effect1_dropShadow_253_3211" result="shape"/>
</filter>
<clipPath id="clip0_253_3211">
<rect width="12" height="12" fill="white" transform="translate(7 4.5)"/>
</clipPath>
</defs>
</svg>
