<svg width="544" height="194" viewBox="0 0 544 194" fill="none" xmlns="http://www.w3.org/2000/svg">
<g clip-path="url(#clip0_253_2890)">
<path d="M3.39966 180.893H1.13322C0.507359 180.893 0 181.796 0 182.911V189.77C0 190.885 0.507359 191.788 1.13322 191.788H3.39966C4.02551 191.788 4.53287 190.885 4.53287 189.77V182.911C4.53287 181.796 4.02551 180.893 3.39966 180.893Z" fill="#00D564"/>
</g>
<g clip-path="url(#clip1_253_2890)">
<path d="M8.83709 162.88H6.57065C5.94479 162.88 5.43743 163.783 5.43743 164.897V171.757C5.43743 172.871 5.94479 173.774 6.57065 173.774H8.83709C9.46295 173.774 9.97031 172.871 9.97031 171.757V164.897C9.97031 163.783 9.46295 162.88 8.83709 162.88Z" fill="#00D564"/>
</g>
<g clip-path="url(#clip2_253_2890)">
<path d="M14.275 144.866H12.0086C11.3827 144.866 10.8754 145.769 10.8754 146.884V153.743C10.8754 154.858 11.3827 155.761 12.0086 155.761H14.275C14.9009 155.761 15.4082 154.858 15.4082 153.743V146.884C15.4082 145.769 14.9009 144.866 14.275 144.866Z" fill="#00D564"/>
</g>
<g clip-path="url(#clip3_253_2890)">
<path d="M19.7129 126.853H17.4465C16.8206 126.853 16.3133 127.756 16.3133 128.87V135.73C16.3133 136.844 16.8206 137.747 17.4465 137.747H19.7129C20.3388 137.747 20.8462 136.844 20.8462 135.73V128.87C20.8462 127.756 20.3388 126.853 19.7129 126.853Z" fill="#00D564"/>
</g>
<g clip-path="url(#clip4_253_2890)">
<path d="M25.1504 108.839H22.8839C22.2581 108.839 21.7507 109.742 21.7507 110.856V117.716C21.7507 118.83 22.2581 119.734 22.8839 119.734H25.1504C25.7762 119.734 26.2836 118.83 26.2836 117.716V110.856C26.2836 109.742 25.7762 108.839 25.1504 108.839Z" fill="#00D564"/>
</g>
<g clip-path="url(#clip5_253_2890)">
<path d="M30.5883 126.853H28.3219C27.696 126.853 27.1886 127.756 27.1886 128.87V135.73C27.1886 136.844 27.696 137.747 28.3219 137.747H30.5883C31.2141 137.747 31.7215 136.844 31.7215 135.73V128.87C31.7215 127.756 31.2141 126.853 30.5883 126.853Z" fill="#FF0000"/>
</g>
<g clip-path="url(#clip6_253_2890)">
<path d="M36.0257 108.839H33.7593C33.1334 108.839 32.6261 109.742 32.6261 110.856V117.716C32.6261 118.83 33.1334 119.734 33.7593 119.734H36.0257C36.6516 119.734 37.1589 118.83 37.1589 117.716V110.856C37.1589 109.742 36.6516 108.839 36.0257 108.839Z" fill="#00D564"/>
</g>
<g clip-path="url(#clip7_253_2890)">
<path d="M41.4636 90.8252H39.1972C38.5713 90.8252 38.064 91.7285 38.064 92.8428V99.7024C38.064 100.817 38.5713 101.72 39.1972 101.72H41.4636C42.0895 101.72 42.5969 100.817 42.5969 99.7024V92.8428C42.5969 91.7285 42.0895 90.8252 41.4636 90.8252Z" fill="#00D564"/>
</g>
<g clip-path="url(#clip8_253_2890)">
<path d="M46.9016 72.8116H44.6351C44.0093 72.8116 43.5019 73.7149 43.5019 74.8291V81.6887C43.5019 82.803 44.0093 83.7063 44.6351 83.7063H46.9016C47.5274 83.7063 48.0348 82.803 48.0348 81.6887V74.8291C48.0348 73.7149 47.5274 72.8116 46.9016 72.8116Z" fill="#00D564"/>
</g>
<g clip-path="url(#clip9_253_2890)">
<path d="M52.339 54.7975H50.0726C49.4467 54.7975 48.9393 55.7007 48.9393 56.815V63.6746C48.9393 64.7889 49.4467 65.6921 50.0726 65.6921H52.339C52.9649 65.6921 53.4722 64.7889 53.4722 63.6746V56.815C53.4722 55.7007 52.9649 54.7975 52.339 54.7975Z" fill="#00D564"/>
</g>
<g clip-path="url(#clip10_253_2890)">
<path d="M57.7769 72.8116H55.5105C54.8846 72.8116 54.3773 73.7149 54.3773 74.8291V81.6887C54.3773 82.803 54.8846 83.7063 55.5105 83.7063H57.7769C58.4028 83.7063 58.9101 82.803 58.9101 81.6887V74.8291C58.9101 73.7149 58.4028 72.8116 57.7769 72.8116Z" fill="#FF0000"/>
</g>
<g clip-path="url(#clip11_253_2890)">
<path d="M63.2144 90.8252H60.9479C60.3221 90.8252 59.8147 91.7285 59.8147 92.8428V99.7024C59.8147 100.817 60.3221 101.72 60.9479 101.72H63.2144C63.8402 101.72 64.3476 100.817 64.3476 99.7024V92.8428C64.3476 91.7285 63.8402 90.8252 63.2144 90.8252Z" fill="#FF0000"/>
</g>
<g clip-path="url(#clip12_253_2890)">
<path d="M68.6523 108.839H66.3858C65.76 108.839 65.2526 109.742 65.2526 110.856V117.716C65.2526 118.83 65.76 119.734 66.3858 119.734H68.6523C69.2781 119.734 69.7855 118.83 69.7855 117.716V110.856C69.7855 109.742 69.2781 108.839 68.6523 108.839Z" fill="#FF0000"/>
</g>
<g clip-path="url(#clip13_253_2890)">
<path d="M74.0897 126.853H71.8233C71.1974 126.853 70.6901 127.756 70.6901 128.87V135.73C70.6901 136.844 71.1974 137.747 71.8233 137.747H74.0897C74.7156 137.747 75.2229 136.844 75.2229 135.73V128.87C75.2229 127.756 74.7156 126.853 74.0897 126.853Z" fill="#FF0000"/>
</g>
<g clip-path="url(#clip14_253_2890)">
<path d="M79.5276 144.866H77.2612C76.6353 144.866 76.128 145.769 76.128 146.884V153.743C76.128 154.858 76.6353 155.761 77.2612 155.761H79.5276C80.1535 155.761 80.6609 154.858 80.6609 153.743V146.884C80.6609 145.769 80.1535 144.866 79.5276 144.866Z" fill="#FF0000"/>
</g>
<g clip-path="url(#clip15_253_2890)">
<path d="M84.9656 126.853H82.6991C82.0733 126.853 81.5659 127.756 81.5659 128.87V135.73C81.5659 136.844 82.0733 137.747 82.6991 137.747H84.9656C85.5914 137.747 86.0988 136.844 86.0988 135.73V128.87C86.0988 127.756 85.5914 126.853 84.9656 126.853Z" fill="#00D564"/>
</g>
<g clip-path="url(#clip16_253_2890)">
<path d="M90.403 108.839H88.1366C87.5107 108.839 87.0033 109.742 87.0033 110.856V117.716C87.0033 118.83 87.5107 119.734 88.1366 119.734H90.403C91.0288 119.734 91.5362 118.83 91.5362 117.716V110.856C91.5362 109.742 91.0288 108.839 90.403 108.839Z" fill="#00D564"/>
</g>
<g clip-path="url(#clip17_253_2890)">
<path d="M95.8409 90.8252H93.5745C92.9486 90.8252 92.4413 91.7285 92.4413 92.8428V99.7024C92.4413 100.817 92.9486 101.72 93.5745 101.72H95.8409C96.4668 101.72 96.9741 100.817 96.9741 99.7024V92.8428C96.9741 91.7285 96.4668 90.8252 95.8409 90.8252Z" fill="#00D564"/>
</g>
<g clip-path="url(#clip18_253_2890)">
<path d="M101.278 108.839H99.0119C98.386 108.839 97.8787 109.742 97.8787 110.856V117.716C97.8787 118.83 98.386 119.734 99.0119 119.734H101.278C101.904 119.734 102.412 118.83 102.412 117.716V110.856C102.412 109.742 101.904 108.839 101.278 108.839Z" fill="#FF0000"/>
</g>
<g clip-path="url(#clip19_253_2890)">
<path d="M106.716 90.8252H104.45C103.824 90.8252 103.317 91.7285 103.317 92.8428V99.7024C103.317 100.817 103.824 101.72 104.45 101.72H106.716C107.342 101.72 107.849 100.817 107.849 99.7024V92.8428C107.849 91.7285 107.342 90.8252 106.716 90.8252Z" fill="#00D564"/>
</g>
<g clip-path="url(#clip20_253_2890)">
<path d="M112.154 72.8116H109.887C109.261 72.8116 108.754 73.7149 108.754 74.8291V81.6887C108.754 82.803 109.261 83.7063 109.887 83.7063H112.154C112.78 83.7063 113.287 82.803 113.287 81.6887V74.8291C113.287 73.7149 112.78 72.8116 112.154 72.8116Z" fill="#00D564"/>
</g>
<g clip-path="url(#clip21_253_2890)">
<path d="M117.592 54.7975H115.325C114.699 54.7975 114.192 55.7007 114.192 56.815V63.6746C114.192 64.7889 114.699 65.6921 115.325 65.6921H117.592C118.217 65.6921 118.725 64.7889 118.725 63.6746V56.815C118.725 55.7007 118.217 54.7975 117.592 54.7975Z" fill="#00D564"/>
</g>
<g clip-path="url(#clip22_253_2890)">
<path d="M123.03 36.7841H120.763C120.137 36.7841 119.63 37.6874 119.63 38.8016V45.6612C119.63 46.7755 120.137 47.6788 120.763 47.6788H123.03C123.655 47.6788 124.163 46.7755 124.163 45.6612V38.8016C124.163 37.6874 123.655 36.7841 123.03 36.7841Z" fill="#00D564"/>
</g>
<g clip-path="url(#clip23_253_2890)">
<path d="M128.467 18.7702H126.201C125.575 18.7702 125.067 19.6735 125.067 20.7877V27.6473C125.067 28.7616 125.575 29.6649 126.201 29.6649H128.467C129.093 29.6649 129.6 28.7616 129.6 27.6473V20.7877C129.6 19.6735 129.093 18.7702 128.467 18.7702Z" fill="#00D564"/>
</g>
<g clip-path="url(#clip24_253_2890)">
<path d="M133.905 0.756557H131.638C131.013 0.756557 130.505 1.65984 130.505 2.77409V9.63371C130.505 10.748 131.013 11.6512 131.638 11.6512H133.905C134.531 11.6512 135.038 10.748 135.038 9.63371V2.77409C135.038 1.65984 134.531 0.756557 133.905 0.756557Z" fill="#00D564"/>
</g>
<g clip-path="url(#clip25_253_2890)">
<path d="M139.342 18.7702H137.076C136.45 18.7702 135.943 19.6735 135.943 20.7877V27.6473C135.943 28.7616 136.45 29.6649 137.076 29.6649H139.342C139.968 29.6649 140.476 28.7616 140.476 27.6473V20.7877C140.476 19.6735 139.968 18.7702 139.342 18.7702Z" fill="#FF0000"/>
</g>
<g clip-path="url(#clip26_253_2890)">
<path d="M144.78 0.756557H142.514C141.888 0.756557 141.381 1.65984 141.381 2.77409V9.63371C141.381 10.748 141.888 11.6512 142.514 11.6512H144.78C145.406 11.6512 145.913 10.748 145.913 9.63371V2.77409C145.913 1.65984 145.406 0.756557 144.78 0.756557Z" fill="#00D564"/>
</g>
<g clip-path="url(#clip27_253_2890)">
<path d="M150.218 18.7702H147.952C147.326 18.7702 146.819 19.6735 146.819 20.7877V27.6473C146.819 28.7616 147.326 29.6649 147.952 29.6649H150.218C150.844 29.6649 151.351 28.7616 151.351 27.6473V20.7877C151.351 19.6735 150.844 18.7702 150.218 18.7702Z" fill="#FF0000"/>
</g>
<g clip-path="url(#clip28_253_2890)">
<path d="M155.656 36.7841H153.389C152.763 36.7841 152.256 37.6874 152.256 38.8016V45.6612C152.256 46.7755 152.763 47.6788 153.389 47.6788H155.656C156.281 47.6788 156.789 46.7755 156.789 45.6612V38.8016C156.789 37.6874 156.281 36.7841 155.656 36.7841Z" fill="#FF0000"/>
</g>
<g clip-path="url(#clip29_253_2890)">
<path d="M161.094 18.7702H158.827C158.201 18.7702 157.694 19.6735 157.694 20.7877V27.6473C157.694 28.7616 158.201 29.6649 158.827 29.6649H161.094C161.719 29.6649 162.227 28.7616 162.227 27.6473V20.7877C162.227 19.6735 161.719 18.7702 161.094 18.7702Z" fill="#00D564"/>
</g>
<g clip-path="url(#clip30_253_2890)">
<path d="M166.531 36.7841H164.265C163.639 36.7841 163.131 37.6874 163.131 38.8016V45.6612C163.131 46.7755 163.639 47.6788 164.265 47.6788H166.531C167.157 47.6788 167.664 46.7755 167.664 45.6612V38.8016C167.664 37.6874 167.157 36.7841 166.531 36.7841Z" fill="#FF0000"/>
</g>
<g clip-path="url(#clip31_253_2890)">
<path d="M171.969 18.7702H169.702C169.077 18.7702 168.569 19.6735 168.569 20.7877V27.6473C168.569 28.7616 169.077 29.6649 169.702 29.6649H171.969C172.595 29.6649 173.102 28.7616 173.102 27.6473V20.7877C173.102 19.6735 172.595 18.7702 171.969 18.7702Z" fill="#00D564"/>
</g>
<g clip-path="url(#clip32_253_2890)">
<path d="M177.406 0.756557H175.14C174.514 0.756557 174.007 1.65984 174.007 2.77409V9.63371C174.007 10.748 174.514 11.6512 175.14 11.6512H177.406C178.032 11.6512 178.54 10.748 178.54 9.63371V2.77409C178.54 1.65984 178.032 0.756557 177.406 0.756557Z" fill="#00D564"/>
</g>
<g clip-path="url(#clip33_253_2890)">
<path d="M182.844 18.7702H180.578C179.952 18.7702 179.445 19.6735 179.445 20.7877V27.6473C179.445 28.7616 179.952 29.6649 180.578 29.6649H182.844C183.47 29.6649 183.977 28.7616 183.977 27.6473V20.7877C183.977 19.6735 183.47 18.7702 182.844 18.7702Z" fill="#FF0000"/>
</g>
<g clip-path="url(#clip34_253_2890)">
<path d="M188.282 0.756557H186.016C185.39 0.756557 184.883 1.65984 184.883 2.77409V9.63371C184.883 10.748 185.39 11.6512 186.016 11.6512H188.282C188.908 11.6512 189.415 10.748 189.415 9.63371V2.77409C189.415 1.65984 188.908 0.756557 188.282 0.756557Z" fill="#00D564"/>
</g>
<g clip-path="url(#clip35_253_2890)">
<path d="M193.72 18.7702H191.453C190.827 18.7702 190.32 19.6735 190.32 20.7877V27.6473C190.32 28.7616 190.827 29.6649 191.453 29.6649H193.72C194.345 29.6649 194.853 28.7616 194.853 27.6473V20.7877C194.853 19.6735 194.345 18.7702 193.72 18.7702Z" fill="#FF0000"/>
</g>
<g clip-path="url(#clip36_253_2890)">
<path d="M199.158 36.7841H196.891C196.265 36.7841 195.758 37.6874 195.758 38.8016V45.6612C195.758 46.7755 196.265 47.6788 196.891 47.6788H199.158C199.783 47.6788 200.291 46.7755 200.291 45.6612V38.8016C200.291 37.6874 199.783 36.7841 199.158 36.7841Z" fill="#FF0000"/>
</g>
<g clip-path="url(#clip37_253_2890)">
<path d="M204.595 54.7975H202.329C201.703 54.7975 201.195 55.7007 201.195 56.815V63.6746C201.195 64.7889 201.703 65.6921 202.329 65.6921H204.595C205.221 65.6921 205.728 64.7889 205.728 63.6746V56.815C205.728 55.7007 205.221 54.7975 204.595 54.7975Z" fill="#FF0000"/>
</g>
<g clip-path="url(#clip38_253_2890)">
<path d="M210.033 72.8116H207.766C207.141 72.8116 206.633 73.7149 206.633 74.8291V81.6887C206.633 82.803 207.141 83.7063 207.766 83.7063H210.033C210.659 83.7063 211.166 82.803 211.166 81.6887V74.8291C211.166 73.7149 210.659 72.8116 210.033 72.8116Z" fill="#FF0000"/>
</g>
<g clip-path="url(#clip39_253_2890)">
<path d="M215.47 90.8252H213.204C212.578 90.8252 212.071 91.7285 212.071 92.8428V99.7024C212.071 100.817 212.578 101.72 213.204 101.72H215.47C216.096 101.72 216.604 100.817 216.604 99.7024V92.8428C216.604 91.7285 216.096 90.8252 215.47 90.8252Z" fill="#FF0000"/>
</g>
<g clip-path="url(#clip40_253_2890)">
<path d="M220.908 72.8116H218.642C218.016 72.8116 217.509 73.7149 217.509 74.8291V81.6887C217.509 82.803 218.016 83.7063 218.642 83.7063H220.908C221.534 83.7063 222.041 82.803 222.041 81.6887V74.8291C222.041 73.7149 221.534 72.8116 220.908 72.8116Z" fill="#00D564"/>
</g>
<g clip-path="url(#clip41_253_2890)">
<path d="M226.346 54.7975H224.08C223.454 54.7975 222.946 55.7007 222.946 56.815V63.6746C222.946 64.7889 223.454 65.6921 224.08 65.6921H226.346C226.972 65.6921 227.479 64.7889 227.479 63.6746V56.815C227.479 55.7007 226.972 54.7975 226.346 54.7975Z" fill="#00D564"/>
</g>
<g clip-path="url(#clip42_253_2890)">
<path d="M231.784 72.8116H229.517C228.891 72.8116 228.384 73.7149 228.384 74.8291V81.6887C228.384 82.803 228.891 83.7063 229.517 83.7063H231.784C232.409 83.7063 232.917 82.803 232.917 81.6887V74.8291C232.917 73.7149 232.409 72.8116 231.784 72.8116Z" fill="#FF0000"/>
</g>
<g clip-path="url(#clip43_253_2890)">
<path d="M237.222 90.8252H234.955C234.329 90.8252 233.822 91.7285 233.822 92.8428V99.7024C233.822 100.817 234.329 101.72 234.955 101.72H237.222C237.847 101.72 238.355 100.817 238.355 99.7024V92.8428C238.355 91.7285 237.847 90.8252 237.222 90.8252Z" fill="#FF0000"/>
</g>
<g clip-path="url(#clip44_253_2890)">
<path d="M242.659 72.8116H240.393C239.767 72.8116 239.259 73.7149 239.259 74.8291V81.6887C239.259 82.803 239.767 83.7063 240.393 83.7063H242.659C243.285 83.7063 243.792 82.803 243.792 81.6887V74.8291C243.792 73.7149 243.285 72.8116 242.659 72.8116Z" fill="#00D564"/>
</g>
<g clip-path="url(#clip45_253_2890)">
<path d="M248.097 90.8252H245.83C245.205 90.8252 244.697 91.7285 244.697 92.8428V99.7024C244.697 100.817 245.205 101.72 245.83 101.72H248.097C248.723 101.72 249.23 100.817 249.23 99.7024V92.8428C249.23 91.7285 248.723 90.8252 248.097 90.8252Z" fill="#FF0000"/>
</g>
<g clip-path="url(#clip46_253_2890)">
<path d="M253.534 72.8116H251.268C250.642 72.8116 250.135 73.7149 250.135 74.8291V81.6887C250.135 82.803 250.642 83.7063 251.268 83.7063H253.534C254.16 83.7063 254.668 82.803 254.668 81.6887V74.8291C254.668 73.7149 254.16 72.8116 253.534 72.8116Z" fill="#00D564"/>
</g>
<g clip-path="url(#clip47_253_2890)">
<path d="M258.972 90.8252H256.706C256.08 90.8252 255.573 91.7285 255.573 92.8428V99.7024C255.573 100.817 256.08 101.72 256.706 101.72H258.972C259.598 101.72 260.105 100.817 260.105 99.7024V92.8428C260.105 91.7285 259.598 90.8252 258.972 90.8252Z" fill="#FF0000"/>
</g>
<g clip-path="url(#clip48_253_2890)">
<path d="M264.41 72.8116H262.144C261.518 72.8116 261.01 73.7149 261.01 74.8291V81.6887C261.01 82.803 261.518 83.7063 262.144 83.7063H264.41C265.036 83.7063 265.543 82.803 265.543 81.6887V74.8291C265.543 73.7149 265.036 72.8116 264.41 72.8116Z" fill="#00D564"/>
</g>
<g clip-path="url(#clip49_253_2890)">
<path d="M269.848 90.8252H267.581C266.955 90.8252 266.448 91.7285 266.448 92.8428V99.7024C266.448 100.817 266.955 101.72 267.581 101.72H269.848C270.473 101.72 270.981 100.817 270.981 99.7024V92.8428C270.981 91.7285 270.473 90.8252 269.848 90.8252Z" fill="#FF0000"/>
</g>
<g clip-path="url(#clip50_253_2890)">
<path d="M275.285 72.8116H273.019C272.393 72.8116 271.886 73.7149 271.886 74.8291V81.6887C271.886 82.803 272.393 83.7063 273.019 83.7063H275.285C275.911 83.7063 276.419 82.803 276.419 81.6887V74.8291C276.419 73.7149 275.911 72.8116 275.285 72.8116Z" fill="#00D564"/>
</g>
<g clip-path="url(#clip51_253_2890)">
<path d="M280.723 54.7975H278.456C277.831 54.7975 277.323 55.7007 277.323 56.815V63.6746C277.323 64.7889 277.831 65.6921 278.456 65.6921H280.723C281.349 65.6921 281.856 64.7889 281.856 63.6746V56.815C281.856 55.7007 281.349 54.7975 280.723 54.7975Z" fill="#00D564"/>
</g>
<g clip-path="url(#clip52_253_2890)">
<path d="M286.161 72.8116H283.894C283.269 72.8116 282.761 73.7149 282.761 74.8291V81.6887C282.761 82.803 283.269 83.7063 283.894 83.7063H286.161C286.787 83.7063 287.294 82.803 287.294 81.6887V74.8291C287.294 73.7149 286.787 72.8116 286.161 72.8116Z" fill="#FF0000"/>
</g>
<g clip-path="url(#clip53_253_2890)">
<path d="M291.598 90.8252H289.332C288.706 90.8252 288.199 91.7285 288.199 92.8428V99.7024C288.199 100.817 288.706 101.72 289.332 101.72H291.598C292.224 101.72 292.732 100.817 292.732 99.7024V92.8428C292.732 91.7285 292.224 90.8252 291.598 90.8252Z" fill="#FF0000"/>
</g>
<g clip-path="url(#clip54_253_2890)">
<path d="M297.036 72.8116H294.77C294.144 72.8116 293.637 73.7149 293.637 74.8291V81.6887C293.637 82.803 294.144 83.7063 294.77 83.7063H297.036C297.662 83.7063 298.169 82.803 298.169 81.6887V74.8291C298.169 73.7149 297.662 72.8116 297.036 72.8116Z" fill="#00D564"/>
</g>
<g clip-path="url(#clip55_253_2890)">
<path d="M302.474 54.7975H300.208C299.582 54.7975 299.074 55.7007 299.074 56.815V63.6746C299.074 64.7889 299.582 65.6921 300.208 65.6921H302.474C303.1 65.6921 303.607 64.7889 303.607 63.6746V56.815C303.607 55.7007 303.1 54.7975 302.474 54.7975Z" fill="#00D564"/>
</g>
<g clip-path="url(#clip56_253_2890)">
<path d="M307.912 72.8116H305.645C305.019 72.8116 304.512 73.7149 304.512 74.8291V81.6887C304.512 82.803 305.019 83.7063 305.645 83.7063H307.912C308.537 83.7063 309.045 82.803 309.045 81.6887V74.8291C309.045 73.7149 308.537 72.8116 307.912 72.8116Z" fill="#FF0000"/>
</g>
<g clip-path="url(#clip57_253_2890)">
<path d="M313.349 90.8252H311.083C310.457 90.8252 309.95 91.7285 309.95 92.8428V99.7024C309.95 100.817 310.457 101.72 311.083 101.72H313.349C313.975 101.72 314.483 100.817 314.483 99.7024V92.8428C314.483 91.7285 313.975 90.8252 313.349 90.8252Z" fill="#FF0000"/>
</g>
<g clip-path="url(#clip58_253_2890)">
<path d="M318.787 72.8116H316.52C315.895 72.8116 315.387 73.7149 315.387 74.8291V81.6887C315.387 82.803 315.895 83.7063 316.52 83.7063H318.787C319.413 83.7063 319.92 82.803 319.92 81.6887V74.8291C319.92 73.7149 319.413 72.8116 318.787 72.8116Z" fill="#00D564"/>
</g>
<g clip-path="url(#clip59_253_2890)">
<path d="M324.225 54.7975H321.958C321.333 54.7975 320.825 55.7007 320.825 56.815V63.6746C320.825 64.7889 321.333 65.6921 321.958 65.6921H324.225C324.851 65.6921 325.358 64.7889 325.358 63.6746V56.815C325.358 55.7007 324.851 54.7975 324.225 54.7975Z" fill="#00D564"/>
</g>
<g clip-path="url(#clip60_253_2890)">
<path d="M329.662 36.7841H327.396C326.77 36.7841 326.263 37.6874 326.263 38.8016V45.6612C326.263 46.7755 326.77 47.6788 327.396 47.6788H329.662C330.288 47.6788 330.795 46.7755 330.795 45.6612V38.8016C330.795 37.6874 330.288 36.7841 329.662 36.7841Z" fill="#00D564"/>
</g>
<g clip-path="url(#clip61_253_2890)">
<path d="M335.1 54.7975H332.834C332.208 54.7975 331.701 55.7007 331.701 56.815V63.6746C331.701 64.7889 332.208 65.6921 332.834 65.6921H335.1C335.726 65.6921 336.233 64.7889 336.233 63.6746V56.815C336.233 55.7007 335.726 54.7975 335.1 54.7975Z" fill="#FF0000"/>
</g>
<g clip-path="url(#clip62_253_2890)">
<path d="M340.538 72.8116H338.272C337.646 72.8116 337.138 73.7149 337.138 74.8291V81.6887C337.138 82.803 337.646 83.7063 338.272 83.7063H340.538C341.164 83.7063 341.671 82.803 341.671 81.6887V74.8291C341.671 73.7149 341.164 72.8116 340.538 72.8116Z" fill="#FF0000"/>
</g>
<g clip-path="url(#clip63_253_2890)">
<path d="M345.976 54.7975H343.709C343.083 54.7975 342.576 55.7007 342.576 56.815V63.6746C342.576 64.7889 343.083 65.6921 343.709 65.6921H345.976C346.601 65.6921 347.109 64.7889 347.109 63.6746V56.815C347.109 55.7007 346.601 54.7975 345.976 54.7975Z" fill="#00D564"/>
</g>
<g clip-path="url(#clip64_253_2890)">
<path d="M351.413 72.8116H349.147C348.521 72.8116 348.014 73.7149 348.014 74.8291V81.6887C348.014 82.803 348.521 83.7063 349.147 83.7063H351.413C352.039 83.7063 352.547 82.803 352.547 81.6887V74.8291C352.547 73.7149 352.039 72.8116 351.413 72.8116Z" fill="#FF0000"/>
</g>
<g clip-path="url(#clip65_253_2890)">
<path d="M356.851 90.8252H354.584C353.959 90.8252 353.451 91.7285 353.451 92.8428V99.7024C353.451 100.817 353.959 101.72 354.584 101.72H356.851C357.477 101.72 357.984 100.817 357.984 99.7024V92.8428C357.984 91.7285 357.477 90.8252 356.851 90.8252Z" fill="#FF0000"/>
</g>
<g clip-path="url(#clip66_253_2890)">
<path d="M362.289 108.839H360.022C359.397 108.839 358.889 109.742 358.889 110.856V117.716C358.889 118.83 359.397 119.734 360.022 119.734H362.289C362.915 119.734 363.422 118.83 363.422 117.716V110.856C363.422 109.742 362.915 108.839 362.289 108.839Z" fill="#FF0000"/>
</g>
<g clip-path="url(#clip67_253_2890)">
<path d="M367.726 126.853H365.46C364.834 126.853 364.327 127.756 364.327 128.87V135.73C364.327 136.844 364.834 137.747 365.46 137.747H367.726C368.352 137.747 368.859 136.844 368.859 135.73V128.87C368.859 127.756 368.352 126.853 367.726 126.853Z" fill="#FF0000"/>
</g>
<g clip-path="url(#clip68_253_2890)">
<path d="M373.164 108.839H370.898C370.272 108.839 369.765 109.742 369.765 110.856V117.716C369.765 118.83 370.272 119.734 370.898 119.734H373.164C373.79 119.734 374.297 118.83 374.297 117.716V110.856C374.297 109.742 373.79 108.839 373.164 108.839Z" fill="#00D564"/>
</g>
<g clip-path="url(#clip69_253_2890)">
<path d="M378.602 126.853H376.336C375.71 126.853 375.202 127.756 375.202 128.87V135.73C375.202 136.844 375.71 137.747 376.336 137.747H378.602C379.228 137.747 379.735 136.844 379.735 135.73V128.87C379.735 127.756 379.228 126.853 378.602 126.853Z" fill="#FF0000"/>
</g>
<g clip-path="url(#clip70_253_2890)">
<path d="M384.04 144.866H381.773C381.147 144.866 380.64 145.769 380.64 146.884V153.743C380.64 154.858 381.147 155.761 381.773 155.761H384.04C384.665 155.761 385.173 154.858 385.173 153.743V146.884C385.173 145.769 384.665 144.866 384.04 144.866Z" fill="#FF0000"/>
</g>
<g clip-path="url(#clip71_253_2890)">
<path d="M389.477 162.88H387.211C386.585 162.88 386.078 163.783 386.078 164.897V171.757C386.078 172.871 386.585 173.774 387.211 173.774H389.477C390.103 173.774 390.611 172.871 390.611 171.757V164.897C390.611 163.783 390.103 162.88 389.477 162.88Z" fill="#FF0000"/>
</g>
<g clip-path="url(#clip72_253_2890)">
<path d="M394.915 180.893H392.648C392.023 180.893 391.515 181.796 391.515 182.911V189.77C391.515 190.885 392.023 191.788 392.648 191.788H394.915C395.541 191.788 396.048 190.885 396.048 189.77V182.911C396.048 181.796 395.541 180.893 394.915 180.893Z" fill="#FF0000"/>
</g>
<g clip-path="url(#clip73_253_2890)">
<path d="M400.353 162.88H398.086C397.461 162.88 396.953 163.783 396.953 164.897V171.757C396.953 172.871 397.461 173.774 398.086 173.774H400.353C400.979 173.774 401.486 172.871 401.486 171.757V164.897C401.486 163.783 400.979 162.88 400.353 162.88Z" fill="#00D564"/>
</g>
<g clip-path="url(#clip74_253_2890)">
<path d="M405.79 180.893H403.524C402.898 180.893 402.391 181.796 402.391 182.911V189.77C402.391 190.885 402.898 191.788 403.524 191.788H405.79C406.416 191.788 406.923 190.885 406.923 189.77V182.911C406.923 181.796 406.416 180.893 405.79 180.893Z" fill="#FF0000"/>
</g>
<g clip-path="url(#clip75_253_2890)">
<path d="M411.228 162.88H408.962C408.336 162.88 407.829 163.783 407.829 164.897V171.757C407.829 172.871 408.336 173.774 408.962 173.774H411.228C411.854 173.774 412.361 172.871 412.361 171.757V164.897C412.361 163.783 411.854 162.88 411.228 162.88Z" fill="#00D564"/>
</g>
<g clip-path="url(#clip76_253_2890)">
<path d="M416.666 144.866H414.4C413.774 144.866 413.266 145.769 413.266 146.884V153.743C413.266 154.858 413.774 155.761 414.4 155.761H416.666C417.292 155.761 417.799 154.858 417.799 153.743V146.884C417.799 145.769 417.292 144.866 416.666 144.866Z" fill="#00D564"/>
</g>
<g clip-path="url(#clip77_253_2890)">
<path d="M422.104 162.88H419.837C419.211 162.88 418.704 163.783 418.704 164.897V171.757C418.704 172.871 419.211 173.774 419.837 173.774H422.104C422.729 173.774 423.237 172.871 423.237 171.757V164.897C423.237 163.783 422.729 162.88 422.104 162.88Z" fill="#FF0000"/>
</g>
<g clip-path="url(#clip78_253_2890)">
<path d="M427.541 144.866H425.275C424.649 144.866 424.142 145.769 424.142 146.884V153.743C424.142 154.858 424.649 155.761 425.275 155.761H427.541C428.167 155.761 428.675 154.858 428.675 153.743V146.884C428.675 145.769 428.167 144.866 427.541 144.866Z" fill="#00D564"/>
</g>
<g clip-path="url(#clip79_253_2890)">
<path d="M432.979 162.88H430.712C430.087 162.88 429.579 163.783 429.579 164.897V171.757C429.579 172.871 430.087 173.774 430.712 173.774H432.979C433.605 173.774 434.112 172.871 434.112 171.757V164.897C434.112 163.783 433.605 162.88 432.979 162.88Z" fill="#FF0000"/>
</g>
<g clip-path="url(#clip80_253_2890)">
<path d="M438.417 144.866H436.15C435.525 144.866 435.017 145.769 435.017 146.884V153.743C435.017 154.858 435.525 155.761 436.15 155.761H438.417C439.043 155.761 439.55 154.858 439.55 153.743V146.884C439.55 145.769 439.043 144.866 438.417 144.866Z" fill="#00D564"/>
</g>
<g clip-path="url(#clip81_253_2890)">
<path d="M443.854 162.88H441.588C440.962 162.88 440.455 163.783 440.455 164.897V171.757C440.455 172.871 440.962 173.774 441.588 173.774H443.854C444.48 173.774 444.987 172.871 444.987 171.757V164.897C444.987 163.783 444.48 162.88 443.854 162.88Z" fill="#FF0000"/>
</g>
<g clip-path="url(#clip82_253_2890)">
<path d="M449.292 144.866H447.026C446.4 144.866 445.893 145.769 445.893 146.884V153.743C445.893 154.858 446.4 155.761 447.026 155.761H449.292C449.918 155.761 450.425 154.858 450.425 153.743V146.884C450.425 145.769 449.918 144.866 449.292 144.866Z" fill="#00D564"/>
</g>
<g clip-path="url(#clip83_253_2890)">
<path d="M454.73 162.88H452.464C451.838 162.88 451.33 163.783 451.33 164.897V171.757C451.33 172.871 451.838 173.774 452.464 173.774H454.73C455.356 173.774 455.863 172.871 455.863 171.757V164.897C455.863 163.783 455.356 162.88 454.73 162.88Z" fill="#FF0000"/>
</g>
<g clip-path="url(#clip84_253_2890)">
<path d="M460.168 180.893H457.901C457.275 180.893 456.768 181.796 456.768 182.911V189.77C456.768 190.885 457.275 191.788 457.901 191.788H460.168C460.793 191.788 461.301 190.885 461.301 189.77V182.911C461.301 181.796 460.793 180.893 460.168 180.893Z" fill="#FF0000"/>
</g>
<g clip-path="url(#clip85_253_2890)">
<path d="M465.605 162.88H463.339C462.713 162.88 462.206 163.783 462.206 164.897V171.757C462.206 172.871 462.713 173.774 463.339 173.774H465.605C466.231 173.774 466.739 172.871 466.739 171.757V164.897C466.739 163.783 466.231 162.88 465.605 162.88Z" fill="#00D564"/>
</g>
<g clip-path="url(#clip86_253_2890)">
<path d="M471.043 144.866H468.776C468.151 144.866 467.643 145.769 467.643 146.884V153.743C467.643 154.858 468.151 155.761 468.776 155.761H471.043C471.669 155.761 472.176 154.858 472.176 153.743V146.884C472.176 145.769 471.669 144.866 471.043 144.866Z" fill="#00D564"/>
</g>
<g clip-path="url(#clip87_253_2890)">
<path d="M476.481 162.88H474.214C473.589 162.88 473.081 163.783 473.081 164.897V171.757C473.081 172.871 473.589 173.774 474.214 173.774H476.481C477.107 173.774 477.614 172.871 477.614 171.757V164.897C477.614 163.783 477.107 162.88 476.481 162.88Z" fill="#FF0000"/>
</g>
<g clip-path="url(#clip88_253_2890)">
<path d="M481.918 144.866H479.652C479.026 144.866 478.519 145.769 478.519 146.884V153.743C478.519 154.858 479.026 155.761 479.652 155.761H481.918C482.544 155.761 483.051 154.858 483.051 153.743V146.884C483.051 145.769 482.544 144.866 481.918 144.866Z" fill="#00D564"/>
</g>
<g clip-path="url(#clip89_253_2890)">
<path d="M487.356 126.853H485.09C484.464 126.853 483.956 127.756 483.956 128.87V135.73C483.956 136.844 484.464 137.747 485.09 137.747H487.356C487.982 137.747 488.489 136.844 488.489 135.73V128.87C488.489 127.756 487.982 126.853 487.356 126.853Z" fill="#00D564"/>
</g>
<g clip-path="url(#clip90_253_2890)">
<path d="M492.794 108.839H490.528C489.902 108.839 489.394 109.742 489.394 110.856V117.716C489.394 118.83 489.902 119.734 490.528 119.734H492.794C493.42 119.734 493.927 118.83 493.927 117.716V110.856C493.927 109.742 493.42 108.839 492.794 108.839Z" fill="#00D564"/>
</g>
<g clip-path="url(#clip91_253_2890)">
<path d="M498.232 90.8252H495.965C495.339 90.8252 494.832 91.7285 494.832 92.8428V99.7024C494.832 100.817 495.339 101.72 495.965 101.72H498.232C498.857 101.72 499.365 100.817 499.365 99.7024V92.8428C499.365 91.7285 498.857 90.8252 498.232 90.8252Z" fill="#00D564"/>
</g>
<g clip-path="url(#clip92_253_2890)">
<path d="M503.669 72.8116H501.403C500.777 72.8116 500.27 73.7149 500.27 74.8291V81.6887C500.27 82.803 500.777 83.7063 501.403 83.7063H503.669C504.295 83.7063 504.803 82.803 504.803 81.6887V74.8291C504.803 73.7149 504.295 72.8116 503.669 72.8116Z" fill="#00D564"/>
</g>
<g clip-path="url(#clip93_253_2890)">
<path d="M509.107 90.8252H506.84C506.215 90.8252 505.707 91.7285 505.707 92.8428V99.7024C505.707 100.817 506.215 101.72 506.84 101.72H509.107C509.733 101.72 510.24 100.817 510.24 99.7024V92.8428C510.24 91.7285 509.733 90.8252 509.107 90.8252Z" fill="#FF0000"/>
</g>
<g clip-path="url(#clip94_253_2890)">
<path d="M514.545 72.8116H512.278C511.652 72.8116 511.145 73.7149 511.145 74.8291V81.6887C511.145 82.803 511.652 83.7063 512.278 83.7063H514.545C515.171 83.7063 515.678 82.803 515.678 81.6887V74.8291C515.678 73.7149 515.171 72.8116 514.545 72.8116Z" fill="#00D564"/>
</g>
<g clip-path="url(#clip95_253_2890)">
<path d="M519.982 90.8252H517.716C517.09 90.8252 516.583 91.7285 516.583 92.8428V99.7024C516.583 100.817 517.09 101.72 517.716 101.72H519.982C520.608 101.72 521.115 100.817 521.115 99.7024V92.8428C521.115 91.7285 520.608 90.8252 519.982 90.8252Z" fill="#FF0000"/>
</g>
<g clip-path="url(#clip96_253_2890)">
<path d="M525.42 72.8116H523.154C522.528 72.8116 522.02 73.7149 522.02 74.8291V81.6887C522.02 82.803 522.528 83.7063 523.154 83.7063H525.42C526.046 83.7063 526.553 82.803 526.553 81.6887V74.8291C526.553 73.7149 526.046 72.8116 525.42 72.8116Z" fill="#00D564"/>
</g>
<g clip-path="url(#clip97_253_2890)">
<path d="M530.858 90.8252H528.592C527.966 90.8252 527.458 91.7285 527.458 92.8428V99.7024C527.458 100.817 527.966 101.72 528.592 101.72H530.858C531.484 101.72 531.991 100.817 531.991 99.7024V92.8428C531.991 91.7285 531.484 90.8252 530.858 90.8252Z" fill="#FF0000"/>
</g>
<g clip-path="url(#clip98_253_2890)">
<path d="M536.295 72.8116H534.029C533.403 72.8116 532.896 73.7149 532.896 74.8291V81.6887C532.896 82.803 533.403 83.7063 534.029 83.7063H536.295C536.921 83.7063 537.429 82.803 537.429 81.6887V74.8291C537.429 73.7149 536.921 72.8116 536.295 72.8116Z" fill="#00D564"/>
</g>
<g clip-path="url(#clip99_253_2890)">
<path d="M541.733 54.7975H539.467C538.841 54.7975 538.334 55.7007 538.334 56.815V63.6746C538.334 64.7889 538.841 65.6921 539.467 65.6921H541.733C542.359 65.6921 542.867 64.7889 542.867 63.6746V56.815C542.867 55.7007 542.359 54.7975 541.733 54.7975Z" fill="#00D564"/>
</g>
<defs>
<clipPath id="clip0_253_2890">
<rect width="5.65904" height="13.6014" fill="white" transform="translate(0 180.137) scale(1.00125)"/>
</clipPath>
<clipPath id="clip1_253_2890">
<rect width="5.65904" height="13.6014" fill="white" transform="translate(5.43743 162.123) scale(1.00125)"/>
</clipPath>
<clipPath id="clip2_253_2890">
<rect width="5.65904" height="13.6014" fill="white" transform="translate(10.8754 144.11) scale(1.00125)"/>
</clipPath>
<clipPath id="clip3_253_2890">
<rect width="5.65904" height="13.6014" fill="white" transform="translate(16.3133 126.096) scale(1.00125)"/>
</clipPath>
<clipPath id="clip4_253_2890">
<rect width="5.65904" height="13.6014" fill="white" transform="translate(21.7507 108.082) scale(1.00125)"/>
</clipPath>
<clipPath id="clip5_253_2890">
<rect width="5.65904" height="13.6014" fill="white" transform="translate(27.1886 126.096) scale(1.00125)"/>
</clipPath>
<clipPath id="clip6_253_2890">
<rect width="5.65904" height="13.6014" fill="white" transform="translate(32.6261 108.082) scale(1.00125)"/>
</clipPath>
<clipPath id="clip7_253_2890">
<rect width="5.65904" height="13.6014" fill="white" transform="translate(38.064 90.0687) scale(1.00125)"/>
</clipPath>
<clipPath id="clip8_253_2890">
<rect width="5.65904" height="13.6014" fill="white" transform="translate(43.5019 72.055) scale(1.00125)"/>
</clipPath>
<clipPath id="clip9_253_2890">
<rect width="5.65904" height="13.6014" fill="white" transform="translate(48.9393 54.0409) scale(1.00125)"/>
</clipPath>
<clipPath id="clip10_253_2890">
<rect width="5.65904" height="13.6014" fill="white" transform="translate(54.3773 72.055) scale(1.00125)"/>
</clipPath>
<clipPath id="clip11_253_2890">
<rect width="5.65904" height="13.6014" fill="white" transform="translate(59.8147 90.0687) scale(1.00125)"/>
</clipPath>
<clipPath id="clip12_253_2890">
<rect width="5.65904" height="13.6014" fill="white" transform="translate(65.2526 108.082) scale(1.00125)"/>
</clipPath>
<clipPath id="clip13_253_2890">
<rect width="5.65904" height="13.6014" fill="white" transform="translate(70.6901 126.096) scale(1.00125)"/>
</clipPath>
<clipPath id="clip14_253_2890">
<rect width="5.65904" height="13.6014" fill="white" transform="translate(76.128 144.11) scale(1.00125)"/>
</clipPath>
<clipPath id="clip15_253_2890">
<rect width="5.65904" height="13.6014" fill="white" transform="translate(81.5659 126.096) scale(1.00125)"/>
</clipPath>
<clipPath id="clip16_253_2890">
<rect width="5.65904" height="13.6014" fill="white" transform="translate(87.0033 108.082) scale(1.00125)"/>
</clipPath>
<clipPath id="clip17_253_2890">
<rect width="5.65904" height="13.6014" fill="white" transform="translate(92.4413 90.0687) scale(1.00125)"/>
</clipPath>
<clipPath id="clip18_253_2890">
<rect width="5.65904" height="13.6014" fill="white" transform="translate(97.8787 108.082) scale(1.00125)"/>
</clipPath>
<clipPath id="clip19_253_2890">
<rect width="5.65904" height="13.6014" fill="white" transform="translate(103.317 90.0687) scale(1.00125)"/>
</clipPath>
<clipPath id="clip20_253_2890">
<rect width="5.65904" height="13.6014" fill="white" transform="translate(108.754 72.055) scale(1.00125)"/>
</clipPath>
<clipPath id="clip21_253_2890">
<rect width="5.65904" height="13.6014" fill="white" transform="translate(114.192 54.0409) scale(1.00125)"/>
</clipPath>
<clipPath id="clip22_253_2890">
<rect width="5.65904" height="13.6014" fill="white" transform="translate(119.63 36.0275) scale(1.00125)"/>
</clipPath>
<clipPath id="clip23_253_2890">
<rect width="5.65904" height="13.6014" fill="white" transform="translate(125.067 18.0136) scale(1.00125)"/>
</clipPath>
<clipPath id="clip24_253_2890">
<rect width="5.65904" height="13.6014" fill="white" transform="translate(130.505) scale(1.00125)"/>
</clipPath>
<clipPath id="clip25_253_2890">
<rect width="5.65904" height="13.6014" fill="white" transform="translate(135.943 18.0136) scale(1.00125)"/>
</clipPath>
<clipPath id="clip26_253_2890">
<rect width="5.65904" height="13.6014" fill="white" transform="translate(141.381) scale(1.00125)"/>
</clipPath>
<clipPath id="clip27_253_2890">
<rect width="5.65904" height="13.6014" fill="white" transform="translate(146.819 18.0136) scale(1.00125)"/>
</clipPath>
<clipPath id="clip28_253_2890">
<rect width="5.65904" height="13.6014" fill="white" transform="translate(152.256 36.0275) scale(1.00125)"/>
</clipPath>
<clipPath id="clip29_253_2890">
<rect width="5.65904" height="13.6014" fill="white" transform="translate(157.694 18.0136) scale(1.00125)"/>
</clipPath>
<clipPath id="clip30_253_2890">
<rect width="5.65904" height="13.6014" fill="white" transform="translate(163.131 36.0275) scale(1.00125)"/>
</clipPath>
<clipPath id="clip31_253_2890">
<rect width="5.65904" height="13.6014" fill="white" transform="translate(168.569 18.0136) scale(1.00125)"/>
</clipPath>
<clipPath id="clip32_253_2890">
<rect width="5.65904" height="13.6014" fill="white" transform="translate(174.007) scale(1.00125)"/>
</clipPath>
<clipPath id="clip33_253_2890">
<rect width="5.65904" height="13.6014" fill="white" transform="translate(179.445 18.0136) scale(1.00125)"/>
</clipPath>
<clipPath id="clip34_253_2890">
<rect width="5.65904" height="13.6014" fill="white" transform="translate(184.883) scale(1.00125)"/>
</clipPath>
<clipPath id="clip35_253_2890">
<rect width="5.65904" height="13.6014" fill="white" transform="translate(190.32 18.0136) scale(1.00125)"/>
</clipPath>
<clipPath id="clip36_253_2890">
<rect width="5.65904" height="13.6014" fill="white" transform="translate(195.758 36.0275) scale(1.00125)"/>
</clipPath>
<clipPath id="clip37_253_2890">
<rect width="5.65904" height="13.6014" fill="white" transform="translate(201.195 54.0409) scale(1.00125)"/>
</clipPath>
<clipPath id="clip38_253_2890">
<rect width="5.65904" height="13.6014" fill="white" transform="translate(206.633 72.055) scale(1.00125)"/>
</clipPath>
<clipPath id="clip39_253_2890">
<rect width="5.65904" height="13.6014" fill="white" transform="translate(212.071 90.0687) scale(1.00125)"/>
</clipPath>
<clipPath id="clip40_253_2890">
<rect width="5.65904" height="13.6014" fill="white" transform="translate(217.509 72.055) scale(1.00125)"/>
</clipPath>
<clipPath id="clip41_253_2890">
<rect width="5.65904" height="13.6014" fill="white" transform="translate(222.946 54.0409) scale(1.00125)"/>
</clipPath>
<clipPath id="clip42_253_2890">
<rect width="5.65904" height="13.6014" fill="white" transform="translate(228.384 72.055) scale(1.00125)"/>
</clipPath>
<clipPath id="clip43_253_2890">
<rect width="5.65904" height="13.6014" fill="white" transform="translate(233.822 90.0687) scale(1.00125)"/>
</clipPath>
<clipPath id="clip44_253_2890">
<rect width="5.65904" height="13.6014" fill="white" transform="translate(239.259 72.055) scale(1.00125)"/>
</clipPath>
<clipPath id="clip45_253_2890">
<rect width="5.65904" height="13.6014" fill="white" transform="translate(244.697 90.0687) scale(1.00125)"/>
</clipPath>
<clipPath id="clip46_253_2890">
<rect width="5.65904" height="13.6014" fill="white" transform="translate(250.135 72.055) scale(1.00125)"/>
</clipPath>
<clipPath id="clip47_253_2890">
<rect width="5.65904" height="13.6014" fill="white" transform="translate(255.573 90.0687) scale(1.00125)"/>
</clipPath>
<clipPath id="clip48_253_2890">
<rect width="5.65904" height="13.6014" fill="white" transform="translate(261.01 72.055) scale(1.00125)"/>
</clipPath>
<clipPath id="clip49_253_2890">
<rect width="5.65904" height="13.6014" fill="white" transform="translate(266.448 90.0687) scale(1.00125)"/>
</clipPath>
<clipPath id="clip50_253_2890">
<rect width="5.65904" height="13.6014" fill="white" transform="translate(271.886 72.055) scale(1.00125)"/>
</clipPath>
<clipPath id="clip51_253_2890">
<rect width="5.65904" height="13.6014" fill="white" transform="translate(277.323 54.0409) scale(1.00125)"/>
</clipPath>
<clipPath id="clip52_253_2890">
<rect width="5.65904" height="13.6014" fill="white" transform="translate(282.761 72.055) scale(1.00125)"/>
</clipPath>
<clipPath id="clip53_253_2890">
<rect width="5.65904" height="13.6014" fill="white" transform="translate(288.199 90.0687) scale(1.00125)"/>
</clipPath>
<clipPath id="clip54_253_2890">
<rect width="5.65904" height="13.6014" fill="white" transform="translate(293.637 72.055) scale(1.00125)"/>
</clipPath>
<clipPath id="clip55_253_2890">
<rect width="5.65904" height="13.6014" fill="white" transform="translate(299.074 54.0409) scale(1.00125)"/>
</clipPath>
<clipPath id="clip56_253_2890">
<rect width="5.65904" height="13.6014" fill="white" transform="translate(304.512 72.055) scale(1.00125)"/>
</clipPath>
<clipPath id="clip57_253_2890">
<rect width="5.65904" height="13.6014" fill="white" transform="translate(309.95 90.0687) scale(1.00125)"/>
</clipPath>
<clipPath id="clip58_253_2890">
<rect width="5.65904" height="13.6014" fill="white" transform="translate(315.387 72.055) scale(1.00125)"/>
</clipPath>
<clipPath id="clip59_253_2890">
<rect width="5.65904" height="13.6014" fill="white" transform="translate(320.825 54.0409) scale(1.00125)"/>
</clipPath>
<clipPath id="clip60_253_2890">
<rect width="5.65904" height="13.6014" fill="white" transform="translate(326.263 36.0275) scale(1.00125)"/>
</clipPath>
<clipPath id="clip61_253_2890">
<rect width="5.65904" height="13.6014" fill="white" transform="translate(331.701 54.0409) scale(1.00125)"/>
</clipPath>
<clipPath id="clip62_253_2890">
<rect width="5.65904" height="13.6014" fill="white" transform="translate(337.138 72.055) scale(1.00125)"/>
</clipPath>
<clipPath id="clip63_253_2890">
<rect width="5.65904" height="13.6014" fill="white" transform="translate(342.576 54.0409) scale(1.00125)"/>
</clipPath>
<clipPath id="clip64_253_2890">
<rect width="5.65904" height="13.6014" fill="white" transform="translate(348.014 72.055) scale(1.00125)"/>
</clipPath>
<clipPath id="clip65_253_2890">
<rect width="5.65904" height="13.6014" fill="white" transform="translate(353.451 90.0687) scale(1.00125)"/>
</clipPath>
<clipPath id="clip66_253_2890">
<rect width="5.65904" height="13.6014" fill="white" transform="translate(358.889 108.082) scale(1.00125)"/>
</clipPath>
<clipPath id="clip67_253_2890">
<rect width="5.65904" height="13.6014" fill="white" transform="translate(364.327 126.096) scale(1.00125)"/>
</clipPath>
<clipPath id="clip68_253_2890">
<rect width="5.65904" height="13.6014" fill="white" transform="translate(369.765 108.082) scale(1.00125)"/>
</clipPath>
<clipPath id="clip69_253_2890">
<rect width="5.65904" height="13.6014" fill="white" transform="translate(375.202 126.096) scale(1.00125)"/>
</clipPath>
<clipPath id="clip70_253_2890">
<rect width="5.65904" height="13.6014" fill="white" transform="translate(380.64 144.11) scale(1.00125)"/>
</clipPath>
<clipPath id="clip71_253_2890">
<rect width="5.65904" height="13.6014" fill="white" transform="translate(386.078 162.123) scale(1.00125)"/>
</clipPath>
<clipPath id="clip72_253_2890">
<rect width="5.65904" height="13.6014" fill="white" transform="translate(391.515 180.137) scale(1.00125)"/>
</clipPath>
<clipPath id="clip73_253_2890">
<rect width="5.65904" height="13.6014" fill="white" transform="translate(396.953 162.123) scale(1.00125)"/>
</clipPath>
<clipPath id="clip74_253_2890">
<rect width="5.65904" height="13.6014" fill="white" transform="translate(402.391 180.137) scale(1.00125)"/>
</clipPath>
<clipPath id="clip75_253_2890">
<rect width="5.65904" height="13.6014" fill="white" transform="translate(407.829 162.123) scale(1.00125)"/>
</clipPath>
<clipPath id="clip76_253_2890">
<rect width="5.65904" height="13.6014" fill="white" transform="translate(413.266 144.11) scale(1.00125)"/>
</clipPath>
<clipPath id="clip77_253_2890">
<rect width="5.65904" height="13.6014" fill="white" transform="translate(418.704 162.123) scale(1.00125)"/>
</clipPath>
<clipPath id="clip78_253_2890">
<rect width="5.65904" height="13.6014" fill="white" transform="translate(424.142 144.11) scale(1.00125)"/>
</clipPath>
<clipPath id="clip79_253_2890">
<rect width="5.65904" height="13.6014" fill="white" transform="translate(429.579 162.123) scale(1.00125)"/>
</clipPath>
<clipPath id="clip80_253_2890">
<rect width="5.65904" height="13.6014" fill="white" transform="translate(435.017 144.11) scale(1.00125)"/>
</clipPath>
<clipPath id="clip81_253_2890">
<rect width="5.65904" height="13.6014" fill="white" transform="translate(440.455 162.123) scale(1.00125)"/>
</clipPath>
<clipPath id="clip82_253_2890">
<rect width="5.65904" height="13.6014" fill="white" transform="translate(445.893 144.11) scale(1.00125)"/>
</clipPath>
<clipPath id="clip83_253_2890">
<rect width="5.65904" height="13.6014" fill="white" transform="translate(451.33 162.123) scale(1.00125)"/>
</clipPath>
<clipPath id="clip84_253_2890">
<rect width="5.65904" height="13.6014" fill="white" transform="translate(456.768 180.137) scale(1.00125)"/>
</clipPath>
<clipPath id="clip85_253_2890">
<rect width="5.65904" height="13.6014" fill="white" transform="translate(462.206 162.123) scale(1.00125)"/>
</clipPath>
<clipPath id="clip86_253_2890">
<rect width="5.65904" height="13.6014" fill="white" transform="translate(467.643 144.11) scale(1.00125)"/>
</clipPath>
<clipPath id="clip87_253_2890">
<rect width="5.65904" height="13.6014" fill="white" transform="translate(473.081 162.123) scale(1.00125)"/>
</clipPath>
<clipPath id="clip88_253_2890">
<rect width="5.65904" height="13.6014" fill="white" transform="translate(478.519 144.11) scale(1.00125)"/>
</clipPath>
<clipPath id="clip89_253_2890">
<rect width="5.65904" height="13.6014" fill="white" transform="translate(483.956 126.096) scale(1.00125)"/>
</clipPath>
<clipPath id="clip90_253_2890">
<rect width="5.65904" height="13.6014" fill="white" transform="translate(489.394 108.082) scale(1.00125)"/>
</clipPath>
<clipPath id="clip91_253_2890">
<rect width="5.65904" height="13.6014" fill="white" transform="translate(494.832 90.0687) scale(1.00125)"/>
</clipPath>
<clipPath id="clip92_253_2890">
<rect width="5.65904" height="13.6014" fill="white" transform="translate(500.27 72.055) scale(1.00125)"/>
</clipPath>
<clipPath id="clip93_253_2890">
<rect width="5.65904" height="13.6014" fill="white" transform="translate(505.707 90.0687) scale(1.00125)"/>
</clipPath>
<clipPath id="clip94_253_2890">
<rect width="5.65904" height="13.6014" fill="white" transform="translate(511.145 72.055) scale(1.00125)"/>
</clipPath>
<clipPath id="clip95_253_2890">
<rect width="5.65904" height="13.6014" fill="white" transform="translate(516.583 90.0687) scale(1.00125)"/>
</clipPath>
<clipPath id="clip96_253_2890">
<rect width="5.65904" height="13.6014" fill="white" transform="translate(522.02 72.055) scale(1.00125)"/>
</clipPath>
<clipPath id="clip97_253_2890">
<rect width="5.65904" height="13.6014" fill="white" transform="translate(527.458 90.0687) scale(1.00125)"/>
</clipPath>
<clipPath id="clip98_253_2890">
<rect width="5.65904" height="13.6014" fill="white" transform="translate(532.896 72.055) scale(1.00125)"/>
</clipPath>
<clipPath id="clip99_253_2890">
<rect width="5.65904" height="13.6014" fill="white" transform="translate(538.334 54.0409) scale(1.00125)"/>
</clipPath>
</defs>
</svg>
