<svg width="666" height="295" viewBox="0 0 666 295" fill="none" xmlns="http://www.w3.org/2000/svg">
<rect x="0.0969238" width="586.328" height="295" rx="8" fill="#131521" fill-opacity="0.29"/>
<path d="M27.1298 247.503C28.0733 243.88 29.0168 240.256 29.9603 236.633C30.9039 233.009 31.8474 229.386 32.7909 225.762C33.7345 222.139 34.678 218.515 35.6215 214.892C36.5651 211.268 37.5086 204.021 38.4521 204.021C39.3956 204.021 40.3392 214.892 41.2827 214.892C42.2262 214.892 43.1698 207.645 44.1133 204.021C45.0568 200.398 46.0004 196.775 46.9439 193.151C47.8874 189.528 48.8309 185.904 49.7745 182.281C50.718 178.657 51.6615 171.41 52.6051 171.41C53.5486 171.41 54.4921 178.657 55.4357 182.281C56.3792 185.904 57.3227 189.528 58.2662 193.151C59.2098 196.775 60.1533 200.398 61.0968 204.021C62.0404 207.645 62.9839 211.268 63.9274 214.892C64.871 218.515 65.8145 225.762 66.758 225.762C67.7015 225.762 68.6451 218.515 69.5886 214.892C70.5321 211.268 71.4757 207.645 72.4192 204.021C73.3627 200.398 74.3062 193.151 75.2498 193.151C76.1933 193.151 77.1368 204.021 78.0804 204.021C79.0239 204.021 79.9674 196.775 80.911 193.151C81.8545 189.528 82.798 185.904 83.7415 182.281C84.6851 178.657 85.6286 175.034 86.5721 171.41C87.5157 167.787 88.4592 164.164 89.4027 160.54C90.3463 156.916 91.2898 153.293 92.2333 149.67C93.1768 146.046 94.1204 138.799 95.0639 138.799C96.0074 138.799 96.951 149.67 97.8945 149.67C98.838 149.67 99.7815 138.799 100.725 138.799C101.669 138.799 102.612 146.046 103.556 149.67C104.499 153.293 105.443 160.54 106.386 160.54C107.33 160.54 108.273 149.67 109.217 149.67C110.16 149.67 111.104 160.54 112.047 160.54C112.991 160.54 113.934 153.293 114.878 149.67C115.822 146.046 116.765 138.799 117.709 138.799C118.652 138.799 119.596 149.67 120.539 149.67C121.483 149.67 122.426 138.799 123.37 138.799C124.313 138.799 125.257 146.046 126.2 149.67C127.144 153.293 128.087 156.916 129.031 160.54C129.975 164.164 130.918 167.787 131.862 171.41C132.805 175.034 133.749 178.657 134.692 182.281C135.636 185.904 136.579 193.151 137.523 193.151C138.466 193.151 139.41 185.904 140.353 182.281C141.297 178.657 142.24 171.41 143.184 171.41C144.127 171.41 145.071 178.657 146.015 182.281C146.958 185.904 147.902 193.151 148.845 193.151C149.789 193.151 150.732 182.281 151.676 182.281C152.619 182.281 153.563 193.151 154.506 193.151C155.45 193.151 156.393 182.281 157.337 182.281C158.28 182.281 159.224 193.151 160.167 193.151C161.111 193.151 162.055 182.281 162.998 182.281C163.942 182.281 164.885 193.151 165.829 193.151C166.772 193.151 167.716 185.904 168.659 182.281C169.603 178.657 170.546 171.41 171.49 171.41C172.433 171.41 173.377 178.657 174.32 182.281C175.264 185.904 176.207 193.151 177.151 193.151C178.095 193.151 179.038 185.904 179.982 182.281C180.925 178.657 181.869 171.41 182.812 171.41C183.756 171.41 184.699 178.657 185.643 182.281C186.586 185.904 187.53 193.151 188.473 193.151C189.417 193.151 190.36 185.904 191.304 182.281C192.247 178.657 193.191 175.034 194.135 171.41C195.078 167.787 196.022 160.54 196.965 160.54C197.909 160.54 198.852 167.787 199.796 171.41C200.739 175.034 201.683 182.281 202.626 182.281C203.57 182.281 204.513 171.41 205.457 171.41C206.4 171.41 207.344 178.657 208.287 182.281C209.231 185.904 210.175 189.528 211.118 193.151C212.062 196.775 213.005 200.398 213.949 204.021C214.892 207.645 215.836 214.892 216.779 214.892C217.723 214.892 218.666 204.021 219.61 204.021C220.553 204.021 221.497 211.268 222.44 214.892C223.384 218.515 224.327 222.139 225.271 225.762C226.215 229.386 227.158 233.009 228.102 236.633C229.045 240.256 229.989 247.503 230.932 247.503C231.876 247.503 232.819 236.633 233.763 236.633C234.706 236.633 235.65 247.503 236.593 247.503C237.537 247.503 238.48 240.256 239.424 236.633C240.367 233.009 241.311 225.762 242.255 225.762C243.198 225.762 244.142 236.633 245.085 236.633C246.029 236.633 246.972 225.762 247.916 225.762C248.859 225.762 249.803 236.633 250.746 236.633C251.69 236.633 252.633 225.762 253.577 225.762C254.52 225.762 255.464 236.633 256.407 236.633C257.351 236.633 258.295 225.762 259.238 225.762C260.182 225.762 261.125 233.009 262.069 236.633C263.012 240.256 263.956 247.503 264.899 247.503C265.843 247.503 266.786 240.256 267.73 236.633C268.673 233.009 269.617 225.762 270.56 225.762C271.504 225.762 272.447 236.633 273.391 236.633C274.335 236.633 275.278 229.386 276.222 225.762C277.165 222.139 278.109 218.515 279.052 214.892C279.996 211.268 280.939 207.645 281.883 204.021C282.826 200.398 283.77 196.775 284.713 193.151C285.657 189.528 286.6 182.281 287.544 182.281C288.488 182.281 289.431 193.151 290.375 193.151C291.318 193.151 292.262 182.281 293.205 182.281C294.149 182.281 295.092 193.151 296.036 193.151C296.979 193.151 297.923 182.281 298.866 182.281C299.81 182.281 300.753 193.151 301.697 193.151C302.64 193.151 303.584 185.904 304.527 182.281C305.471 178.657 306.415 175.034 307.358 171.41" stroke="#3182BD"/>
<path d="M310.053 159.28C310.996 155.656 311.94 152.032 312.883 148.409C313.827 144.786 314.77 141.162 315.714 137.539C316.657 133.915 317.601 130.292 318.544 126.668C319.488 123.045 320.431 115.798 321.375 115.798C322.318 115.798 323.262 126.668 324.205 126.668C325.149 126.668 326.093 119.421 327.036 115.798C327.98 112.175 328.923 108.551 329.867 104.927C330.81 101.304 331.754 97.6804 332.697 94.0572C333.641 90.4337 334.584 83.1866 335.528 83.1866C336.471 83.1866 337.415 90.4337 338.358 94.0572C339.302 97.6804 340.246 101.304 341.189 104.927C342.133 108.551 343.076 112.175 344.02 115.798C344.963 119.421 345.907 123.045 346.85 126.668C347.794 130.292 348.737 137.539 349.681 137.539C350.624 137.539 351.568 130.292 352.511 126.668C353.455 123.045 354.398 119.421 355.342 115.798C356.286 112.175 357.229 104.927 358.173 104.927C359.116 104.927 360.06 115.798 361.003 115.798C361.947 115.798 362.89 108.551 363.834 104.927C364.777 101.304 365.721 97.6804 366.664 94.0572C367.608 90.4337 368.551 86.8101 369.495 83.1866C370.438 79.5634 371.382 75.9399 372.326 72.3163C373.269 68.6928 374.213 65.0693 375.156 61.4461C376.1 57.8225 377.043 50.5754 377.987 50.5754C378.93 50.5754 379.874 61.4461 380.817 61.4461C381.761 61.4461 382.704 50.5754 383.648 50.5754C384.591 50.5754 385.535 57.8225 386.478 61.4461C387.422 65.0693 388.366 72.3163 389.309 72.3163C390.253 72.3163 391.196 61.4461 392.14 61.4461C393.083 61.4461 394.027 72.3163 394.97 72.3163C395.914 72.3163 396.857 65.0693 397.801 61.4461C398.744 57.8225 399.688 50.5754 400.631 50.5754C401.575 50.5754 402.518 61.4461 403.462 61.4461C404.406 61.4461 405.349 50.5754 406.293 50.5754C407.236 50.5754 408.18 57.8225 409.123 61.4461C410.067 65.0693 411.01 68.6928 411.954 72.3163C412.897 75.9399 413.841 79.5634 414.784 83.1866C415.728 86.8101 416.671 90.4337 417.615 94.0572C418.558 97.6804 419.502 104.927 420.446 104.927C421.389 104.927 422.333 97.6804 423.276 94.0572C424.22 90.4337 425.163 83.1866 426.107 83.1866C427.05 83.1866 427.994 90.4337 428.937 94.0572C429.881 97.6804 430.824 104.927 431.768 104.927C432.711 104.927 433.655 94.0572 434.598 94.0572C435.542 94.0572 436.486 104.927 437.429 104.927C438.373 104.927 439.316 94.0572 440.26 94.0572C441.203 94.0572 442.147 104.927 443.09 104.927C444.034 104.927 444.977 94.0572 445.921 94.0572C446.864 94.0572 447.808 104.927 448.751 104.927C449.695 104.927 450.638 97.6804 451.582 94.0572C452.526 90.4337 453.469 83.1866 454.413 83.1866C455.356 83.1866 456.3 90.4337 457.243 94.0572C458.187 97.6804 459.13 104.927 460.074 104.927C461.017 104.927 461.961 97.6804 462.904 94.0572C463.848 90.4337 464.791 83.1866 465.735 83.1866C466.678 83.1866 467.622 90.4337 468.566 94.0572C469.509 97.6804 470.453 104.927 471.396 104.927C472.34 104.927 473.283 97.6804 474.227 94.0572C475.17 90.4337 476.114 86.8101 477.057 83.1866C478.001 79.5634 478.944 72.3163 479.888 72.3163C480.831 72.3163 481.775 79.5634 482.719 83.1866C483.662 86.8101 484.606 94.0572 485.549 94.0572C486.493 94.0572 487.436 83.1866 488.38 83.1866C489.323 83.1866 490.267 90.4337 491.21 94.0572C492.154 97.6804 493.097 101.304 494.041 104.927C494.984 108.551 495.928 112.175 496.871 115.798C497.815 119.421 498.758 126.668 499.702 126.668C500.646 126.668 501.589 115.798 502.533 115.798C503.476 115.798 504.42 123.045 505.363 126.668C506.307 130.292 507.25 133.915 508.194 137.539C509.137 141.162 510.081 144.786 511.024 148.409C511.968 152.032 512.911 159.28 513.855 159.28C514.799 159.28 515.742 148.409 516.686 148.409C517.629 148.409 518.573 159.28 519.516 159.28C520.46 159.28 521.403 152.032 522.347 148.409C523.29 144.786 524.234 137.539 525.177 137.539C526.121 137.539 527.064 148.409 528.008 148.409C528.951 148.409 529.895 137.539 530.838 137.539C531.782 137.539 532.726 148.409 533.669 148.409C534.613 148.409 535.556 137.539 536.5 137.539C537.443 137.539 538.387 148.409 539.33 148.409C540.274 148.409 541.217 137.539 542.161 137.539C543.104 137.539 544.048 144.786 544.991 148.409C545.935 152.032 546.879 159.28 547.822 159.28C548.766 159.28 549.709 152.032 550.653 148.409C551.596 144.786 552.54 137.539 553.483 137.539C554.427 137.539 555.37 148.409 556.314 148.409C557.257 148.409 558.201 141.162 559.144 137.539C560.088 133.915 561.031 130.292 561.975 126.668C562.919 123.045 563.862 119.421 564.806 115.798C565.749 112.175 566.693 108.551 567.636 104.927C568.58 101.304 569.523 94.0572 570.467 94.0572C571.41 94.0572 572.354 104.927 573.297 104.927C574.241 104.927 575.184 94.0572 576.128 94.0572C577.071 94.0572 578.015 104.927 578.959 104.927C579.902 104.927 580.846 94.0572 581.789 94.0572" stroke="#3182BD"/>
<g clip-path="url(#clip0_52_254)">
<path d="M27.5681 241.401H26.3894C26.0639 241.401 25.8 241.935 25.8 242.593V246.646C25.8 247.304 26.0639 247.838 26.3894 247.838H27.5681C27.8936 247.838 28.1575 247.304 28.1575 246.646V242.593C28.1575 241.935 27.8936 241.401 27.5681 241.401Z" fill="#00D564"/>
</g>
<g clip-path="url(#clip1_52_254)">
<path d="M30.3961 230.76H29.2174C28.8919 230.76 28.6281 231.293 28.6281 231.952V236.004C28.6281 236.662 28.8919 237.196 29.2174 237.196H30.3961C30.7216 237.196 30.9855 236.662 30.9855 236.004V231.952C30.9855 231.293 30.7216 230.76 30.3961 230.76Z" fill="#00D564"/>
</g>
<g clip-path="url(#clip2_52_254)">
<path d="M33.2241 220.117H32.0454C31.7199 220.117 31.4561 220.651 31.4561 221.309V225.362C31.4561 226.02 31.7199 226.553 32.0454 226.553H33.2241C33.5496 226.553 33.8135 226.02 33.8135 225.362V221.309C33.8135 220.651 33.5496 220.117 33.2241 220.117Z" fill="#00D564"/>
</g>
<g clip-path="url(#clip3_52_254)">
<path d="M36.0523 209.475H34.8735C34.548 209.475 34.2842 210.009 34.2842 210.667V214.719C34.2842 215.378 34.548 215.911 34.8735 215.911H36.0523C36.3778 215.911 36.6416 215.378 36.6416 214.719V210.667C36.6416 210.009 36.3778 209.475 36.0523 209.475Z" fill="#00D564"/>
</g>
<g clip-path="url(#clip4_52_254)">
<path d="M38.8803 198.833H37.7015C37.376 198.833 37.1122 199.367 37.1122 200.025V204.078C37.1122 204.736 37.376 205.27 37.7015 205.27H38.8803C39.2058 205.27 39.4696 204.736 39.4696 204.078V200.025C39.4696 199.367 39.2058 198.833 38.8803 198.833Z" fill="#00D564"/>
</g>
<g clip-path="url(#clip5_52_254)">
<path d="M41.7084 209.475H40.5297C40.2042 209.475 39.9403 210.009 39.9403 210.667V214.719C39.9403 215.378 40.2042 215.911 40.5297 215.911H41.7084C42.0339 215.911 42.2978 215.378 42.2978 214.719V210.667C42.2978 210.009 42.0339 209.475 41.7084 209.475Z" fill="#FF0000"/>
</g>
<g clip-path="url(#clip6_52_254)">
<path d="M44.5362 198.833H43.3574C43.0319 198.833 42.7681 199.367 42.7681 200.025V204.078C42.7681 204.736 43.0319 205.27 43.3574 205.27H44.5362C44.8617 205.27 45.1255 204.736 45.1255 204.078V200.025C45.1255 199.367 44.8617 198.833 44.5362 198.833Z" fill="#00D564"/>
</g>
<g clip-path="url(#clip7_52_254)">
<path d="M47.3645 188.191H46.1858C45.8603 188.191 45.5964 188.725 45.5964 189.383V193.436C45.5964 194.094 45.8603 194.628 46.1858 194.628H47.3645C47.69 194.628 47.9539 194.094 47.9539 193.436V189.383C47.9539 188.725 47.69 188.191 47.3645 188.191Z" fill="#00D564"/>
</g>
<g clip-path="url(#clip8_52_254)">
<path d="M50.1925 177.549H49.0138C48.6883 177.549 48.4244 178.082 48.4244 178.741V182.793C48.4244 183.451 48.6883 183.985 49.0138 183.985H50.1925C50.518 183.985 50.7819 183.451 50.7819 182.793V178.741C50.7819 178.082 50.518 177.549 50.1925 177.549Z" fill="#00D564"/>
</g>
<g clip-path="url(#clip9_52_254)">
<path d="M53.0205 166.907H51.8418C51.5163 166.907 51.2524 167.44 51.2524 168.099V172.151C51.2524 172.809 51.5163 173.343 51.8418 173.343H53.0205C53.346 173.343 53.6099 172.809 53.6099 172.151V168.099C53.6099 167.44 53.346 166.907 53.0205 166.907Z" fill="#00D564"/>
</g>
<g clip-path="url(#clip10_52_254)">
<path d="M55.8485 177.549H54.6698C54.3443 177.549 54.0804 178.082 54.0804 178.741V182.793C54.0804 183.451 54.3443 183.985 54.6698 183.985H55.8485C56.174 183.985 56.4379 183.451 56.4379 182.793V178.741C56.4379 178.082 56.174 177.549 55.8485 177.549Z" fill="#FF0000"/>
</g>
<g clip-path="url(#clip11_52_254)">
<path d="M58.6767 188.191H57.4979C57.1724 188.191 56.9086 188.725 56.9086 189.383V193.436C56.9086 194.094 57.1724 194.628 57.4979 194.628H58.6767C59.0022 194.628 59.266 194.094 59.266 193.436V189.383C59.266 188.725 59.0022 188.191 58.6767 188.191Z" fill="#FF0000"/>
</g>
<g clip-path="url(#clip12_52_254)">
<path d="M61.5047 198.833H60.3259C60.0004 198.833 59.7366 199.367 59.7366 200.025V204.078C59.7366 204.736 60.0004 205.27 60.3259 205.27H61.5047C61.8302 205.27 62.094 204.736 62.094 204.078V200.025C62.094 199.367 61.8302 198.833 61.5047 198.833Z" fill="#FF0000"/>
</g>
<g clip-path="url(#clip13_52_254)">
<path d="M64.3327 209.475H63.154C62.8285 209.475 62.5646 210.009 62.5646 210.667V214.719C62.5646 215.378 62.8285 215.911 63.154 215.911H64.3327C64.6582 215.911 64.9221 215.378 64.9221 214.719V210.667C64.9221 210.009 64.6582 209.475 64.3327 209.475Z" fill="#FF0000"/>
</g>
<g clip-path="url(#clip14_52_254)">
<path d="M67.1607 220.117H65.982C65.6565 220.117 65.3926 220.651 65.3926 221.309V225.362C65.3926 226.02 65.6565 226.553 65.982 226.553H67.1607C67.4862 226.553 67.7501 226.02 67.7501 225.362V221.309C67.7501 220.651 67.4862 220.117 67.1607 220.117Z" fill="#FF0000"/>
</g>
<g clip-path="url(#clip15_52_254)">
<path d="M69.9888 209.475H68.8101C68.4846 209.475 68.2207 210.009 68.2207 210.667V214.719C68.2207 215.378 68.4846 215.911 68.8101 215.911H69.9888C70.3143 215.911 70.5782 215.378 70.5782 214.719V210.667C70.5782 210.009 70.3143 209.475 69.9888 209.475Z" fill="#00D564"/>
</g>
<g clip-path="url(#clip16_52_254)">
<path d="M72.8169 198.833H71.6381C71.3126 198.833 71.0488 199.367 71.0488 200.025V204.078C71.0488 204.736 71.3126 205.27 71.6381 205.27H72.8169C73.1424 205.27 73.4062 204.736 73.4062 204.078V200.025C73.4062 199.367 73.1424 198.833 72.8169 198.833Z" fill="#00D564"/>
</g>
<g clip-path="url(#clip17_52_254)">
<path d="M75.6449 188.191H74.4662C74.1407 188.191 73.8768 188.725 73.8768 189.383V193.436C73.8768 194.094 74.1407 194.628 74.4662 194.628H75.6449C75.9704 194.628 76.2343 194.094 76.2343 193.436V189.383C76.2343 188.725 75.9704 188.191 75.6449 188.191Z" fill="#00D564"/>
</g>
<g clip-path="url(#clip18_52_254)">
<path d="M78.4729 198.833H77.2942C76.9687 198.833 76.7048 199.367 76.7048 200.025V204.078C76.7048 204.736 76.9687 205.27 77.2942 205.27H78.4729C78.7984 205.27 79.0623 204.736 79.0623 204.078V200.025C79.0623 199.367 78.7984 198.833 78.4729 198.833Z" fill="#FF0000"/>
</g>
<g clip-path="url(#clip19_52_254)">
<path d="M81.3009 188.191H80.1221C79.7966 188.191 79.5328 188.725 79.5328 189.383V193.436C79.5328 194.094 79.7966 194.628 80.1221 194.628H81.3009C81.6264 194.628 81.8902 194.094 81.8902 193.436V189.383C81.8902 188.725 81.6264 188.191 81.3009 188.191Z" fill="#00D564"/>
</g>
<g clip-path="url(#clip20_52_254)">
<path d="M84.129 177.549H82.9503C82.6248 177.549 82.3609 178.082 82.3609 178.741V182.793C82.3609 183.451 82.6248 183.985 82.9503 183.985H84.129C84.4545 183.985 84.7184 183.451 84.7184 182.793V178.741C84.7184 178.082 84.4545 177.549 84.129 177.549Z" fill="#00D564"/>
</g>
<g clip-path="url(#clip21_52_254)">
<path d="M86.9569 166.907H85.7782C85.4527 166.907 85.1888 167.44 85.1888 168.099V172.151C85.1888 172.809 85.4527 173.343 85.7782 173.343H86.9569C87.2824 173.343 87.5463 172.809 87.5463 172.151V168.099C87.5463 167.44 87.2824 166.907 86.9569 166.907Z" fill="#00D564"/>
</g>
<g clip-path="url(#clip22_52_254)">
<path d="M89.7851 156.265H88.6063C88.2808 156.265 88.017 156.799 88.017 157.457V161.51C88.017 162.168 88.2808 162.701 88.6063 162.701H89.7851C90.1106 162.701 90.3744 162.168 90.3744 161.51V157.457C90.3744 156.799 90.1106 156.265 89.7851 156.265Z" fill="#00D564"/>
</g>
<g clip-path="url(#clip23_52_254)">
<path d="M92.6131 145.623H91.4343C91.1088 145.623 90.845 146.157 90.845 146.815V150.867C90.845 151.526 91.1088 152.059 91.4343 152.059H92.6131C92.9386 152.059 93.2024 151.526 93.2024 150.867V146.815C93.2024 146.157 92.9386 145.623 92.6131 145.623Z" fill="#00D564"/>
</g>
<g clip-path="url(#clip24_52_254)">
<path d="M95.4411 134.981H94.2624C93.9369 134.981 93.673 135.515 93.673 136.173V140.226C93.673 140.884 93.9369 141.418 94.2624 141.418H95.4411C95.7666 141.418 96.0305 140.884 96.0305 140.226V136.173C96.0305 135.515 95.7666 134.981 95.4411 134.981Z" fill="#00D564"/>
</g>
<g clip-path="url(#clip25_52_254)">
<path d="M98.2691 145.623H97.0904C96.7649 145.623 96.501 146.157 96.501 146.815V150.867C96.501 151.526 96.7649 152.059 97.0904 152.059H98.2691C98.5946 152.059 98.8585 151.526 98.8585 150.867V146.815C98.8585 146.157 98.5946 145.623 98.2691 145.623Z" fill="#FF0000"/>
</g>
<g clip-path="url(#clip26_52_254)">
<path d="M101.097 134.981H99.9185C99.593 134.981 99.3291 135.515 99.3291 136.173V140.226C99.3291 140.884 99.593 141.418 99.9185 141.418H101.097C101.423 141.418 101.687 140.884 101.687 140.226V136.173C101.687 135.515 101.423 134.981 101.097 134.981Z" fill="#00D564"/>
</g>
<g clip-path="url(#clip27_52_254)">
<path d="M103.925 145.623H102.747C102.421 145.623 102.157 146.157 102.157 146.815V150.867C102.157 151.526 102.421 152.059 102.747 152.059H103.925C104.251 152.059 104.515 151.526 104.515 150.867V146.815C104.515 146.157 104.251 145.623 103.925 145.623Z" fill="#FF0000"/>
</g>
<g clip-path="url(#clip28_52_254)">
<path d="M106.753 156.265H105.575C105.249 156.265 104.985 156.799 104.985 157.457V161.51C104.985 162.168 105.249 162.701 105.575 162.701H106.753C107.079 162.701 107.343 162.168 107.343 161.51V157.457C107.343 156.799 107.079 156.265 106.753 156.265Z" fill="#FF0000"/>
</g>
<g clip-path="url(#clip29_52_254)">
<path d="M109.581 145.623H108.403C108.077 145.623 107.813 146.157 107.813 146.815V150.867C107.813 151.526 108.077 152.059 108.403 152.059H109.581C109.907 152.059 110.171 151.526 110.171 150.867V146.815C110.171 146.157 109.907 145.623 109.581 145.623Z" fill="#00D564"/>
</g>
<g clip-path="url(#clip30_52_254)">
<path d="M112.409 156.265H111.231C110.905 156.265 110.641 156.799 110.641 157.457V161.51C110.641 162.168 110.905 162.701 111.231 162.701H112.409C112.735 162.701 112.999 162.168 112.999 161.51V157.457C112.999 156.799 112.735 156.265 112.409 156.265Z" fill="#FF0000"/>
</g>
<g clip-path="url(#clip31_52_254)">
<path d="M115.237 145.623H114.059C113.733 145.623 113.469 146.157 113.469 146.815V150.867C113.469 151.526 113.733 152.059 114.059 152.059H115.237C115.563 152.059 115.827 151.526 115.827 150.867V146.815C115.827 146.157 115.563 145.623 115.237 145.623Z" fill="#00D564"/>
</g>
<g clip-path="url(#clip32_52_254)">
<path d="M118.066 134.981H116.887C116.561 134.981 116.297 135.515 116.297 136.173V140.226C116.297 140.884 116.561 141.418 116.887 141.418H118.066C118.391 141.418 118.655 140.884 118.655 140.226V136.173C118.655 135.515 118.391 134.981 118.066 134.981Z" fill="#00D564"/>
</g>
<g clip-path="url(#clip33_52_254)">
<path d="M120.894 145.623H119.715C119.389 145.623 119.125 146.157 119.125 146.815V150.867C119.125 151.526 119.389 152.059 119.715 152.059H120.894C121.219 152.059 121.483 151.526 121.483 150.867V146.815C121.483 146.157 121.219 145.623 120.894 145.623Z" fill="#FF0000"/>
</g>
<g clip-path="url(#clip34_52_254)">
<path d="M123.721 134.981H122.543C122.217 134.981 121.953 135.515 121.953 136.173V140.226C121.953 140.884 122.217 141.418 122.543 141.418H123.721C124.047 141.418 124.311 140.884 124.311 140.226V136.173C124.311 135.515 124.047 134.981 123.721 134.981Z" fill="#00D564"/>
</g>
<g clip-path="url(#clip35_52_254)">
<path d="M126.55 145.623H125.371C125.045 145.623 124.781 146.157 124.781 146.815V150.867C124.781 151.526 125.045 152.059 125.371 152.059H126.55C126.875 152.059 127.139 151.526 127.139 150.867V146.815C127.139 146.157 126.875 145.623 126.55 145.623Z" fill="#FF0000"/>
</g>
<g clip-path="url(#clip36_52_254)">
<path d="M129.378 156.265H128.199C127.873 156.265 127.609 156.799 127.609 157.457V161.51C127.609 162.168 127.873 162.701 128.199 162.701H129.378C129.703 162.701 129.967 162.168 129.967 161.51V157.457C129.967 156.799 129.703 156.265 129.378 156.265Z" fill="#FF0000"/>
</g>
<g clip-path="url(#clip37_52_254)">
<path d="M132.206 166.907H131.027C130.701 166.907 130.438 167.44 130.438 168.099V172.151C130.438 172.809 130.701 173.343 131.027 173.343H132.206C132.531 173.343 132.795 172.809 132.795 172.151V168.099C132.795 167.44 132.531 166.907 132.206 166.907Z" fill="#FF0000"/>
</g>
<g clip-path="url(#clip38_52_254)">
<path d="M135.034 177.549H133.855C133.529 177.549 133.266 178.082 133.266 178.741V182.793C133.266 183.451 133.529 183.985 133.855 183.985H135.034C135.359 183.985 135.623 183.451 135.623 182.793V178.741C135.623 178.082 135.359 177.549 135.034 177.549Z" fill="#FF0000"/>
</g>
<g clip-path="url(#clip39_52_254)">
<path d="M137.862 188.191H136.683C136.357 188.191 136.094 188.725 136.094 189.383V193.436C136.094 194.094 136.357 194.628 136.683 194.628H137.862C138.187 194.628 138.451 194.094 138.451 193.436V189.383C138.451 188.725 138.187 188.191 137.862 188.191Z" fill="#FF0000"/>
</g>
<g clip-path="url(#clip40_52_254)">
<path d="M140.69 177.549H139.511C139.185 177.549 138.922 178.082 138.922 178.741V182.793C138.922 183.451 139.185 183.985 139.511 183.985H140.69C141.015 183.985 141.279 183.451 141.279 182.793V178.741C141.279 178.082 141.015 177.549 140.69 177.549Z" fill="#00D564"/>
</g>
<g clip-path="url(#clip41_52_254)">
<path d="M143.518 166.907H142.339C142.014 166.907 141.75 167.44 141.75 168.099V172.151C141.75 172.809 142.014 173.343 142.339 173.343H143.518C143.843 173.343 144.107 172.809 144.107 172.151V168.099C144.107 167.44 143.843 166.907 143.518 166.907Z" fill="#00D564"/>
</g>
<g clip-path="url(#clip42_52_254)">
<path d="M146.346 177.549H145.167C144.842 177.549 144.578 178.082 144.578 178.741V182.793C144.578 183.451 144.842 183.985 145.167 183.985H146.346C146.671 183.985 146.935 183.451 146.935 182.793V178.741C146.935 178.082 146.671 177.549 146.346 177.549Z" fill="#FF0000"/>
</g>
<g clip-path="url(#clip43_52_254)">
<path d="M149.174 188.191H147.995C147.67 188.191 147.406 188.725 147.406 189.383V193.436C147.406 194.094 147.67 194.628 147.995 194.628H149.174C149.499 194.628 149.763 194.094 149.763 193.436V189.383C149.763 188.725 149.499 188.191 149.174 188.191Z" fill="#FF0000"/>
</g>
<g clip-path="url(#clip44_52_254)">
<path d="M152.002 177.549H150.823C150.498 177.549 150.234 178.082 150.234 178.741V182.793C150.234 183.451 150.498 183.985 150.823 183.985H152.002C152.327 183.985 152.591 183.451 152.591 182.793V178.741C152.591 178.082 152.327 177.549 152.002 177.549Z" fill="#00D564"/>
</g>
<g clip-path="url(#clip45_52_254)">
<path d="M154.83 188.191H153.651C153.326 188.191 153.062 188.725 153.062 189.383V193.436C153.062 194.094 153.326 194.628 153.651 194.628H154.83C155.155 194.628 155.419 194.094 155.419 193.436V189.383C155.419 188.725 155.155 188.191 154.83 188.191Z" fill="#FF0000"/>
</g>
<g clip-path="url(#clip46_52_254)">
<path d="M157.658 177.549H156.479C156.154 177.549 155.89 178.082 155.89 178.741V182.793C155.89 183.451 156.154 183.985 156.479 183.985H157.658C157.984 183.985 158.247 183.451 158.247 182.793V178.741C158.247 178.082 157.984 177.549 157.658 177.549Z" fill="#00D564"/>
</g>
<g clip-path="url(#clip47_52_254)">
<path d="M160.486 188.191H159.307C158.982 188.191 158.718 188.725 158.718 189.383V193.436C158.718 194.094 158.982 194.628 159.307 194.628H160.486C160.811 194.628 161.075 194.094 161.075 193.436V189.383C161.075 188.725 160.811 188.191 160.486 188.191Z" fill="#FF0000"/>
</g>
<g clip-path="url(#clip48_52_254)">
<path d="M163.314 177.549H162.135C161.81 177.549 161.546 178.082 161.546 178.741V182.793C161.546 183.451 161.81 183.985 162.135 183.985H163.314C163.64 183.985 163.903 183.451 163.903 182.793V178.741C163.903 178.082 163.64 177.549 163.314 177.549Z" fill="#00D564"/>
</g>
<g clip-path="url(#clip49_52_254)">
<path d="M166.142 188.191H164.963C164.638 188.191 164.374 188.725 164.374 189.383V193.436C164.374 194.094 164.638 194.628 164.963 194.628H166.142C166.468 194.628 166.731 194.094 166.731 193.436V189.383C166.731 188.725 166.468 188.191 166.142 188.191Z" fill="#FF0000"/>
</g>
<g clip-path="url(#clip50_52_254)">
<path d="M168.97 177.549H167.791C167.466 177.549 167.202 178.082 167.202 178.741V182.793C167.202 183.451 167.466 183.985 167.791 183.985H168.97C169.296 183.985 169.56 183.451 169.56 182.793V178.741C169.56 178.082 169.296 177.549 168.97 177.549Z" fill="#00D564"/>
</g>
<g clip-path="url(#clip51_52_254)">
<path d="M171.798 166.907H170.619C170.294 166.907 170.03 167.44 170.03 168.099V172.151C170.03 172.809 170.294 173.343 170.619 173.343H171.798C172.124 173.343 172.388 172.809 172.388 172.151V168.099C172.388 167.44 172.124 166.907 171.798 166.907Z" fill="#00D564"/>
</g>
<g clip-path="url(#clip52_52_254)">
<path d="M174.626 177.549H173.448C173.122 177.549 172.858 178.082 172.858 178.741V182.793C172.858 183.451 173.122 183.985 173.448 183.985H174.626C174.952 183.985 175.216 183.451 175.216 182.793V178.741C175.216 178.082 174.952 177.549 174.626 177.549Z" fill="#FF0000"/>
</g>
<g clip-path="url(#clip53_52_254)">
<path d="M177.454 188.191H176.276C175.95 188.191 175.686 188.725 175.686 189.383V193.436C175.686 194.094 175.95 194.628 176.276 194.628H177.454C177.78 194.628 178.044 194.094 178.044 193.436V189.383C178.044 188.725 177.78 188.191 177.454 188.191Z" fill="#FF0000"/>
</g>
<g clip-path="url(#clip54_52_254)">
<path d="M180.282 177.549H179.104C178.778 177.549 178.514 178.082 178.514 178.741V182.793C178.514 183.451 178.778 183.985 179.104 183.985H180.282C180.608 183.985 180.872 183.451 180.872 182.793V178.741C180.872 178.082 180.608 177.549 180.282 177.549Z" fill="#00D564"/>
</g>
<g clip-path="url(#clip55_52_254)">
<path d="M183.11 166.907H181.932C181.606 166.907 181.342 167.44 181.342 168.099V172.151C181.342 172.809 181.606 173.343 181.932 173.343H183.11C183.436 173.343 183.7 172.809 183.7 172.151V168.099C183.7 167.44 183.436 166.907 183.11 166.907Z" fill="#00D564"/>
</g>
<g clip-path="url(#clip56_52_254)">
<path d="M185.938 177.549H184.76C184.434 177.549 184.17 178.082 184.17 178.741V182.793C184.17 183.451 184.434 183.985 184.76 183.985H185.938C186.264 183.985 186.528 183.451 186.528 182.793V178.741C186.528 178.082 186.264 177.549 185.938 177.549Z" fill="#FF0000"/>
</g>
<g clip-path="url(#clip57_52_254)">
<path d="M188.767 188.191H187.588C187.262 188.191 186.998 188.725 186.998 189.383V193.436C186.998 194.094 187.262 194.628 187.588 194.628H188.767C189.092 194.628 189.356 194.094 189.356 193.436V189.383C189.356 188.725 189.092 188.191 188.767 188.191Z" fill="#FF0000"/>
</g>
<g clip-path="url(#clip58_52_254)">
<path d="M191.595 177.549H190.416C190.09 177.549 189.826 178.082 189.826 178.741V182.793C189.826 183.451 190.09 183.985 190.416 183.985H191.595C191.92 183.985 192.184 183.451 192.184 182.793V178.741C192.184 178.082 191.92 177.549 191.595 177.549Z" fill="#00D564"/>
</g>
<g clip-path="url(#clip59_52_254)">
<path d="M194.423 166.907H193.244C192.918 166.907 192.654 167.44 192.654 168.099V172.151C192.654 172.809 192.918 173.343 193.244 173.343H194.423C194.748 173.343 195.012 172.809 195.012 172.151V168.099C195.012 167.44 194.748 166.907 194.423 166.907Z" fill="#00D564"/>
</g>
<g clip-path="url(#clip60_52_254)">
<path d="M197.251 156.265H196.072C195.746 156.265 195.482 156.799 195.482 157.457V161.51C195.482 162.168 195.746 162.701 196.072 162.701H197.251C197.576 162.701 197.84 162.168 197.84 161.51V157.457C197.84 156.799 197.576 156.265 197.251 156.265Z" fill="#00D564"/>
</g>
<g clip-path="url(#clip61_52_254)">
<path d="M200.079 166.907H198.9C198.574 166.907 198.311 167.44 198.311 168.099V172.151C198.311 172.809 198.574 173.343 198.9 173.343H200.079C200.404 173.343 200.668 172.809 200.668 172.151V168.099C200.668 167.44 200.404 166.907 200.079 166.907Z" fill="#FF0000"/>
</g>
<g clip-path="url(#clip62_52_254)">
<path d="M202.907 177.549H201.728C201.402 177.549 201.139 178.082 201.139 178.741V182.793C201.139 183.451 201.402 183.985 201.728 183.985H202.907C203.232 183.985 203.496 183.451 203.496 182.793V178.741C203.496 178.082 203.232 177.549 202.907 177.549Z" fill="#FF0000"/>
</g>
<g clip-path="url(#clip63_52_254)">
<path d="M205.735 166.907H204.556C204.23 166.907 203.967 167.44 203.967 168.099V172.151C203.967 172.809 204.23 173.343 204.556 173.343H205.735C206.06 173.343 206.324 172.809 206.324 172.151V168.099C206.324 167.44 206.06 166.907 205.735 166.907Z" fill="#00D564"/>
</g>
<g clip-path="url(#clip64_52_254)">
<path d="M208.563 177.549H207.384C207.058 177.549 206.795 178.082 206.795 178.741V182.793C206.795 183.451 207.058 183.985 207.384 183.985H208.563C208.888 183.985 209.152 183.451 209.152 182.793V178.741C209.152 178.082 208.888 177.549 208.563 177.549Z" fill="#FF0000"/>
</g>
<g clip-path="url(#clip65_52_254)">
<path d="M211.391 188.191H210.212C209.887 188.191 209.623 188.725 209.623 189.383V193.436C209.623 194.094 209.887 194.628 210.212 194.628H211.391C211.716 194.628 211.98 194.094 211.98 193.436V189.383C211.98 188.725 211.716 188.191 211.391 188.191Z" fill="#FF0000"/>
</g>
<g clip-path="url(#clip66_52_254)">
<path d="M214.219 198.833H213.04C212.715 198.833 212.451 199.367 212.451 200.025V204.078C212.451 204.736 212.715 205.27 213.04 205.27H214.219C214.544 205.27 214.808 204.736 214.808 204.078V200.025C214.808 199.367 214.544 198.833 214.219 198.833Z" fill="#FF0000"/>
</g>
<g clip-path="url(#clip67_52_254)">
<path d="M217.047 209.475H215.868C215.543 209.475 215.279 210.009 215.279 210.667V214.719C215.279 215.378 215.543 215.911 215.868 215.911H217.047C217.372 215.911 217.636 215.378 217.636 214.719V210.667C217.636 210.009 217.372 209.475 217.047 209.475Z" fill="#FF0000"/>
</g>
<g clip-path="url(#clip68_52_254)">
<path d="M219.875 198.833H218.696C218.371 198.833 218.107 199.367 218.107 200.025V204.078C218.107 204.736 218.371 205.27 218.696 205.27H219.875C220.2 205.27 220.464 204.736 220.464 204.078V200.025C220.464 199.367 220.2 198.833 219.875 198.833Z" fill="#00D564"/>
</g>
<g clip-path="url(#clip69_52_254)">
<path d="M222.703 209.475H221.524C221.199 209.475 220.935 210.009 220.935 210.667V214.719C220.935 215.378 221.199 215.911 221.524 215.911H222.703C223.028 215.911 223.292 215.378 223.292 214.719V210.667C223.292 210.009 223.028 209.475 222.703 209.475Z" fill="#FF0000"/>
</g>
<g clip-path="url(#clip70_52_254)">
<path d="M225.531 220.117H224.352C224.027 220.117 223.763 220.651 223.763 221.309V225.362C223.763 226.02 224.027 226.553 224.352 226.553H225.531C225.856 226.553 226.12 226.02 226.12 225.362V221.309C226.12 220.651 225.856 220.117 225.531 220.117Z" fill="#FF0000"/>
</g>
<g clip-path="url(#clip71_52_254)">
<path d="M228.359 230.76H227.18C226.855 230.76 226.591 231.293 226.591 231.952V236.004C226.591 236.662 226.855 237.196 227.18 237.196H228.359C228.684 237.196 228.948 236.662 228.948 236.004V231.952C228.948 231.293 228.684 230.76 228.359 230.76Z" fill="#FF0000"/>
</g>
<g clip-path="url(#clip72_52_254)">
<path d="M231.187 241.401H230.008C229.683 241.401 229.419 241.935 229.419 242.593V246.646C229.419 247.304 229.683 247.838 230.008 247.838H231.187C231.513 247.838 231.776 247.304 231.776 246.646V242.593C231.776 241.935 231.513 241.401 231.187 241.401Z" fill="#FF0000"/>
</g>
<g clip-path="url(#clip73_52_254)">
<path d="M234.015 230.76H232.836C232.511 230.76 232.247 231.293 232.247 231.952V236.004C232.247 236.662 232.511 237.196 232.836 237.196H234.015C234.341 237.196 234.604 236.662 234.604 236.004V231.952C234.604 231.293 234.341 230.76 234.015 230.76Z" fill="#00D564"/>
</g>
<g clip-path="url(#clip74_52_254)">
<path d="M236.843 241.401H235.664C235.339 241.401 235.075 241.935 235.075 242.593V246.646C235.075 247.304 235.339 247.838 235.664 247.838H236.843C237.169 247.838 237.432 247.304 237.432 246.646V242.593C237.432 241.935 237.169 241.401 236.843 241.401Z" fill="#FF0000"/>
</g>
<g clip-path="url(#clip75_52_254)">
<path d="M239.671 230.76H238.492C238.167 230.76 237.903 231.293 237.903 231.952V236.004C237.903 236.662 238.167 237.196 238.492 237.196H239.671C239.997 237.196 240.26 236.662 240.26 236.004V231.952C240.26 231.293 239.997 230.76 239.671 230.76Z" fill="#00D564"/>
</g>
<g clip-path="url(#clip76_52_254)">
<path d="M242.499 220.117H241.321C240.995 220.117 240.731 220.651 240.731 221.309V225.362C240.731 226.02 240.995 226.553 241.321 226.553H242.499C242.825 226.553 243.089 226.02 243.089 225.362V221.309C243.089 220.651 242.825 220.117 242.499 220.117Z" fill="#00D564"/>
</g>
<g clip-path="url(#clip77_52_254)">
<path d="M245.327 230.76H244.149C243.823 230.76 243.559 231.293 243.559 231.952V236.004C243.559 236.662 243.823 237.196 244.149 237.196H245.327C245.653 237.196 245.917 236.662 245.917 236.004V231.952C245.917 231.293 245.653 230.76 245.327 230.76Z" fill="#FF0000"/>
</g>
<g clip-path="url(#clip78_52_254)">
<path d="M248.155 220.117H246.977C246.651 220.117 246.387 220.651 246.387 221.309V225.362C246.387 226.02 246.651 226.553 246.977 226.553H248.155C248.481 226.553 248.745 226.02 248.745 225.362V221.309C248.745 220.651 248.481 220.117 248.155 220.117Z" fill="#00D564"/>
</g>
<g clip-path="url(#clip79_52_254)">
<path d="M250.983 230.76H249.805C249.479 230.76 249.215 231.293 249.215 231.952V236.004C249.215 236.662 249.479 237.196 249.805 237.196H250.983C251.309 237.196 251.573 236.662 251.573 236.004V231.952C251.573 231.293 251.309 230.76 250.983 230.76Z" fill="#FF0000"/>
</g>
<g clip-path="url(#clip80_52_254)">
<path d="M253.811 220.117H252.633C252.307 220.117 252.043 220.651 252.043 221.309V225.362C252.043 226.02 252.307 226.553 252.633 226.553H253.811C254.137 226.553 254.401 226.02 254.401 225.362V221.309C254.401 220.651 254.137 220.117 253.811 220.117Z" fill="#00D564"/>
</g>
<g clip-path="url(#clip81_52_254)">
<path d="M256.639 230.76H255.461C255.135 230.76 254.871 231.293 254.871 231.952V236.004C254.871 236.662 255.135 237.196 255.461 237.196H256.639C256.965 237.196 257.229 236.662 257.229 236.004V231.952C257.229 231.293 256.965 230.76 256.639 230.76Z" fill="#FF0000"/>
</g>
<g clip-path="url(#clip82_52_254)">
<path d="M259.468 220.117H258.289C257.963 220.117 257.699 220.651 257.699 221.309V225.362C257.699 226.02 257.963 226.553 258.289 226.553H259.468C259.793 226.553 260.057 226.02 260.057 225.362V221.309C260.057 220.651 259.793 220.117 259.468 220.117Z" fill="#00D564"/>
</g>
<g clip-path="url(#clip83_52_254)">
<path d="M262.296 230.76H261.117C260.791 230.76 260.527 231.293 260.527 231.952V236.004C260.527 236.662 260.791 237.196 261.117 237.196H262.296C262.621 237.196 262.885 236.662 262.885 236.004V231.952C262.885 231.293 262.621 230.76 262.296 230.76Z" fill="#FF0000"/>
</g>
<g clip-path="url(#clip84_52_254)">
<path d="M265.124 241.401H263.945C263.619 241.401 263.355 241.935 263.355 242.593V246.646C263.355 247.304 263.619 247.838 263.945 247.838H265.124C265.449 247.838 265.713 247.304 265.713 246.646V242.593C265.713 241.935 265.449 241.401 265.124 241.401Z" fill="#FF0000"/>
</g>
<g clip-path="url(#clip85_52_254)">
<path d="M267.952 230.76H266.773C266.447 230.76 266.184 231.293 266.184 231.952V236.004C266.184 236.662 266.447 237.196 266.773 237.196H267.952C268.277 237.196 268.541 236.662 268.541 236.004V231.952C268.541 231.293 268.277 230.76 267.952 230.76Z" fill="#00D564"/>
</g>
<g clip-path="url(#clip86_52_254)">
<path d="M270.78 220.117H269.601C269.275 220.117 269.012 220.651 269.012 221.309V225.362C269.012 226.02 269.275 226.553 269.601 226.553H270.78C271.105 226.553 271.369 226.02 271.369 225.362V221.309C271.369 220.651 271.105 220.117 270.78 220.117Z" fill="#00D564"/>
</g>
<g clip-path="url(#clip87_52_254)">
<path d="M273.608 230.76H272.429C272.103 230.76 271.84 231.293 271.84 231.952V236.004C271.84 236.662 272.103 237.196 272.429 237.196H273.608C273.933 237.196 274.197 236.662 274.197 236.004V231.952C274.197 231.293 273.933 230.76 273.608 230.76Z" fill="#FF0000"/>
</g>
<g clip-path="url(#clip88_52_254)">
<path d="M276.436 220.117H275.257C274.931 220.117 274.668 220.651 274.668 221.309V225.362C274.668 226.02 274.931 226.553 275.257 226.553H276.436C276.761 226.553 277.025 226.02 277.025 225.362V221.309C277.025 220.651 276.761 220.117 276.436 220.117Z" fill="#00D564"/>
</g>
<g clip-path="url(#clip89_52_254)">
<path d="M279.264 209.475H278.085C277.759 209.475 277.496 210.009 277.496 210.667V214.719C277.496 215.378 277.759 215.911 278.085 215.911H279.264C279.589 215.911 279.853 215.378 279.853 214.719V210.667C279.853 210.009 279.589 209.475 279.264 209.475Z" fill="#00D564"/>
</g>
<g clip-path="url(#clip90_52_254)">
<path d="M282.092 198.833H280.913C280.588 198.833 280.324 199.367 280.324 200.025V204.078C280.324 204.736 280.588 205.27 280.913 205.27H282.092C282.417 205.27 282.681 204.736 282.681 204.078V200.025C282.681 199.367 282.417 198.833 282.092 198.833Z" fill="#00D564"/>
</g>
<g clip-path="url(#clip91_52_254)">
<path d="M284.92 188.191H283.741C283.416 188.191 283.152 188.725 283.152 189.383V193.436C283.152 194.094 283.416 194.628 283.741 194.628H284.92C285.245 194.628 285.509 194.094 285.509 193.436V189.383C285.509 188.725 285.245 188.191 284.92 188.191Z" fill="#00D564"/>
</g>
<g clip-path="url(#clip92_52_254)">
<path d="M287.748 177.549H286.569C286.244 177.549 285.98 178.082 285.98 178.741V182.793C285.98 183.451 286.244 183.985 286.569 183.985H287.748C288.073 183.985 288.337 183.451 288.337 182.793V178.741C288.337 178.082 288.073 177.549 287.748 177.549Z" fill="#00D564"/>
</g>
<g clip-path="url(#clip93_52_254)">
<path d="M290.576 188.191H289.397C289.072 188.191 288.808 188.725 288.808 189.383V193.436C288.808 194.094 289.072 194.628 289.397 194.628H290.576C290.901 194.628 291.165 194.094 291.165 193.436V189.383C291.165 188.725 290.901 188.191 290.576 188.191Z" fill="#FF0000"/>
</g>
<g clip-path="url(#clip94_52_254)">
<path d="M293.404 177.549H292.225C291.9 177.549 291.636 178.082 291.636 178.741V182.793C291.636 183.451 291.9 183.985 292.225 183.985H293.404C293.73 183.985 293.993 183.451 293.993 182.793V178.741C293.993 178.082 293.73 177.549 293.404 177.549Z" fill="#00D564"/>
</g>
<g clip-path="url(#clip95_52_254)">
<path d="M296.232 188.191H295.053C294.728 188.191 294.464 188.725 294.464 189.383V193.436C294.464 194.094 294.728 194.628 295.053 194.628H296.232C296.558 194.628 296.821 194.094 296.821 193.436V189.383C296.821 188.725 296.558 188.191 296.232 188.191Z" fill="#FF0000"/>
</g>
<g clip-path="url(#clip96_52_254)">
<path d="M299.06 177.549H297.881C297.556 177.549 297.292 178.082 297.292 178.741V182.793C297.292 183.451 297.556 183.985 297.881 183.985H299.06C299.385 183.985 299.649 183.451 299.649 182.793V178.741C299.649 178.082 299.385 177.549 299.06 177.549Z" fill="#00D564"/>
</g>
<g clip-path="url(#clip97_52_254)">
<path d="M301.888 188.191H300.709C300.384 188.191 300.12 188.725 300.12 189.383V193.436C300.12 194.094 300.384 194.628 300.709 194.628H301.888C302.214 194.628 302.477 194.094 302.477 193.436V189.383C302.477 188.725 302.214 188.191 301.888 188.191Z" fill="#FF0000"/>
</g>
<g clip-path="url(#clip98_52_254)">
<path d="M304.716 177.549H303.537C303.212 177.549 302.948 178.082 302.948 178.741V182.793C302.948 183.451 303.212 183.985 303.537 183.985H304.716C305.042 183.985 305.305 183.451 305.305 182.793V178.741C305.305 178.082 305.042 177.549 304.716 177.549Z" fill="#00D564"/>
</g>
<g clip-path="url(#clip99_52_254)">
<path d="M307.544 166.907H306.365C306.04 166.907 305.776 167.44 305.776 168.099V172.151C305.776 172.809 306.04 173.343 306.365 173.343H307.544C307.87 173.343 308.134 172.809 308.134 172.151V168.099C308.134 167.44 307.87 166.907 307.544 166.907Z" fill="#00D564"/>
</g>
<g clip-path="url(#clip100_52_254)">
<path d="M310.473 155.867H309.295C308.969 155.867 308.705 156.401 308.705 157.059V161.112C308.705 161.77 308.969 162.303 309.295 162.303H310.473C310.799 162.303 311.063 161.77 311.063 161.112V157.059C311.063 156.401 310.799 155.867 310.473 155.867Z" fill="#00D564"/>
</g>
<g clip-path="url(#clip101_52_254)">
<path d="M313.301 145.225H312.123C311.797 145.225 311.533 145.759 311.533 146.417V150.469C311.533 151.128 311.797 151.661 312.123 151.661H313.301C313.627 151.661 313.891 151.128 313.891 150.469V146.417C313.891 145.759 313.627 145.225 313.301 145.225Z" fill="#00D564"/>
</g>
<g clip-path="url(#clip102_52_254)">
<path d="M316.129 134.583H314.951C314.625 134.583 314.361 135.117 314.361 135.775V139.828C314.361 140.486 314.625 141.02 314.951 141.02H316.129C316.455 141.02 316.719 140.486 316.719 139.828V135.775C316.719 135.117 316.455 134.583 316.129 134.583Z" fill="#00D564"/>
</g>
<g clip-path="url(#clip103_52_254)">
<path d="M318.958 123.941H317.779C317.453 123.941 317.189 124.475 317.189 125.133V129.186C317.189 129.844 317.453 130.377 317.779 130.377H318.958C319.283 130.377 319.547 129.844 319.547 129.186V125.133C319.547 124.475 319.283 123.941 318.958 123.941Z" fill="#00D564"/>
</g>
<g clip-path="url(#clip104_52_254)">
<path d="M321.786 113.299H320.607C320.281 113.299 320.017 113.833 320.017 114.491V118.544C320.017 119.202 320.281 119.736 320.607 119.736H321.786C322.111 119.736 322.375 119.202 322.375 118.544V114.491C322.375 113.833 322.111 113.299 321.786 113.299Z" fill="#00D564"/>
</g>
<g clip-path="url(#clip105_52_254)">
<path d="M324.614 123.941H323.435C323.109 123.941 322.846 124.475 322.846 125.133V129.186C322.846 129.844 323.109 130.377 323.435 130.377H324.614C324.939 130.377 325.203 129.844 325.203 129.186V125.133C325.203 124.475 324.939 123.941 324.614 123.941Z" fill="#FF0000"/>
</g>
<g clip-path="url(#clip106_52_254)">
<path d="M327.442 113.299H326.263C325.937 113.299 325.673 113.833 325.673 114.491V118.544C325.673 119.202 325.937 119.736 326.263 119.736H327.442C327.767 119.736 328.031 119.202 328.031 118.544V114.491C328.031 113.833 327.767 113.299 327.442 113.299Z" fill="#00D564"/>
</g>
<g clip-path="url(#clip107_52_254)">
<path d="M330.27 102.657H329.091C328.765 102.657 328.502 103.191 328.502 103.849V107.902C328.502 108.56 328.765 109.094 329.091 109.094H330.27C330.595 109.094 330.859 108.56 330.859 107.902V103.849C330.859 103.191 330.595 102.657 330.27 102.657Z" fill="#00D564"/>
</g>
<g clip-path="url(#clip108_52_254)">
<path d="M333.098 92.0149H331.919C331.593 92.0149 331.33 92.5485 331.33 93.2068V97.2593C331.33 97.9176 331.593 98.4512 331.919 98.4512H333.098C333.423 98.4512 333.687 97.9176 333.687 97.2593V93.2068C333.687 92.5485 333.423 92.0149 333.098 92.0149Z" fill="#00D564"/>
</g>
<g clip-path="url(#clip109_52_254)">
<path d="M335.926 81.3728H334.747C334.422 81.3728 334.158 81.9064 334.158 82.5647V86.6172C334.158 87.2755 334.422 87.8091 334.747 87.8091H335.926C336.251 87.8091 336.515 87.2755 336.515 86.6172V82.5647C336.515 81.9064 336.251 81.3728 335.926 81.3728Z" fill="#00D564"/>
</g>
<g clip-path="url(#clip110_52_254)">
<path d="M338.754 92.0149H337.575C337.25 92.0149 336.986 92.5485 336.986 93.2068V97.2593C336.986 97.9176 337.25 98.4512 337.575 98.4512H338.754C339.079 98.4512 339.343 97.9176 339.343 97.2593V93.2068C339.343 92.5485 339.079 92.0149 338.754 92.0149Z" fill="#FF0000"/>
</g>
<g clip-path="url(#clip111_52_254)">
<path d="M341.582 102.657H340.403C340.078 102.657 339.814 103.191 339.814 103.849V107.902C339.814 108.56 340.078 109.094 340.403 109.094H341.582C341.907 109.094 342.171 108.56 342.171 107.902V103.849C342.171 103.191 341.907 102.657 341.582 102.657Z" fill="#FF0000"/>
</g>
<g clip-path="url(#clip112_52_254)">
<path d="M344.41 113.299H343.231C342.906 113.299 342.642 113.833 342.642 114.491V118.544C342.642 119.202 342.906 119.736 343.231 119.736H344.41C344.735 119.736 344.999 119.202 344.999 118.544V114.491C344.999 113.833 344.735 113.299 344.41 113.299Z" fill="#FF0000"/>
</g>
<g clip-path="url(#clip113_52_254)">
<path d="M347.238 123.941H346.059C345.734 123.941 345.47 124.475 345.47 125.133V129.186C345.47 129.844 345.734 130.377 346.059 130.377H347.238C347.563 130.377 347.827 129.844 347.827 129.186V125.133C347.827 124.475 347.563 123.941 347.238 123.941Z" fill="#FF0000"/>
</g>
<g clip-path="url(#clip114_52_254)">
<path d="M350.066 134.583H348.887C348.562 134.583 348.298 135.117 348.298 135.775V139.828C348.298 140.486 348.562 141.02 348.887 141.02H350.066C350.391 141.02 350.655 140.486 350.655 139.828V135.775C350.655 135.117 350.391 134.583 350.066 134.583Z" fill="#FF0000"/>
</g>
<g clip-path="url(#clip115_52_254)">
<path d="M352.894 123.941H351.715C351.39 123.941 351.126 124.475 351.126 125.133V129.186C351.126 129.844 351.39 130.377 351.715 130.377H352.894C353.22 130.377 353.483 129.844 353.483 129.186V125.133C353.483 124.475 353.22 123.941 352.894 123.941Z" fill="#00D564"/>
</g>
<g clip-path="url(#clip116_52_254)">
<path d="M355.722 113.299H354.543C354.218 113.299 353.954 113.833 353.954 114.491V118.544C353.954 119.202 354.218 119.736 354.543 119.736H355.722C356.048 119.736 356.311 119.202 356.311 118.544V114.491C356.311 113.833 356.048 113.299 355.722 113.299Z" fill="#00D564"/>
</g>
<g clip-path="url(#clip117_52_254)">
<path d="M358.55 102.657H357.371C357.046 102.657 356.782 103.191 356.782 103.849V107.902C356.782 108.56 357.046 109.094 357.371 109.094H358.55C358.876 109.094 359.139 108.56 359.139 107.902V103.849C359.139 103.191 358.876 102.657 358.55 102.657Z" fill="#00D564"/>
</g>
<g clip-path="url(#clip118_52_254)">
<path d="M361.378 113.299H360.199C359.874 113.299 359.61 113.833 359.61 114.491V118.544C359.61 119.202 359.874 119.736 360.199 119.736H361.378C361.704 119.736 361.968 119.202 361.968 118.544V114.491C361.968 113.833 361.704 113.299 361.378 113.299Z" fill="#FF0000"/>
</g>
<g clip-path="url(#clip119_52_254)">
<path d="M364.206 102.657H363.027C362.702 102.657 362.438 103.191 362.438 103.849V107.902C362.438 108.56 362.702 109.094 363.027 109.094H364.206C364.532 109.094 364.795 108.56 364.795 107.902V103.849C364.795 103.191 364.532 102.657 364.206 102.657Z" fill="#00D564"/>
</g>
<g clip-path="url(#clip120_52_254)">
<path d="M367.034 92.0149H365.856C365.53 92.0149 365.266 92.5485 365.266 93.2068V97.2593C365.266 97.9176 365.53 98.4512 365.856 98.4512H367.034C367.36 98.4512 367.624 97.9176 367.624 97.2593V93.2068C367.624 92.5485 367.36 92.0149 367.034 92.0149Z" fill="#00D564"/>
</g>
<g clip-path="url(#clip121_52_254)">
<path d="M369.862 81.3728H368.683C368.358 81.3728 368.094 81.9064 368.094 82.5647V86.6172C368.094 87.2755 368.358 87.8091 368.683 87.8091H369.862C370.188 87.8091 370.452 87.2755 370.452 86.6172V82.5647C370.452 81.9064 370.188 81.3728 369.862 81.3728Z" fill="#00D564"/>
</g>
<g clip-path="url(#clip122_52_254)">
<path d="M372.69 70.731H371.512C371.186 70.731 370.922 71.2646 370.922 71.9229V75.9753C370.922 76.6336 371.186 77.1673 371.512 77.1673H372.69C373.016 77.1673 373.28 76.6336 373.28 75.9753V71.9229C373.28 71.2646 373.016 70.731 372.69 70.731Z" fill="#00D564"/>
</g>
<g clip-path="url(#clip123_52_254)">
<path d="M375.518 60.0889H374.34C374.014 60.0889 373.75 60.6225 373.75 61.2808V65.3333C373.75 65.9915 374.014 66.5252 374.34 66.5252H375.518C375.844 66.5252 376.108 65.9915 376.108 65.3333V61.2808C376.108 60.6225 375.844 60.0889 375.518 60.0889Z" fill="#00D564"/>
</g>
<g clip-path="url(#clip124_52_254)">
<path d="M378.346 49.447H377.168C376.842 49.447 376.578 49.9807 376.578 50.6389V54.6914C376.578 55.3497 376.842 55.8833 377.168 55.8833H378.346C378.672 55.8833 378.936 55.3497 378.936 54.6914V50.6389C378.936 49.9807 378.672 49.447 378.346 49.447Z" fill="#00D564"/>
</g>
<g clip-path="url(#clip125_52_254)">
<path d="M381.174 60.0889H379.996C379.67 60.0889 379.406 60.6225 379.406 61.2808V65.3333C379.406 65.9915 379.67 66.5252 379.996 66.5252H381.174C381.5 66.5252 381.764 65.9915 381.764 65.3333V61.2808C381.764 60.6225 381.5 60.0889 381.174 60.0889Z" fill="#FF0000"/>
</g>
<g clip-path="url(#clip126_52_254)">
<path d="M384.002 49.447H382.824C382.498 49.447 382.234 49.9807 382.234 50.6389V54.6914C382.234 55.3497 382.498 55.8833 382.824 55.8833H384.002C384.328 55.8833 384.592 55.3497 384.592 54.6914V50.6389C384.592 49.9807 384.328 49.447 384.002 49.447Z" fill="#00D564"/>
</g>
<g clip-path="url(#clip127_52_254)">
<path d="M386.831 60.0889H385.652C385.326 60.0889 385.062 60.6225 385.062 61.2808V65.3333C385.062 65.9915 385.326 66.5252 385.652 66.5252H386.831C387.156 66.5252 387.42 65.9915 387.42 65.3333V61.2808C387.42 60.6225 387.156 60.0889 386.831 60.0889Z" fill="#FF0000"/>
</g>
<g clip-path="url(#clip128_52_254)">
<path d="M389.659 70.731H388.48C388.154 70.731 387.89 71.2646 387.89 71.9229V75.9753C387.89 76.6336 388.154 77.1673 388.48 77.1673H389.659C389.984 77.1673 390.248 76.6336 390.248 75.9753V71.9229C390.248 71.2646 389.984 70.731 389.659 70.731Z" fill="#FF0000"/>
</g>
<g clip-path="url(#clip129_52_254)">
<path d="M392.487 60.0889H391.308C390.982 60.0889 390.719 60.6225 390.719 61.2808V65.3333C390.719 65.9915 390.982 66.5252 391.308 66.5252H392.487C392.812 66.5252 393.076 65.9915 393.076 65.3333V61.2808C393.076 60.6225 392.812 60.0889 392.487 60.0889Z" fill="#00D564"/>
</g>
<g clip-path="url(#clip130_52_254)">
<path d="M395.315 70.731H394.136C393.81 70.731 393.547 71.2646 393.547 71.9229V75.9753C393.547 76.6336 393.81 77.1673 394.136 77.1673H395.315C395.64 77.1673 395.904 76.6336 395.904 75.9753V71.9229C395.904 71.2646 395.64 70.731 395.315 70.731Z" fill="#FF0000"/>
</g>
<g clip-path="url(#clip131_52_254)">
<path d="M398.143 60.0889H396.964C396.638 60.0889 396.375 60.6225 396.375 61.2808V65.3333C396.375 65.9915 396.638 66.5252 396.964 66.5252H398.143C398.468 66.5252 398.732 65.9915 398.732 65.3333V61.2808C398.732 60.6225 398.468 60.0889 398.143 60.0889Z" fill="#00D564"/>
</g>
<g clip-path="url(#clip132_52_254)">
<path d="M400.971 49.447H399.792C399.467 49.447 399.203 49.9807 399.203 50.6389V54.6914C399.203 55.3497 399.467 55.8833 399.792 55.8833H400.971C401.296 55.8833 401.56 55.3497 401.56 54.6914V50.6389C401.56 49.9807 401.296 49.447 400.971 49.447Z" fill="#00D564"/>
</g>
<g clip-path="url(#clip133_52_254)">
<path d="M403.799 60.0889H402.62C402.295 60.0889 402.031 60.6225 402.031 61.2808V65.3333C402.031 65.9915 402.295 66.5252 402.62 66.5252H403.799C404.124 66.5252 404.388 65.9915 404.388 65.3333V61.2808C404.388 60.6225 404.124 60.0889 403.799 60.0889Z" fill="#FF0000"/>
</g>
<g clip-path="url(#clip134_52_254)">
<path d="M406.627 49.447H405.448C405.123 49.447 404.859 49.9807 404.859 50.6389V54.6914C404.859 55.3497 405.123 55.8833 405.448 55.8833H406.627C406.952 55.8833 407.216 55.3497 407.216 54.6914V50.6389C407.216 49.9807 406.952 49.447 406.627 49.447Z" fill="#00D564"/>
</g>
<g clip-path="url(#clip135_52_254)">
<path d="M409.455 60.0889H408.276C407.951 60.0889 407.687 60.6225 407.687 61.2808V65.3333C407.687 65.9915 407.951 66.5252 408.276 66.5252H409.455C409.78 66.5252 410.044 65.9915 410.044 65.3333V61.2808C410.044 60.6225 409.78 60.0889 409.455 60.0889Z" fill="#FF0000"/>
</g>
<g clip-path="url(#clip136_52_254)">
<path d="M412.283 70.731H411.104C410.779 70.731 410.515 71.2646 410.515 71.9229V75.9753C410.515 76.6336 410.779 77.1673 411.104 77.1673H412.283C412.608 77.1673 412.872 76.6336 412.872 75.9753V71.9229C412.872 71.2646 412.608 70.731 412.283 70.731Z" fill="#FF0000"/>
</g>
<g clip-path="url(#clip137_52_254)">
<path d="M415.111 81.3728H413.932C413.607 81.3728 413.343 81.9064 413.343 82.5647V86.6172C413.343 87.2755 413.607 87.8091 413.932 87.8091H415.111C415.436 87.8091 415.7 87.2755 415.7 86.6172V82.5647C415.7 81.9064 415.436 81.3728 415.111 81.3728Z" fill="#FF0000"/>
</g>
<g clip-path="url(#clip138_52_254)">
<path d="M417.939 92.0149H416.76C416.435 92.0149 416.171 92.5485 416.171 93.2068V97.2593C416.171 97.9176 416.435 98.4512 416.76 98.4512H417.939C418.264 98.4512 418.528 97.9176 418.528 97.2593V93.2068C418.528 92.5485 418.264 92.0149 417.939 92.0149Z" fill="#FF0000"/>
</g>
<g clip-path="url(#clip139_52_254)">
<path d="M420.767 102.657H419.588C419.263 102.657 418.999 103.191 418.999 103.849V107.902C418.999 108.56 419.263 109.094 419.588 109.094H420.767C421.092 109.094 421.356 108.56 421.356 107.902V103.849C421.356 103.191 421.092 102.657 420.767 102.657Z" fill="#FF0000"/>
</g>
<g clip-path="url(#clip140_52_254)">
<path d="M423.595 92.0149H422.416C422.091 92.0149 421.827 92.5485 421.827 93.2068V97.2593C421.827 97.9176 422.091 98.4512 422.416 98.4512H423.595C423.92 98.4512 424.184 97.9176 424.184 97.2593V93.2068C424.184 92.5485 423.92 92.0149 423.595 92.0149Z" fill="#00D564"/>
</g>
<g clip-path="url(#clip141_52_254)">
<path d="M426.423 81.3728H425.244C424.919 81.3728 424.655 81.9064 424.655 82.5647V86.6172C424.655 87.2755 424.919 87.8091 425.244 87.8091H426.423C426.748 87.8091 427.012 87.2755 427.012 86.6172V82.5647C427.012 81.9064 426.748 81.3728 426.423 81.3728Z" fill="#00D564"/>
</g>
<g clip-path="url(#clip142_52_254)">
<path d="M429.251 92.0149H428.072C427.747 92.0149 427.483 92.5485 427.483 93.2068V97.2593C427.483 97.9176 427.747 98.4512 428.072 98.4512H429.251C429.577 98.4512 429.84 97.9176 429.84 97.2593V93.2068C429.84 92.5485 429.577 92.0149 429.251 92.0149Z" fill="#FF0000"/>
</g>
<g clip-path="url(#clip143_52_254)">
<path d="M432.079 102.657H430.9C430.575 102.657 430.311 103.191 430.311 103.849V107.902C430.311 108.56 430.575 109.094 430.9 109.094H432.079C432.405 109.094 432.668 108.56 432.668 107.902V103.849C432.668 103.191 432.405 102.657 432.079 102.657Z" fill="#FF0000"/>
</g>
<g clip-path="url(#clip144_52_254)">
<path d="M434.907 92.0149H433.728C433.403 92.0149 433.139 92.5485 433.139 93.2068V97.2593C433.139 97.9176 433.403 98.4512 433.728 98.4512H434.907C435.233 98.4512 435.496 97.9176 435.496 97.2593V93.2068C435.496 92.5485 435.233 92.0149 434.907 92.0149Z" fill="#00D564"/>
</g>
<g clip-path="url(#clip145_52_254)">
<path d="M437.735 102.657H436.556C436.231 102.657 435.967 103.191 435.967 103.849V107.902C435.967 108.56 436.231 109.094 436.556 109.094H437.735C438.061 109.094 438.324 108.56 438.324 107.902V103.849C438.324 103.191 438.061 102.657 437.735 102.657Z" fill="#FF0000"/>
</g>
<g clip-path="url(#clip146_52_254)">
<path d="M440.563 92.0149H439.385C439.059 92.0149 438.795 92.5485 438.795 93.2068V97.2593C438.795 97.9176 439.059 98.4512 439.385 98.4512H440.563C440.889 98.4512 441.153 97.9176 441.153 97.2593V93.2068C441.153 92.5485 440.889 92.0149 440.563 92.0149Z" fill="#00D564"/>
</g>
<g clip-path="url(#clip147_52_254)">
<path d="M443.391 102.657H442.212C441.887 102.657 441.623 103.191 441.623 103.849V107.902C441.623 108.56 441.887 109.094 442.212 109.094H443.391C443.717 109.094 443.981 108.56 443.981 107.902V103.849C443.981 103.191 443.717 102.657 443.391 102.657Z" fill="#FF0000"/>
</g>
<g clip-path="url(#clip148_52_254)">
<path d="M446.219 92.0149H445.041C444.715 92.0149 444.451 92.5485 444.451 93.2068V97.2593C444.451 97.9176 444.715 98.4512 445.041 98.4512H446.219C446.545 98.4512 446.809 97.9176 446.809 97.2593V93.2068C446.809 92.5485 446.545 92.0149 446.219 92.0149Z" fill="#00D564"/>
</g>
<g clip-path="url(#clip149_52_254)">
<path d="M449.047 102.657H447.869C447.543 102.657 447.279 103.191 447.279 103.849V107.902C447.279 108.56 447.543 109.094 447.869 109.094H449.047C449.373 109.094 449.637 108.56 449.637 107.902V103.849C449.637 103.191 449.373 102.657 449.047 102.657Z" fill="#FF0000"/>
</g>
<g clip-path="url(#clip150_52_254)">
<path d="M451.875 92.0149H450.697C450.371 92.0149 450.107 92.5485 450.107 93.2068V97.2593C450.107 97.9176 450.371 98.4512 450.697 98.4512H451.875C452.201 98.4512 452.465 97.9176 452.465 97.2593V93.2068C452.465 92.5485 452.201 92.0149 451.875 92.0149Z" fill="#00D564"/>
</g>
<g clip-path="url(#clip151_52_254)">
<path d="M454.704 81.3728H453.525C453.199 81.3728 452.935 81.9064 452.935 82.5647V86.6172C452.935 87.2755 453.199 87.8091 453.525 87.8091H454.704C455.029 87.8091 455.293 87.2755 455.293 86.6172V82.5647C455.293 81.9064 455.029 81.3728 454.704 81.3728Z" fill="#00D564"/>
</g>
<g clip-path="url(#clip152_52_254)">
<path d="M457.532 92.0149H456.353C456.027 92.0149 455.763 92.5485 455.763 93.2068V97.2593C455.763 97.9176 456.027 98.4512 456.353 98.4512H457.532C457.857 98.4512 458.121 97.9176 458.121 97.2593V93.2068C458.121 92.5485 457.857 92.0149 457.532 92.0149Z" fill="#FF0000"/>
</g>
<g clip-path="url(#clip153_52_254)">
<path d="M460.36 102.657H459.181C458.855 102.657 458.591 103.191 458.591 103.849V107.902C458.591 108.56 458.855 109.094 459.181 109.094H460.36C460.685 109.094 460.949 108.56 460.949 107.902V103.849C460.949 103.191 460.685 102.657 460.36 102.657Z" fill="#FF0000"/>
</g>
<g clip-path="url(#clip154_52_254)">
<path d="M463.188 92.0149H462.009C461.683 92.0149 461.419 92.5485 461.419 93.2068V97.2593C461.419 97.9176 461.683 98.4512 462.009 98.4512H463.188C463.513 98.4512 463.777 97.9176 463.777 97.2593V93.2068C463.777 92.5485 463.513 92.0149 463.188 92.0149Z" fill="#00D564"/>
</g>
<g clip-path="url(#clip155_52_254)">
<path d="M466.016 81.3728H464.837C464.511 81.3728 464.248 81.9064 464.248 82.5647V86.6172C464.248 87.2755 464.511 87.8091 464.837 87.8091H466.016C466.341 87.8091 466.605 87.2755 466.605 86.6172V82.5647C466.605 81.9064 466.341 81.3728 466.016 81.3728Z" fill="#00D564"/>
</g>
<g clip-path="url(#clip156_52_254)">
<path d="M468.844 92.0149H467.665C467.339 92.0149 467.076 92.5485 467.076 93.2068V97.2593C467.076 97.9176 467.339 98.4512 467.665 98.4512H468.844C469.169 98.4512 469.433 97.9176 469.433 97.2593V93.2068C469.433 92.5485 469.169 92.0149 468.844 92.0149Z" fill="#FF0000"/>
</g>
<g clip-path="url(#clip157_52_254)">
<path d="M471.672 102.657H470.493C470.168 102.657 469.904 103.191 469.904 103.849V107.902C469.904 108.56 470.168 109.094 470.493 109.094H471.672C471.997 109.094 472.261 108.56 472.261 107.902V103.849C472.261 103.191 471.997 102.657 471.672 102.657Z" fill="#FF0000"/>
</g>
<g clip-path="url(#clip158_52_254)">
<path d="M474.5 92.0149H473.321C472.996 92.0149 472.732 92.5485 472.732 93.2068V97.2593C472.732 97.9176 472.996 98.4512 473.321 98.4512H474.5C474.825 98.4512 475.089 97.9176 475.089 97.2593V93.2068C475.089 92.5485 474.825 92.0149 474.5 92.0149Z" fill="#00D564"/>
</g>
<g clip-path="url(#clip159_52_254)">
<path d="M477.328 81.3728H476.149C475.824 81.3728 475.56 81.9064 475.56 82.5647V86.6172C475.56 87.2755 475.824 87.8091 476.149 87.8091H477.328C477.653 87.8091 477.917 87.2755 477.917 86.6172V82.5647C477.917 81.9064 477.653 81.3728 477.328 81.3728Z" fill="#00D564"/>
</g>
<g clip-path="url(#clip160_52_254)">
<path d="M480.156 70.731H478.977C478.652 70.731 478.388 71.2646 478.388 71.9229V75.9753C478.388 76.6336 478.652 77.1673 478.977 77.1673H480.156C480.481 77.1673 480.745 76.6336 480.745 75.9753V71.9229C480.745 71.2646 480.481 70.731 480.156 70.731Z" fill="#00D564"/>
</g>
<g clip-path="url(#clip161_52_254)">
<path d="M482.984 81.3728H481.805C481.48 81.3728 481.216 81.9064 481.216 82.5647V86.6172C481.216 87.2755 481.48 87.8091 481.805 87.8091H482.984C483.309 87.8091 483.573 87.2755 483.573 86.6172V82.5647C483.573 81.9064 483.309 81.3728 482.984 81.3728Z" fill="#FF0000"/>
</g>
<g clip-path="url(#clip162_52_254)">
<path d="M485.812 92.0149H484.633C484.308 92.0149 484.044 92.5485 484.044 93.2068V97.2593C484.044 97.9176 484.308 98.4512 484.633 98.4512H485.812C486.137 98.4512 486.401 97.9176 486.401 97.2593V93.2068C486.401 92.5485 486.137 92.0149 485.812 92.0149Z" fill="#FF0000"/>
</g>
<g clip-path="url(#clip163_52_254)">
<path d="M488.64 81.3728H487.461C487.136 81.3728 486.872 81.9064 486.872 82.5647V86.6172C486.872 87.2755 487.136 87.8091 487.461 87.8091H488.64C488.965 87.8091 489.229 87.2755 489.229 86.6172V82.5647C489.229 81.9064 488.965 81.3728 488.64 81.3728Z" fill="#00D564"/>
</g>
<g clip-path="url(#clip164_52_254)">
<path d="M491.468 92.0149H490.289C489.964 92.0149 489.7 92.5485 489.7 93.2068V97.2593C489.7 97.9176 489.964 98.4512 490.289 98.4512H491.468C491.793 98.4512 492.057 97.9176 492.057 97.2593V93.2068C492.057 92.5485 491.793 92.0149 491.468 92.0149Z" fill="#FF0000"/>
</g>
<g clip-path="url(#clip165_52_254)">
<path d="M494.296 102.657H493.117C492.792 102.657 492.528 103.191 492.528 103.849V107.902C492.528 108.56 492.792 109.094 493.117 109.094H494.296C494.621 109.094 494.885 108.56 494.885 107.902V103.849C494.885 103.191 494.621 102.657 494.296 102.657Z" fill="#FF0000"/>
</g>
<g clip-path="url(#clip166_52_254)">
<path d="M497.124 113.299H495.945C495.62 113.299 495.356 113.833 495.356 114.491V118.544C495.356 119.202 495.62 119.736 495.945 119.736H497.124C497.45 119.736 497.713 119.202 497.713 118.544V114.491C497.713 113.833 497.45 113.299 497.124 113.299Z" fill="#FF0000"/>
</g>
<g clip-path="url(#clip167_52_254)">
<path d="M499.952 123.941H498.773C498.448 123.941 498.184 124.475 498.184 125.133V129.186C498.184 129.844 498.448 130.377 498.773 130.377H499.952C500.278 130.377 500.541 129.844 500.541 129.186V125.133C500.541 124.475 500.278 123.941 499.952 123.941Z" fill="#FF0000"/>
</g>
<g clip-path="url(#clip168_52_254)">
<path d="M502.78 113.299H501.601C501.276 113.299 501.012 113.833 501.012 114.491V118.544C501.012 119.202 501.276 119.736 501.601 119.736H502.78C503.106 119.736 503.37 119.202 503.37 118.544V114.491C503.37 113.833 503.106 113.299 502.78 113.299Z" fill="#00D564"/>
</g>
<g clip-path="url(#clip169_52_254)">
<path d="M505.608 123.941H504.429C504.104 123.941 503.84 124.475 503.84 125.133V129.186C503.84 129.844 504.104 130.377 504.429 130.377H505.608C505.934 130.377 506.198 129.844 506.198 129.186V125.133C506.198 124.475 505.934 123.941 505.608 123.941Z" fill="#FF0000"/>
</g>
<g clip-path="url(#clip170_52_254)">
<path d="M508.436 134.583H507.257C506.932 134.583 506.668 135.117 506.668 135.775V139.828C506.668 140.486 506.932 141.02 507.257 141.02H508.436C508.762 141.02 509.026 140.486 509.026 139.828V135.775C509.026 135.117 508.762 134.583 508.436 134.583Z" fill="#FF0000"/>
</g>
<g clip-path="url(#clip171_52_254)">
<path d="M511.264 145.225H510.085C509.76 145.225 509.496 145.759 509.496 146.417V150.469C509.496 151.128 509.76 151.661 510.085 151.661H511.264C511.59 151.661 511.854 151.128 511.854 150.469V146.417C511.854 145.759 511.59 145.225 511.264 145.225Z" fill="#FF0000"/>
</g>
<g clip-path="url(#clip172_52_254)">
<path d="M514.092 155.867H512.914C512.588 155.867 512.324 156.401 512.324 157.059V161.112C512.324 161.77 512.588 162.303 512.914 162.303H514.092C514.418 162.303 514.682 161.77 514.682 161.112V157.059C514.682 156.401 514.418 155.867 514.092 155.867Z" fill="#FF0000"/>
</g>
<g clip-path="url(#clip173_52_254)">
<path d="M516.92 145.225H515.742C515.416 145.225 515.152 145.759 515.152 146.417V150.469C515.152 151.128 515.416 151.661 515.742 151.661H516.92C517.246 151.661 517.51 151.128 517.51 150.469V146.417C517.51 145.759 517.246 145.225 516.92 145.225Z" fill="#00D564"/>
</g>
<g clip-path="url(#clip174_52_254)">
<path d="M519.748 155.867H518.57C518.244 155.867 517.98 156.401 517.98 157.059V161.112C517.98 161.77 518.244 162.303 518.57 162.303H519.748C520.074 162.303 520.338 161.77 520.338 161.112V157.059C520.338 156.401 520.074 155.867 519.748 155.867Z" fill="#FF0000"/>
</g>
<g clip-path="url(#clip175_52_254)">
<path d="M522.576 145.225H521.398C521.072 145.225 520.808 145.759 520.808 146.417V150.469C520.808 151.128 521.072 151.661 521.398 151.661H522.576C522.902 151.661 523.166 151.128 523.166 150.469V146.417C523.166 145.759 522.902 145.225 522.576 145.225Z" fill="#00D564"/>
</g>
<g clip-path="url(#clip176_52_254)">
<path d="M525.404 134.583H524.226C523.9 134.583 523.636 135.117 523.636 135.775V139.828C523.636 140.486 523.9 141.02 524.226 141.02H525.404C525.73 141.02 525.994 140.486 525.994 139.828V135.775C525.994 135.117 525.73 134.583 525.404 134.583Z" fill="#00D564"/>
</g>
<g clip-path="url(#clip177_52_254)">
<path d="M528.232 145.225H527.054C526.728 145.225 526.464 145.759 526.464 146.417V150.469C526.464 151.128 526.728 151.661 527.054 151.661H528.232C528.558 151.661 528.822 151.128 528.822 150.469V146.417C528.822 145.759 528.558 145.225 528.232 145.225Z" fill="#FF0000"/>
</g>
<g clip-path="url(#clip178_52_254)">
<path d="M531.061 134.583H529.882C529.556 134.583 529.292 135.117 529.292 135.775V139.828C529.292 140.486 529.556 141.02 529.882 141.02H531.061C531.386 141.02 531.65 140.486 531.65 139.828V135.775C531.65 135.117 531.386 134.583 531.061 134.583Z" fill="#00D564"/>
</g>
<g clip-path="url(#clip179_52_254)">
<path d="M533.889 145.225H532.71C532.384 145.225 532.12 145.759 532.12 146.417V150.469C532.12 151.128 532.384 151.661 532.71 151.661H533.889C534.214 151.661 534.478 151.128 534.478 150.469V146.417C534.478 145.759 534.214 145.225 533.889 145.225Z" fill="#FF0000"/>
</g>
<g clip-path="url(#clip180_52_254)">
<path d="M536.717 134.583H535.538C535.212 134.583 534.948 135.117 534.948 135.775V139.828C534.948 140.486 535.212 141.02 535.538 141.02H536.717C537.042 141.02 537.306 140.486 537.306 139.828V135.775C537.306 135.117 537.042 134.583 536.717 134.583Z" fill="#00D564"/>
</g>
<g clip-path="url(#clip181_52_254)">
<path d="M539.545 145.225H538.366C538.04 145.225 537.777 145.759 537.777 146.417V150.469C537.777 151.128 538.04 151.661 538.366 151.661H539.545C539.87 151.661 540.134 151.128 540.134 150.469V146.417C540.134 145.759 539.87 145.225 539.545 145.225Z" fill="#FF0000"/>
</g>
<g clip-path="url(#clip182_52_254)">
<path d="M542.373 134.583H541.194C540.869 134.583 540.605 135.117 540.605 135.775V139.828C540.605 140.486 540.869 141.02 541.194 141.02H542.373C542.698 141.02 542.962 140.486 542.962 139.828V135.775C542.962 135.117 542.698 134.583 542.373 134.583Z" fill="#00D564"/>
</g>
<g clip-path="url(#clip183_52_254)">
<path d="M545.201 145.225H544.022C543.697 145.225 543.433 145.759 543.433 146.417V150.469C543.433 151.128 543.697 151.661 544.022 151.661H545.201C545.526 151.661 545.79 151.128 545.79 150.469V146.417C545.79 145.759 545.526 145.225 545.201 145.225Z" fill="#FF0000"/>
</g>
<g clip-path="url(#clip184_52_254)">
<path d="M548.029 155.867H546.85C546.525 155.867 546.261 156.401 546.261 157.059V161.112C546.261 161.77 546.525 162.303 546.85 162.303H548.029C548.354 162.303 548.618 161.77 548.618 161.112V157.059C548.618 156.401 548.354 155.867 548.029 155.867Z" fill="#FF0000"/>
</g>
<g clip-path="url(#clip185_52_254)">
<path d="M550.857 145.225H549.678C549.353 145.225 549.089 145.759 549.089 146.417V150.469C549.089 151.128 549.353 151.661 549.678 151.661H550.857C551.182 151.661 551.446 151.128 551.446 150.469V146.417C551.446 145.759 551.182 145.225 550.857 145.225Z" fill="#00D564"/>
</g>
<g clip-path="url(#clip186_52_254)">
<path d="M553.685 134.583H552.506C552.181 134.583 551.917 135.117 551.917 135.775V139.828C551.917 140.486 552.181 141.02 552.506 141.02H553.685C554.01 141.02 554.274 140.486 554.274 139.828V135.775C554.274 135.117 554.01 134.583 553.685 134.583Z" fill="#00D564"/>
</g>
<g clip-path="url(#clip187_52_254)">
<path d="M556.513 145.225H555.334C555.009 145.225 554.745 145.759 554.745 146.417V150.469C554.745 151.128 555.009 151.661 555.334 151.661H556.513C556.838 151.661 557.102 151.128 557.102 150.469V146.417C557.102 145.759 556.838 145.225 556.513 145.225Z" fill="#FF0000"/>
</g>
<g clip-path="url(#clip188_52_254)">
<path d="M559.341 134.583H558.162C557.837 134.583 557.573 135.117 557.573 135.775V139.828C557.573 140.486 557.837 141.02 558.162 141.02H559.341C559.666 141.02 559.93 140.486 559.93 139.828V135.775C559.93 135.117 559.666 134.583 559.341 134.583Z" fill="#00D564"/>
</g>
<g clip-path="url(#clip189_52_254)">
<path d="M562.169 123.941H560.99C560.665 123.941 560.401 124.475 560.401 125.133V129.186C560.401 129.844 560.665 130.377 560.99 130.377H562.169C562.494 130.377 562.758 129.844 562.758 129.186V125.133C562.758 124.475 562.494 123.941 562.169 123.941Z" fill="#00D564"/>
</g>
<g clip-path="url(#clip190_52_254)">
<path d="M564.997 113.299H563.818C563.493 113.299 563.229 113.833 563.229 114.491V118.544C563.229 119.202 563.493 119.736 563.818 119.736H564.997C565.323 119.736 565.586 119.202 565.586 118.544V114.491C565.586 113.833 565.323 113.299 564.997 113.299Z" fill="#00D564"/>
</g>
<g clip-path="url(#clip191_52_254)">
<path d="M567.825 102.657H566.646C566.321 102.657 566.057 103.191 566.057 103.849V107.902C566.057 108.56 566.321 109.094 566.646 109.094H567.825C568.151 109.094 568.414 108.56 568.414 107.902V103.849C568.414 103.191 568.151 102.657 567.825 102.657Z" fill="#00D564"/>
</g>
<g clip-path="url(#clip192_52_254)">
<path d="M570.653 92.0149H569.474C569.149 92.0149 568.885 92.5485 568.885 93.2068V97.2593C568.885 97.9176 569.149 98.4512 569.474 98.4512H570.653C570.979 98.4512 571.242 97.9176 571.242 97.2593V93.2068C571.242 92.5485 570.979 92.0149 570.653 92.0149Z" fill="#00D564"/>
</g>
<g clip-path="url(#clip193_52_254)">
<path d="M573.481 102.657H572.302C571.977 102.657 571.713 103.191 571.713 103.849V107.902C571.713 108.56 571.977 109.094 572.302 109.094H573.481C573.807 109.094 574.071 108.56 574.071 107.902V103.849C574.071 103.191 573.807 102.657 573.481 102.657Z" fill="#FF0000"/>
</g>
<g clip-path="url(#clip194_52_254)">
<path d="M576.309 92.0149H575.13C574.805 92.0149 574.541 92.5485 574.541 93.2068V97.2593C574.541 97.9176 574.805 98.4512 575.13 98.4512H576.309C576.635 98.4512 576.899 97.9176 576.899 97.2593V93.2068C576.899 92.5485 576.635 92.0149 576.309 92.0149Z" fill="#00D564"/>
</g>
<g clip-path="url(#clip195_52_254)">
<path d="M579.137 102.657H577.959C577.633 102.657 577.369 103.191 577.369 103.849V107.902C577.369 108.56 577.633 109.094 577.959 109.094H579.137C579.463 109.094 579.727 108.56 579.727 107.902V103.849C579.727 103.191 579.463 102.657 579.137 102.657Z" fill="#FF0000"/>
</g>
<g clip-path="url(#clip196_52_254)">
<path d="M581.965 92.0149H580.787C580.461 92.0149 580.197 92.5485 580.197 93.2068V97.2593C580.197 97.9176 580.461 98.4512 580.787 98.4512H581.965C582.291 98.4512 582.555 97.9176 582.555 97.2593V93.2068C582.555 92.5485 582.291 92.0149 581.965 92.0149Z" fill="#00D564"/>
</g>
<g opacity="0.2">
<path d="M24.8 250H583.8V248H24.8V250Z" fill="#E5E7EB" mask="url(#path-201-inside-1_52_254)"/>
</g>
<defs>
<clipPath id="clip0_52_254">
<rect width="2.94682" height="8.04537" fill="white" transform="translate(25.8 240.955)"/>
</clipPath>
<clipPath id="clip1_52_254">
<rect width="2.94682" height="8.04537" fill="white" transform="translate(28.6281 230.313)"/>
</clipPath>
<clipPath id="clip2_52_254">
<rect width="2.94682" height="8.04537" fill="white" transform="translate(31.4561 219.67)"/>
</clipPath>
<clipPath id="clip3_52_254">
<rect width="2.94682" height="8.04537" fill="white" transform="translate(34.2842 209.028)"/>
</clipPath>
<clipPath id="clip4_52_254">
<rect width="2.94682" height="8.04537" fill="white" transform="translate(37.1122 198.387)"/>
</clipPath>
<clipPath id="clip5_52_254">
<rect width="2.94682" height="8.04537" fill="white" transform="translate(39.9403 209.028)"/>
</clipPath>
<clipPath id="clip6_52_254">
<rect width="2.94682" height="8.04537" fill="white" transform="translate(42.7681 198.387)"/>
</clipPath>
<clipPath id="clip7_52_254">
<rect width="2.94682" height="8.04537" fill="white" transform="translate(45.5964 187.745)"/>
</clipPath>
<clipPath id="clip8_52_254">
<rect width="2.94682" height="8.04537" fill="white" transform="translate(48.4244 177.102)"/>
</clipPath>
<clipPath id="clip9_52_254">
<rect width="2.94682" height="8.04537" fill="white" transform="translate(51.2524 166.46)"/>
</clipPath>
<clipPath id="clip10_52_254">
<rect width="2.94682" height="8.04537" fill="white" transform="translate(54.0804 177.102)"/>
</clipPath>
<clipPath id="clip11_52_254">
<rect width="2.94682" height="8.04537" fill="white" transform="translate(56.9086 187.745)"/>
</clipPath>
<clipPath id="clip12_52_254">
<rect width="2.94682" height="8.04537" fill="white" transform="translate(59.7366 198.387)"/>
</clipPath>
<clipPath id="clip13_52_254">
<rect width="2.94682" height="8.04537" fill="white" transform="translate(62.5646 209.028)"/>
</clipPath>
<clipPath id="clip14_52_254">
<rect width="2.94682" height="8.04537" fill="white" transform="translate(65.3926 219.67)"/>
</clipPath>
<clipPath id="clip15_52_254">
<rect width="2.94682" height="8.04537" fill="white" transform="translate(68.2207 209.028)"/>
</clipPath>
<clipPath id="clip16_52_254">
<rect width="2.94682" height="8.04537" fill="white" transform="translate(71.0488 198.387)"/>
</clipPath>
<clipPath id="clip17_52_254">
<rect width="2.94682" height="8.04537" fill="white" transform="translate(73.8768 187.745)"/>
</clipPath>
<clipPath id="clip18_52_254">
<rect width="2.94682" height="8.04537" fill="white" transform="translate(76.7048 198.387)"/>
</clipPath>
<clipPath id="clip19_52_254">
<rect width="2.94682" height="8.04537" fill="white" transform="translate(79.5328 187.745)"/>
</clipPath>
<clipPath id="clip20_52_254">
<rect width="2.94682" height="8.04537" fill="white" transform="translate(82.3609 177.102)"/>
</clipPath>
<clipPath id="clip21_52_254">
<rect width="2.94682" height="8.04537" fill="white" transform="translate(85.1888 166.46)"/>
</clipPath>
<clipPath id="clip22_52_254">
<rect width="2.94682" height="8.04537" fill="white" transform="translate(88.017 155.818)"/>
</clipPath>
<clipPath id="clip23_52_254">
<rect width="2.94682" height="8.04537" fill="white" transform="translate(90.845 145.176)"/>
</clipPath>
<clipPath id="clip24_52_254">
<rect width="2.94682" height="8.04537" fill="white" transform="translate(93.673 134.534)"/>
</clipPath>
<clipPath id="clip25_52_254">
<rect width="2.94682" height="8.04537" fill="white" transform="translate(96.501 145.176)"/>
</clipPath>
<clipPath id="clip26_52_254">
<rect width="2.94682" height="8.04537" fill="white" transform="translate(99.3291 134.534)"/>
</clipPath>
<clipPath id="clip27_52_254">
<rect width="2.94682" height="8.04537" fill="white" transform="translate(102.157 145.176)"/>
</clipPath>
<clipPath id="clip28_52_254">
<rect width="2.94682" height="8.04537" fill="white" transform="translate(104.985 155.818)"/>
</clipPath>
<clipPath id="clip29_52_254">
<rect width="2.94682" height="8.04537" fill="white" transform="translate(107.813 145.176)"/>
</clipPath>
<clipPath id="clip30_52_254">
<rect width="2.94682" height="8.04537" fill="white" transform="translate(110.641 155.818)"/>
</clipPath>
<clipPath id="clip31_52_254">
<rect width="2.94682" height="8.04537" fill="white" transform="translate(113.469 145.176)"/>
</clipPath>
<clipPath id="clip32_52_254">
<rect width="2.94682" height="8.04537" fill="white" transform="translate(116.297 134.534)"/>
</clipPath>
<clipPath id="clip33_52_254">
<rect width="2.94682" height="8.04537" fill="white" transform="translate(119.125 145.176)"/>
</clipPath>
<clipPath id="clip34_52_254">
<rect width="2.94682" height="8.04537" fill="white" transform="translate(121.953 134.534)"/>
</clipPath>
<clipPath id="clip35_52_254">
<rect width="2.94682" height="8.04537" fill="white" transform="translate(124.781 145.176)"/>
</clipPath>
<clipPath id="clip36_52_254">
<rect width="2.94682" height="8.04537" fill="white" transform="translate(127.609 155.818)"/>
</clipPath>
<clipPath id="clip37_52_254">
<rect width="2.94682" height="8.04537" fill="white" transform="translate(130.438 166.46)"/>
</clipPath>
<clipPath id="clip38_52_254">
<rect width="2.94682" height="8.04537" fill="white" transform="translate(133.266 177.102)"/>
</clipPath>
<clipPath id="clip39_52_254">
<rect width="2.94682" height="8.04537" fill="white" transform="translate(136.094 187.745)"/>
</clipPath>
<clipPath id="clip40_52_254">
<rect width="2.94682" height="8.04537" fill="white" transform="translate(138.922 177.102)"/>
</clipPath>
<clipPath id="clip41_52_254">
<rect width="2.94682" height="8.04537" fill="white" transform="translate(141.75 166.46)"/>
</clipPath>
<clipPath id="clip42_52_254">
<rect width="2.94682" height="8.04537" fill="white" transform="translate(144.578 177.102)"/>
</clipPath>
<clipPath id="clip43_52_254">
<rect width="2.94682" height="8.04537" fill="white" transform="translate(147.406 187.745)"/>
</clipPath>
<clipPath id="clip44_52_254">
<rect width="2.94682" height="8.04537" fill="white" transform="translate(150.234 177.102)"/>
</clipPath>
<clipPath id="clip45_52_254">
<rect width="2.94682" height="8.04537" fill="white" transform="translate(153.062 187.745)"/>
</clipPath>
<clipPath id="clip46_52_254">
<rect width="2.94682" height="8.04537" fill="white" transform="translate(155.89 177.102)"/>
</clipPath>
<clipPath id="clip47_52_254">
<rect width="2.94682" height="8.04537" fill="white" transform="translate(158.718 187.745)"/>
</clipPath>
<clipPath id="clip48_52_254">
<rect width="2.94682" height="8.04537" fill="white" transform="translate(161.546 177.102)"/>
</clipPath>
<clipPath id="clip49_52_254">
<rect width="2.94682" height="8.04537" fill="white" transform="translate(164.374 187.745)"/>
</clipPath>
<clipPath id="clip50_52_254">
<rect width="2.94682" height="8.04537" fill="white" transform="translate(167.202 177.102)"/>
</clipPath>
<clipPath id="clip51_52_254">
<rect width="2.94682" height="8.04537" fill="white" transform="translate(170.03 166.46)"/>
</clipPath>
<clipPath id="clip52_52_254">
<rect width="2.94682" height="8.04537" fill="white" transform="translate(172.858 177.102)"/>
</clipPath>
<clipPath id="clip53_52_254">
<rect width="2.94682" height="8.04537" fill="white" transform="translate(175.686 187.745)"/>
</clipPath>
<clipPath id="clip54_52_254">
<rect width="2.94682" height="8.04537" fill="white" transform="translate(178.514 177.102)"/>
</clipPath>
<clipPath id="clip55_52_254">
<rect width="2.94682" height="8.04537" fill="white" transform="translate(181.342 166.46)"/>
</clipPath>
<clipPath id="clip56_52_254">
<rect width="2.94682" height="8.04537" fill="white" transform="translate(184.17 177.102)"/>
</clipPath>
<clipPath id="clip57_52_254">
<rect width="2.94682" height="8.04537" fill="white" transform="translate(186.998 187.745)"/>
</clipPath>
<clipPath id="clip58_52_254">
<rect width="2.94682" height="8.04537" fill="white" transform="translate(189.826 177.102)"/>
</clipPath>
<clipPath id="clip59_52_254">
<rect width="2.94682" height="8.04537" fill="white" transform="translate(192.654 166.46)"/>
</clipPath>
<clipPath id="clip60_52_254">
<rect width="2.94682" height="8.04537" fill="white" transform="translate(195.482 155.818)"/>
</clipPath>
<clipPath id="clip61_52_254">
<rect width="2.94682" height="8.04537" fill="white" transform="translate(198.311 166.46)"/>
</clipPath>
<clipPath id="clip62_52_254">
<rect width="2.94682" height="8.04537" fill="white" transform="translate(201.139 177.102)"/>
</clipPath>
<clipPath id="clip63_52_254">
<rect width="2.94682" height="8.04537" fill="white" transform="translate(203.967 166.46)"/>
</clipPath>
<clipPath id="clip64_52_254">
<rect width="2.94682" height="8.04537" fill="white" transform="translate(206.795 177.102)"/>
</clipPath>
<clipPath id="clip65_52_254">
<rect width="2.94682" height="8.04537" fill="white" transform="translate(209.623 187.745)"/>
</clipPath>
<clipPath id="clip66_52_254">
<rect width="2.94682" height="8.04537" fill="white" transform="translate(212.451 198.387)"/>
</clipPath>
<clipPath id="clip67_52_254">
<rect width="2.94682" height="8.04537" fill="white" transform="translate(215.279 209.028)"/>
</clipPath>
<clipPath id="clip68_52_254">
<rect width="2.94682" height="8.04537" fill="white" transform="translate(218.107 198.387)"/>
</clipPath>
<clipPath id="clip69_52_254">
<rect width="2.94682" height="8.04537" fill="white" transform="translate(220.935 209.028)"/>
</clipPath>
<clipPath id="clip70_52_254">
<rect width="2.94682" height="8.04537" fill="white" transform="translate(223.763 219.67)"/>
</clipPath>
<clipPath id="clip71_52_254">
<rect width="2.94682" height="8.04537" fill="white" transform="translate(226.591 230.313)"/>
</clipPath>
<clipPath id="clip72_52_254">
<rect width="2.94682" height="8.04537" fill="white" transform="translate(229.419 240.955)"/>
</clipPath>
<clipPath id="clip73_52_254">
<rect width="2.94682" height="8.04537" fill="white" transform="translate(232.247 230.313)"/>
</clipPath>
<clipPath id="clip74_52_254">
<rect width="2.94682" height="8.04537" fill="white" transform="translate(235.075 240.955)"/>
</clipPath>
<clipPath id="clip75_52_254">
<rect width="2.94682" height="8.04537" fill="white" transform="translate(237.903 230.313)"/>
</clipPath>
<clipPath id="clip76_52_254">
<rect width="2.94682" height="8.04537" fill="white" transform="translate(240.731 219.67)"/>
</clipPath>
<clipPath id="clip77_52_254">
<rect width="2.94682" height="8.04537" fill="white" transform="translate(243.559 230.313)"/>
</clipPath>
<clipPath id="clip78_52_254">
<rect width="2.94682" height="8.04537" fill="white" transform="translate(246.387 219.67)"/>
</clipPath>
<clipPath id="clip79_52_254">
<rect width="2.94682" height="8.04537" fill="white" transform="translate(249.215 230.313)"/>
</clipPath>
<clipPath id="clip80_52_254">
<rect width="2.94682" height="8.04537" fill="white" transform="translate(252.043 219.67)"/>
</clipPath>
<clipPath id="clip81_52_254">
<rect width="2.94682" height="8.04537" fill="white" transform="translate(254.871 230.313)"/>
</clipPath>
<clipPath id="clip82_52_254">
<rect width="2.94682" height="8.04537" fill="white" transform="translate(257.699 219.67)"/>
</clipPath>
<clipPath id="clip83_52_254">
<rect width="2.94682" height="8.04537" fill="white" transform="translate(260.527 230.313)"/>
</clipPath>
<clipPath id="clip84_52_254">
<rect width="2.94682" height="8.04537" fill="white" transform="translate(263.355 240.955)"/>
</clipPath>
<clipPath id="clip85_52_254">
<rect width="2.94682" height="8.04537" fill="white" transform="translate(266.184 230.313)"/>
</clipPath>
<clipPath id="clip86_52_254">
<rect width="2.94682" height="8.04537" fill="white" transform="translate(269.012 219.67)"/>
</clipPath>
<clipPath id="clip87_52_254">
<rect width="2.94682" height="8.04537" fill="white" transform="translate(271.84 230.313)"/>
</clipPath>
<clipPath id="clip88_52_254">
<rect width="2.94682" height="8.04537" fill="white" transform="translate(274.668 219.67)"/>
</clipPath>
<clipPath id="clip89_52_254">
<rect width="2.94682" height="8.04537" fill="white" transform="translate(277.496 209.028)"/>
</clipPath>
<clipPath id="clip90_52_254">
<rect width="2.94682" height="8.04537" fill="white" transform="translate(280.324 198.387)"/>
</clipPath>
<clipPath id="clip91_52_254">
<rect width="2.94682" height="8.04537" fill="white" transform="translate(283.152 187.745)"/>
</clipPath>
<clipPath id="clip92_52_254">
<rect width="2.94682" height="8.04537" fill="white" transform="translate(285.98 177.102)"/>
</clipPath>
<clipPath id="clip93_52_254">
<rect width="2.94682" height="8.04537" fill="white" transform="translate(288.808 187.745)"/>
</clipPath>
<clipPath id="clip94_52_254">
<rect width="2.94682" height="8.04537" fill="white" transform="translate(291.636 177.102)"/>
</clipPath>
<clipPath id="clip95_52_254">
<rect width="2.94682" height="8.04537" fill="white" transform="translate(294.464 187.745)"/>
</clipPath>
<clipPath id="clip96_52_254">
<rect width="2.94682" height="8.04537" fill="white" transform="translate(297.292 177.102)"/>
</clipPath>
<clipPath id="clip97_52_254">
<rect width="2.94682" height="8.04537" fill="white" transform="translate(300.12 187.745)"/>
</clipPath>
<clipPath id="clip98_52_254">
<rect width="2.94682" height="8.04537" fill="white" transform="translate(302.948 177.102)"/>
</clipPath>
<clipPath id="clip99_52_254">
<rect width="2.94682" height="8.04537" fill="white" transform="translate(305.776 166.46)"/>
</clipPath>
<clipPath id="clip100_52_254">
<rect width="2.94682" height="8.04537" fill="white" transform="translate(308.705 155.42)"/>
</clipPath>
<clipPath id="clip101_52_254">
<rect width="2.94682" height="8.04537" fill="white" transform="translate(311.533 144.778)"/>
</clipPath>
<clipPath id="clip102_52_254">
<rect width="2.94682" height="8.04537" fill="white" transform="translate(314.361 134.136)"/>
</clipPath>
<clipPath id="clip103_52_254">
<rect width="2.94682" height="8.04537" fill="white" transform="translate(317.189 123.494)"/>
</clipPath>
<clipPath id="clip104_52_254">
<rect width="2.94682" height="8.04537" fill="white" transform="translate(320.017 112.852)"/>
</clipPath>
<clipPath id="clip105_52_254">
<rect width="2.94682" height="8.04537" fill="white" transform="translate(322.846 123.494)"/>
</clipPath>
<clipPath id="clip106_52_254">
<rect width="2.94682" height="8.04537" fill="white" transform="translate(325.673 112.852)"/>
</clipPath>
<clipPath id="clip107_52_254">
<rect width="2.94682" height="8.04537" fill="white" transform="translate(328.502 102.21)"/>
</clipPath>
<clipPath id="clip108_52_254">
<rect width="2.94682" height="8.04537" fill="white" transform="translate(331.33 91.5679)"/>
</clipPath>
<clipPath id="clip109_52_254">
<rect width="2.94682" height="8.04537" fill="white" transform="translate(334.158 80.9258)"/>
</clipPath>
<clipPath id="clip110_52_254">
<rect width="2.94682" height="8.04537" fill="white" transform="translate(336.986 91.5679)"/>
</clipPath>
<clipPath id="clip111_52_254">
<rect width="2.94682" height="8.04537" fill="white" transform="translate(339.814 102.21)"/>
</clipPath>
<clipPath id="clip112_52_254">
<rect width="2.94682" height="8.04537" fill="white" transform="translate(342.642 112.852)"/>
</clipPath>
<clipPath id="clip113_52_254">
<rect width="2.94682" height="8.04537" fill="white" transform="translate(345.47 123.494)"/>
</clipPath>
<clipPath id="clip114_52_254">
<rect width="2.94682" height="8.04537" fill="white" transform="translate(348.298 134.136)"/>
</clipPath>
<clipPath id="clip115_52_254">
<rect width="2.94682" height="8.04537" fill="white" transform="translate(351.126 123.494)"/>
</clipPath>
<clipPath id="clip116_52_254">
<rect width="2.94682" height="8.04537" fill="white" transform="translate(353.954 112.852)"/>
</clipPath>
<clipPath id="clip117_52_254">
<rect width="2.94682" height="8.04537" fill="white" transform="translate(356.782 102.21)"/>
</clipPath>
<clipPath id="clip118_52_254">
<rect width="2.94682" height="8.04537" fill="white" transform="translate(359.61 112.852)"/>
</clipPath>
<clipPath id="clip119_52_254">
<rect width="2.94682" height="8.04537" fill="white" transform="translate(362.438 102.21)"/>
</clipPath>
<clipPath id="clip120_52_254">
<rect width="2.94682" height="8.04537" fill="white" transform="translate(365.266 91.5679)"/>
</clipPath>
<clipPath id="clip121_52_254">
<rect width="2.94682" height="8.04537" fill="white" transform="translate(368.094 80.9258)"/>
</clipPath>
<clipPath id="clip122_52_254">
<rect width="2.94682" height="8.04537" fill="white" transform="translate(370.922 70.2839)"/>
</clipPath>
<clipPath id="clip123_52_254">
<rect width="2.94682" height="8.04537" fill="white" transform="translate(373.75 59.6418)"/>
</clipPath>
<clipPath id="clip124_52_254">
<rect width="2.94682" height="8.04537" fill="white" transform="translate(376.578 49)"/>
</clipPath>
<clipPath id="clip125_52_254">
<rect width="2.94682" height="8.04537" fill="white" transform="translate(379.406 59.6418)"/>
</clipPath>
<clipPath id="clip126_52_254">
<rect width="2.94682" height="8.04537" fill="white" transform="translate(382.234 49)"/>
</clipPath>
<clipPath id="clip127_52_254">
<rect width="2.94682" height="8.04537" fill="white" transform="translate(385.062 59.6418)"/>
</clipPath>
<clipPath id="clip128_52_254">
<rect width="2.94682" height="8.04537" fill="white" transform="translate(387.89 70.2839)"/>
</clipPath>
<clipPath id="clip129_52_254">
<rect width="2.94682" height="8.04537" fill="white" transform="translate(390.719 59.6418)"/>
</clipPath>
<clipPath id="clip130_52_254">
<rect width="2.94682" height="8.04537" fill="white" transform="translate(393.547 70.2839)"/>
</clipPath>
<clipPath id="clip131_52_254">
<rect width="2.94682" height="8.04537" fill="white" transform="translate(396.375 59.6418)"/>
</clipPath>
<clipPath id="clip132_52_254">
<rect width="2.94682" height="8.04537" fill="white" transform="translate(399.203 49)"/>
</clipPath>
<clipPath id="clip133_52_254">
<rect width="2.94682" height="8.04537" fill="white" transform="translate(402.031 59.6418)"/>
</clipPath>
<clipPath id="clip134_52_254">
<rect width="2.94682" height="8.04537" fill="white" transform="translate(404.859 49)"/>
</clipPath>
<clipPath id="clip135_52_254">
<rect width="2.94682" height="8.04537" fill="white" transform="translate(407.687 59.6418)"/>
</clipPath>
<clipPath id="clip136_52_254">
<rect width="2.94682" height="8.04537" fill="white" transform="translate(410.515 70.2839)"/>
</clipPath>
<clipPath id="clip137_52_254">
<rect width="2.94682" height="8.04537" fill="white" transform="translate(413.343 80.9258)"/>
</clipPath>
<clipPath id="clip138_52_254">
<rect width="2.94682" height="8.04537" fill="white" transform="translate(416.171 91.5679)"/>
</clipPath>
<clipPath id="clip139_52_254">
<rect width="2.94682" height="8.04537" fill="white" transform="translate(418.999 102.21)"/>
</clipPath>
<clipPath id="clip140_52_254">
<rect width="2.94682" height="8.04537" fill="white" transform="translate(421.827 91.5679)"/>
</clipPath>
<clipPath id="clip141_52_254">
<rect width="2.94682" height="8.04537" fill="white" transform="translate(424.655 80.9258)"/>
</clipPath>
<clipPath id="clip142_52_254">
<rect width="2.94682" height="8.04537" fill="white" transform="translate(427.483 91.5679)"/>
</clipPath>
<clipPath id="clip143_52_254">
<rect width="2.94682" height="8.04537" fill="white" transform="translate(430.311 102.21)"/>
</clipPath>
<clipPath id="clip144_52_254">
<rect width="2.94682" height="8.04537" fill="white" transform="translate(433.139 91.5679)"/>
</clipPath>
<clipPath id="clip145_52_254">
<rect width="2.94682" height="8.04537" fill="white" transform="translate(435.967 102.21)"/>
</clipPath>
<clipPath id="clip146_52_254">
<rect width="2.94682" height="8.04537" fill="white" transform="translate(438.795 91.5679)"/>
</clipPath>
<clipPath id="clip147_52_254">
<rect width="2.94682" height="8.04537" fill="white" transform="translate(441.623 102.21)"/>
</clipPath>
<clipPath id="clip148_52_254">
<rect width="2.94682" height="8.04537" fill="white" transform="translate(444.451 91.5679)"/>
</clipPath>
<clipPath id="clip149_52_254">
<rect width="2.94682" height="8.04537" fill="white" transform="translate(447.279 102.21)"/>
</clipPath>
<clipPath id="clip150_52_254">
<rect width="2.94682" height="8.04537" fill="white" transform="translate(450.107 91.5679)"/>
</clipPath>
<clipPath id="clip151_52_254">
<rect width="2.94682" height="8.04537" fill="white" transform="translate(452.935 80.9258)"/>
</clipPath>
<clipPath id="clip152_52_254">
<rect width="2.94682" height="8.04537" fill="white" transform="translate(455.763 91.5679)"/>
</clipPath>
<clipPath id="clip153_52_254">
<rect width="2.94682" height="8.04537" fill="white" transform="translate(458.591 102.21)"/>
</clipPath>
<clipPath id="clip154_52_254">
<rect width="2.94682" height="8.04537" fill="white" transform="translate(461.419 91.5679)"/>
</clipPath>
<clipPath id="clip155_52_254">
<rect width="2.94682" height="8.04537" fill="white" transform="translate(464.248 80.9258)"/>
</clipPath>
<clipPath id="clip156_52_254">
<rect width="2.94682" height="8.04537" fill="white" transform="translate(467.076 91.5679)"/>
</clipPath>
<clipPath id="clip157_52_254">
<rect width="2.94682" height="8.04537" fill="white" transform="translate(469.904 102.21)"/>
</clipPath>
<clipPath id="clip158_52_254">
<rect width="2.94682" height="8.04537" fill="white" transform="translate(472.732 91.5679)"/>
</clipPath>
<clipPath id="clip159_52_254">
<rect width="2.94682" height="8.04537" fill="white" transform="translate(475.56 80.9258)"/>
</clipPath>
<clipPath id="clip160_52_254">
<rect width="2.94682" height="8.04537" fill="white" transform="translate(478.388 70.2839)"/>
</clipPath>
<clipPath id="clip161_52_254">
<rect width="2.94682" height="8.04537" fill="white" transform="translate(481.216 80.9258)"/>
</clipPath>
<clipPath id="clip162_52_254">
<rect width="2.94682" height="8.04537" fill="white" transform="translate(484.044 91.5679)"/>
</clipPath>
<clipPath id="clip163_52_254">
<rect width="2.94682" height="8.04537" fill="white" transform="translate(486.872 80.9258)"/>
</clipPath>
<clipPath id="clip164_52_254">
<rect width="2.94682" height="8.04537" fill="white" transform="translate(489.7 91.5679)"/>
</clipPath>
<clipPath id="clip165_52_254">
<rect width="2.94682" height="8.04537" fill="white" transform="translate(492.528 102.21)"/>
</clipPath>
<clipPath id="clip166_52_254">
<rect width="2.94682" height="8.04537" fill="white" transform="translate(495.356 112.852)"/>
</clipPath>
<clipPath id="clip167_52_254">
<rect width="2.94682" height="8.04537" fill="white" transform="translate(498.184 123.494)"/>
</clipPath>
<clipPath id="clip168_52_254">
<rect width="2.94682" height="8.04537" fill="white" transform="translate(501.012 112.852)"/>
</clipPath>
<clipPath id="clip169_52_254">
<rect width="2.94682" height="8.04537" fill="white" transform="translate(503.84 123.494)"/>
</clipPath>
<clipPath id="clip170_52_254">
<rect width="2.94682" height="8.04537" fill="white" transform="translate(506.668 134.136)"/>
</clipPath>
<clipPath id="clip171_52_254">
<rect width="2.94682" height="8.04537" fill="white" transform="translate(509.496 144.778)"/>
</clipPath>
<clipPath id="clip172_52_254">
<rect width="2.94682" height="8.04537" fill="white" transform="translate(512.324 155.42)"/>
</clipPath>
<clipPath id="clip173_52_254">
<rect width="2.94682" height="8.04537" fill="white" transform="translate(515.152 144.778)"/>
</clipPath>
<clipPath id="clip174_52_254">
<rect width="2.94682" height="8.04537" fill="white" transform="translate(517.98 155.42)"/>
</clipPath>
<clipPath id="clip175_52_254">
<rect width="2.94682" height="8.04537" fill="white" transform="translate(520.808 144.778)"/>
</clipPath>
<clipPath id="clip176_52_254">
<rect width="2.94682" height="8.04537" fill="white" transform="translate(523.636 134.136)"/>
</clipPath>
<clipPath id="clip177_52_254">
<rect width="2.94682" height="8.04537" fill="white" transform="translate(526.464 144.778)"/>
</clipPath>
<clipPath id="clip178_52_254">
<rect width="2.94682" height="8.04537" fill="white" transform="translate(529.292 134.136)"/>
</clipPath>
<clipPath id="clip179_52_254">
<rect width="2.94682" height="8.04537" fill="white" transform="translate(532.12 144.778)"/>
</clipPath>
<clipPath id="clip180_52_254">
<rect width="2.94682" height="8.04537" fill="white" transform="translate(534.948 134.136)"/>
</clipPath>
<clipPath id="clip181_52_254">
<rect width="2.94682" height="8.04537" fill="white" transform="translate(537.777 144.778)"/>
</clipPath>
<clipPath id="clip182_52_254">
<rect width="2.94682" height="8.04537" fill="white" transform="translate(540.605 134.136)"/>
</clipPath>
<clipPath id="clip183_52_254">
<rect width="2.94682" height="8.04537" fill="white" transform="translate(543.433 144.778)"/>
</clipPath>
<clipPath id="clip184_52_254">
<rect width="2.94682" height="8.04537" fill="white" transform="translate(546.261 155.42)"/>
</clipPath>
<clipPath id="clip185_52_254">
<rect width="2.94682" height="8.04537" fill="white" transform="translate(549.089 144.778)"/>
</clipPath>
<clipPath id="clip186_52_254">
<rect width="2.94682" height="8.04537" fill="white" transform="translate(551.917 134.136)"/>
</clipPath>
<clipPath id="clip187_52_254">
<rect width="2.94682" height="8.04537" fill="white" transform="translate(554.745 144.778)"/>
</clipPath>
<clipPath id="clip188_52_254">
<rect width="2.94682" height="8.04537" fill="white" transform="translate(557.573 134.136)"/>
</clipPath>
<clipPath id="clip189_52_254">
<rect width="2.94682" height="8.04537" fill="white" transform="translate(560.401 123.494)"/>
</clipPath>
<clipPath id="clip190_52_254">
<rect width="2.94682" height="8.04537" fill="white" transform="translate(563.229 112.852)"/>
</clipPath>
<clipPath id="clip191_52_254">
<rect width="2.94682" height="8.04537" fill="white" transform="translate(566.057 102.21)"/>
</clipPath>
<clipPath id="clip192_52_254">
<rect width="2.94682" height="8.04537" fill="white" transform="translate(568.885 91.5679)"/>
</clipPath>
<clipPath id="clip193_52_254">
<rect width="2.94682" height="8.04537" fill="white" transform="translate(571.713 102.21)"/>
</clipPath>
<clipPath id="clip194_52_254">
<rect width="2.94682" height="8.04537" fill="white" transform="translate(574.541 91.5679)"/>
</clipPath>
<clipPath id="clip195_52_254">
<rect width="2.94682" height="8.04537" fill="white" transform="translate(577.369 102.21)"/>
</clipPath>
<clipPath id="clip196_52_254">
<rect width="2.94682" height="8.04537" fill="white" transform="translate(580.197 91.5679)"/>
</clipPath>
</defs>
</svg>
