<svg width="314" height="211" viewBox="0 0 314 211" fill="none" xmlns="http://www.w3.org/2000/svg">
<g clip-path="url(#clip0_253_2282)">
<path d="M4.74604 144.039H1.58201C0.708292 144.039 0 144.705 0 145.528V150.591C0 151.413 0.708292 152.08 1.58201 152.08H4.74604C5.61976 152.08 6.32805 151.413 6.32805 150.591V145.528C6.32805 144.705 5.61976 144.039 4.74604 144.039Z" fill="#FF0000"/>
</g>
<g clip-path="url(#clip1_253_2282)">
<path d="M22.7512 172.735H19.5872C18.7135 172.735 18.0052 173.402 18.0052 174.224V179.287C18.0052 180.109 18.7135 180.776 19.5872 180.776H22.7512C23.625 180.776 24.3332 180.109 24.3332 179.287V174.224C24.3332 173.402 23.625 172.735 22.7512 172.735Z" fill="#FF0000"/>
</g>
<g clip-path="url(#clip2_253_2282)">
<path d="M40.7565 201.431H37.5925C36.7188 201.431 36.0105 202.098 36.0105 202.92V207.983C36.0105 208.806 36.7188 209.472 37.5925 209.472H40.7565C41.6303 209.472 42.3386 208.806 42.3386 207.983V202.92C42.3386 202.098 41.6303 201.431 40.7565 201.431Z" fill="#FF0000"/>
</g>
<g clip-path="url(#clip3_253_2282)">
<path d="M58.7619 172.735H55.5978C54.7241 172.735 54.0158 173.402 54.0158 174.224V179.287C54.0158 180.109 54.7241 180.776 55.5978 180.776H58.7619C59.6356 180.776 60.3439 180.109 60.3439 179.287V174.224C60.3439 173.402 59.6356 172.735 58.7619 172.735Z" fill="#00D564"/>
</g>
<g clip-path="url(#clip4_253_2282)">
<path d="M76.767 144.039H73.603C72.7293 144.039 72.021 144.705 72.021 145.528V150.591C72.021 151.413 72.7293 152.08 73.603 152.08H76.767C77.6408 152.08 78.3491 151.413 78.3491 150.591V145.528C78.3491 144.705 77.6408 144.039 76.767 144.039Z" fill="#00D564"/>
</g>
<g clip-path="url(#clip5_253_2282)">
<path d="M94.7725 172.735H91.6085C90.7347 172.735 90.0264 173.402 90.0264 174.224V179.287C90.0264 180.109 90.7347 180.776 91.6085 180.776H94.7725C95.6462 180.776 96.3545 180.109 96.3545 179.287V174.224C96.3545 173.402 95.6462 172.735 94.7725 172.735Z" fill="#FF0000"/>
</g>
<g clip-path="url(#clip6_253_2282)">
<path d="M112.778 144.039H109.614C108.74 144.039 108.032 144.705 108.032 145.528V150.591C108.032 151.413 108.74 152.08 109.614 152.08H112.778C113.651 152.08 114.36 151.413 114.36 150.591V145.528C114.36 144.705 113.651 144.039 112.778 144.039Z" fill="#00D564"/>
</g>
<g clip-path="url(#clip7_253_2282)">
<path d="M130.783 115.343H127.619C126.745 115.343 126.037 116.01 126.037 116.832V121.895C126.037 122.718 126.745 123.384 127.619 123.384H130.783C131.657 123.384 132.365 122.718 132.365 121.895V116.832C132.365 116.01 131.657 115.343 130.783 115.343Z" fill="#00D564"/>
</g>
<g clip-path="url(#clip8_253_2282)">
<path d="M148.788 86.6468H145.624C144.751 86.6468 144.042 87.3135 144.042 88.1359V93.1988C144.042 94.0212 144.751 94.6879 145.624 94.6879H148.788C149.662 94.6879 150.37 94.0212 150.37 93.1988V88.1359C150.37 87.3135 149.662 86.6468 148.788 86.6468Z" fill="#00D564"/>
</g>
<g clip-path="url(#clip9_253_2282)">
<path d="M166.793 57.9504H163.629C162.756 57.9504 162.047 58.6171 162.047 59.4395V64.5024C162.047 65.3248 162.756 65.9915 163.629 65.9915H166.793C167.667 65.9915 168.375 65.3248 168.375 64.5024V59.4395C168.375 58.6171 167.667 57.9504 166.793 57.9504Z" fill="#00D564"/>
</g>
<g clip-path="url(#clip10_253_2282)">
<path d="M184.799 29.255H181.635C180.761 29.255 180.053 29.9217 180.053 30.7441V35.807C180.053 36.6294 180.761 37.2961 181.635 37.2961H184.799C185.673 37.2961 186.381 36.6294 186.381 35.807V30.7441C186.381 29.9217 185.673 29.255 184.799 29.255Z" fill="#00D564"/>
</g>
<g clip-path="url(#clip11_253_2282)">
<path d="M202.804 57.9504H199.64C198.766 57.9504 198.058 58.6171 198.058 59.4395V64.5024C198.058 65.3248 198.766 65.9915 199.64 65.9915H202.804C203.678 65.9915 204.386 65.3248 204.386 64.5024V59.4395C204.386 58.6171 203.678 57.9504 202.804 57.9504Z" fill="#FF0000"/>
</g>
<g clip-path="url(#clip12_253_2282)">
<path d="M220.809 29.255H217.645C216.772 29.255 216.063 29.9217 216.063 30.7441V35.807C216.063 36.6294 216.772 37.2961 217.645 37.2961H220.809C221.683 37.2961 222.391 36.6294 222.391 35.807V30.7441C222.391 29.9217 221.683 29.255 220.809 29.255Z" fill="#00D564"/>
</g>
<g clip-path="url(#clip13_253_2282)">
<path d="M238.815 57.9504H235.651C234.777 57.9504 234.069 58.6171 234.069 59.4395V64.5024C234.069 65.3248 234.777 65.9915 235.651 65.9915H238.815C239.689 65.9915 240.397 65.3248 240.397 64.5024V59.4395C240.397 58.6171 239.689 57.9504 238.815 57.9504Z" fill="#FF0000"/>
</g>
<g clip-path="url(#clip14_253_2282)">
<path d="M256.82 29.255H253.656C252.782 29.255 252.074 29.9217 252.074 30.7441V35.807C252.074 36.6294 252.782 37.2961 253.656 37.2961H256.82C257.694 37.2961 258.402 36.6294 258.402 35.807V30.7441C258.402 29.9217 257.694 29.255 256.82 29.255Z" fill="#00D564"/>
</g>
<g clip-path="url(#clip15_253_2282)">
<path d="M274.825 57.9504H271.661C270.787 57.9504 270.079 58.6171 270.079 59.4395V64.5024C270.079 65.3248 270.787 65.9915 271.661 65.9915H274.825C275.699 65.9915 276.407 65.3248 276.407 64.5024V59.4395C276.407 58.6171 275.699 57.9504 274.825 57.9504Z" fill="#FF0000"/>
</g>
<g clip-path="url(#clip16_253_2282)">
<path d="M292.831 29.255H289.667C288.793 29.255 288.084 29.9217 288.084 30.7441V35.807C288.084 36.6294 288.793 37.2961 289.667 37.2961H292.831C293.704 37.2961 294.413 36.6294 294.413 35.807V30.7441C294.413 29.9217 293.704 29.255 292.831 29.255Z" fill="#00D564"/>
</g>
<g clip-path="url(#clip17_253_2282)">
<path d="M310.836 0.558573H307.672C306.798 0.558573 306.09 1.22526 306.09 2.04767V7.1106C306.09 7.93301 306.798 8.5997 307.672 8.5997H310.836C311.71 8.5997 312.418 7.93301 312.418 7.1106V2.04767C312.418 1.22526 311.71 0.558573 310.836 0.558573Z" fill="#00D564"/>
</g>
<defs>
<clipPath id="clip0_253_2282">
<rect width="7.90344" height="10.043" fill="white" transform="translate(0 143.48) scale(1.00084)"/>
</clipPath>
<clipPath id="clip1_253_2282">
<rect width="7.90344" height="10.043" fill="white" transform="translate(18.0052 172.176) scale(1.00084)"/>
</clipPath>
<clipPath id="clip2_253_2282">
<rect width="7.90344" height="10.043" fill="white" transform="translate(36.0105 200.873) scale(1.00084)"/>
</clipPath>
<clipPath id="clip3_253_2282">
<rect width="7.90344" height="10.043" fill="white" transform="translate(54.0158 172.176) scale(1.00084)"/>
</clipPath>
<clipPath id="clip4_253_2282">
<rect width="7.90344" height="10.043" fill="white" transform="translate(72.021 143.48) scale(1.00084)"/>
</clipPath>
<clipPath id="clip5_253_2282">
<rect width="7.90344" height="10.043" fill="white" transform="translate(90.0264 172.176) scale(1.00084)"/>
</clipPath>
<clipPath id="clip6_253_2282">
<rect width="7.90344" height="10.043" fill="white" transform="translate(108.032 143.48) scale(1.00084)"/>
</clipPath>
<clipPath id="clip7_253_2282">
<rect width="7.90344" height="10.043" fill="white" transform="translate(126.037 114.785) scale(1.00084)"/>
</clipPath>
<clipPath id="clip8_253_2282">
<rect width="7.90344" height="10.043" fill="white" transform="translate(144.042 86.0882) scale(1.00084)"/>
</clipPath>
<clipPath id="clip9_253_2282">
<rect width="7.90344" height="10.043" fill="white" transform="translate(162.047 57.3918) scale(1.00084)"/>
</clipPath>
<clipPath id="clip10_253_2282">
<rect width="7.90344" height="10.043" fill="white" transform="translate(180.053 28.6964) scale(1.00084)"/>
</clipPath>
<clipPath id="clip11_253_2282">
<rect width="7.90344" height="10.043" fill="white" transform="translate(198.058 57.3918) scale(1.00084)"/>
</clipPath>
<clipPath id="clip12_253_2282">
<rect width="7.90344" height="10.043" fill="white" transform="translate(216.063 28.6964) scale(1.00084)"/>
</clipPath>
<clipPath id="clip13_253_2282">
<rect width="7.90344" height="10.043" fill="white" transform="translate(234.069 57.3918) scale(1.00084)"/>
</clipPath>
<clipPath id="clip14_253_2282">
<rect width="7.90344" height="10.043" fill="white" transform="translate(252.074 28.6964) scale(1.00084)"/>
</clipPath>
<clipPath id="clip15_253_2282">
<rect width="7.90344" height="10.043" fill="white" transform="translate(270.079 57.3918) scale(1.00084)"/>
</clipPath>
<clipPath id="clip16_253_2282">
<rect width="7.90344" height="10.043" fill="white" transform="translate(288.084 28.6964) scale(1.00084)"/>
</clipPath>
<clipPath id="clip17_253_2282">
<rect width="7.90344" height="10.043" fill="white" transform="translate(306.09) scale(1.00084)"/>
</clipPath>
</defs>
</svg>
