<svg width="24" height="24" viewBox="0 0 24 24" fill="none" xmlns="http://www.w3.org/2000/svg">
<path d="M21.8571 1.28564H2.14285C1.66874 1.28564 1.28571 1.66868 1.28571 2.14279V21.8571C1.28571 22.3312 1.66874 22.7142 2.14285 22.7142H21.8571C22.3312 22.7142 22.7143 22.3312 22.7143 21.8571V2.14279C22.7143 1.66868 22.3312 1.28564 21.8571 1.28564ZM21 13.7142H12.4286V10.2856H21V13.7142ZM13.8214 11.9999C13.8214 12.2841 13.9343 12.5566 14.1352 12.7575C14.3362 12.9585 14.6087 13.0714 14.8928 13.0714C15.177 13.0714 15.4495 12.9585 15.6505 12.7575C15.8514 12.5566 15.9643 12.2841 15.9643 11.9999C15.9643 11.7158 15.8514 11.4432 15.6505 11.2423C15.4495 11.0414 15.177 10.9285 14.8928 10.9285C14.6087 10.9285 14.3362 11.0414 14.1352 11.2423C13.9343 11.4432 13.8214 11.7158 13.8214 11.9999Z" fill="#6F6F6F"/>
</svg>
