<svg width="44" height="22" viewBox="0 0 44 22" fill="none" xmlns="http://www.w3.org/2000/svg">
<rect width="44" height="22" rx="11" fill="white" fill-opacity="0.5"/>
<g clip-path="url(#clip0_253_3219)">
<path d="M31.6938 10.4999L35.2094 6.30924C35.2683 6.23959 35.2188 6.13379 35.1277 6.13379H34.059C33.996 6.13379 33.9358 6.16191 33.8942 6.21013L30.9947 9.66682L28.0951 6.21013C28.0549 6.16191 27.9947 6.13379 27.9304 6.13379H26.8616C26.7706 6.13379 26.721 6.23959 26.7799 6.30924L30.2956 10.4999L26.7799 14.6905C26.7667 14.706 26.7583 14.725 26.7555 14.7452C26.7528 14.7654 26.7559 14.7859 26.7645 14.8044C26.7731 14.8229 26.7869 14.8385 26.8041 14.8494C26.8213 14.8603 26.8413 14.866 26.8616 14.8659H27.9304C27.9933 14.8659 28.0536 14.8378 28.0951 14.7896L30.9947 11.3329L33.8942 14.7896C33.9344 14.8378 33.9947 14.8659 34.059 14.8659H35.1277C35.2188 14.8659 35.2683 14.7601 35.2094 14.6905L31.6938 10.4999Z" fill="white"/>
</g>
<g filter="url(#filter0_d_253_3219)">
<rect x="2" y="2" width="18" height="18" rx="9" fill="white"/>
</g>
<defs>
<filter id="filter0_d_253_3219" x="-2" y="0" width="26" height="26" filterUnits="userSpaceOnUse" color-interpolation-filters="sRGB">
<feFlood flood-opacity="0" result="BackgroundImageFix"/>
<feColorMatrix in="SourceAlpha" type="matrix" values="0 0 0 0 0 0 0 0 0 0 0 0 0 0 0 0 0 0 127 0" result="hardAlpha"/>
<feOffset dy="2"/>
<feGaussianBlur stdDeviation="2"/>
<feComposite in2="hardAlpha" operator="out"/>
<feColorMatrix type="matrix" values="0 0 0 0 0 0 0 0 0 0.137255 0 0 0 0 0.0431373 0 0 0 0.2 0"/>
<feBlend mode="normal" in2="BackgroundImageFix" result="effect1_dropShadow_253_3219"/>
<feBlend mode="normal" in="SourceGraphic" in2="effect1_dropShadow_253_3219" result="shape"/>
</filter>
<clipPath id="clip0_253_3219">
<rect width="12" height="12" fill="white" transform="translate(25 4.5)"/>
</clipPath>
</defs>
</svg>
