<svg width="16" height="16" viewBox="0 0 16 16" fill="none" xmlns="http://www.w3.org/2000/svg">
<path d="M9.43437 12.4214C9.55267 12.5693 9.55267 12.8059 9.43437 12.9242L8.10351 14.2551C6.35859 16 3.48983 16 1.74491 14.2551C-5.77634e-06 12.5102 -5.77634e-06 9.6414 1.74491 7.89649L3.07578 6.56562C3.19408 6.44732 3.43068 6.44732 3.57855 6.56562L4.73197 7.74861C4.87985 7.89649 4.87985 8.10351 4.73197 8.25139L3.43068 9.58226C2.57301 10.4104 2.57301 11.7412 3.43068 12.5693C4.25877 13.427 5.58964 13.427 6.41774 12.5693L7.74861 11.268C7.89648 11.1201 8.10351 11.1201 8.25138 11.268L9.43437 12.4214ZM7.74861 4.73198L6.56561 3.57856C6.44731 3.43068 6.44731 3.19409 6.56561 3.07579L7.89648 1.74492C9.6414 0 12.5102 0 14.2551 1.74492C16 3.48983 16 6.3586 14.2551 8.10351L12.9242 9.43438C12.8059 9.55268 12.5693 9.55268 12.4214 9.43438L11.268 8.25139C11.1201 8.10351 11.1201 7.89649 11.268 7.74861L12.5693 6.41774C13.427 5.58965 13.427 4.25878 12.5693 3.43068C11.7412 2.57301 10.4103 2.57301 9.58225 3.43068L8.25138 4.73198C8.10351 4.87985 7.89648 4.87985 7.74861 4.73198ZM14.6987 15.3494C14.403 15.6451 13.9593 15.6451 13.6932 15.3494L0.650641 2.30684C0.354893 2.04067 0.354893 1.59704 0.650641 1.30129L1.30129 0.650647C1.59704 0.354898 2.04066 0.354898 2.30683 0.650647L15.3493 13.6932C15.6451 13.9593 15.6451 14.403 15.3493 14.6987L14.6987 15.3494Z" fill="white"/>
</svg>
